<svg width="52" height="52" viewBox="0 0 52 52" fill="none" xmlns="http://www.w3.org/2000/svg">
<path d="M21.98 27.047L21.9874 27.0323L21.9914 27.0163C22.0407 26.8189 22.2465 26.6955 22.4975 26.6955H24.6697C25.2784 26.6955 25.8996 26.4693 26.2967 26.0003C26.7656 25.6032 26.9918 24.982 26.9918 24.3733C26.9918 23.7647 26.7656 23.1434 26.2967 22.7464C25.8996 22.2774 25.2784 22.0512 24.6697 22.0512H22.4975C22.3144 22.0512 22.1734 21.9908 22.0786 21.896C21.9838 21.8012 21.9234 21.6602 21.9234 21.4771C21.9234 21.294 21.9838 21.153 22.0786 21.0582C22.1734 20.9634 22.3144 20.9031 22.4975 20.9031H30.4621C30.6453 20.9031 30.7862 20.9634 30.881 21.0582C30.9758 21.153 31.0362 21.294 31.0362 21.4771C31.0362 21.6602 30.9758 21.8012 30.881 21.896C30.7862 21.9908 30.6453 22.0512 30.4621 22.0512H27.5659H27.2856L27.4411 22.2844C27.8644 22.9193 28.14 23.6148 28.14 24.3733C28.14 25.2775 27.7921 26.1763 27.1035 26.796L27.0977 26.8013L27.0924 26.8072C26.4726 27.4958 25.5739 27.8436 24.6697 27.8436H24.2352H23.8731L24.1292 28.0997L27.2426 31.2131C27.4737 31.4442 27.4737 31.7836 27.2426 32.0147C27.1791 32.0782 27.1215 32.1199 27.0615 32.1466C27.0022 32.173 26.933 32.188 26.8418 32.188C26.7507 32.188 26.6815 32.173 26.6222 32.1466C26.5622 32.1199 26.5046 32.0782 26.4411 32.0147L22.0967 27.6703C21.9186 27.4923 21.868 27.2711 21.98 27.047Z" fill="#D8A131" stroke="#191919" stroke-width="0.3"></path>
<path d="M30.4621 24.9475H22.4975C22.3144 24.9475 22.1734 24.8871 22.0786 24.7923C21.9838 24.6976 21.9234 24.5566 21.9234 24.3735C21.9234 24.1903 21.9838 24.0494 22.0786 23.9546C22.1734 23.8598 22.3144 23.7994 22.4975 23.7994H30.4621C30.6453 23.7994 30.7862 23.8598 30.881 23.9546C30.9758 24.0494 31.0362 24.1903 31.0362 24.3735C31.0362 24.5566 30.9758 24.6976 30.881 24.7923C30.7862 24.8871 30.6453 24.9475 30.4621 24.9475Z" fill="#D8A131" stroke="#191919" stroke-width="0.3"/>
<mask id="path-3-inside-1_0_1307" fill="white">
<path d="M50.3512 47.3185V43.2224C50.3512 43.0204 50.271 42.8266 50.1282 42.6838L45.0448 37.6004C45.8633 36.2586 46.5419 34.8346 47.0563 33.3588C47.1948 32.9615 46.985 32.5273 46.5878 32.3888C46.1906 32.2505 45.7563 32.4602 45.6178 32.8573C45.1792 34.1158 44.6121 35.334 43.9345 36.4901L43.1139 35.6695C42.8163 35.372 42.3341 35.372 42.0366 35.6695C41.7391 35.9669 41.7391 36.4493 42.0366 36.7466L43.0961 37.8061C42.5271 38.63 41.9001 39.4148 41.2186 40.1488L36.4835 35.4136C38.5678 33.0929 39.8953 30.0796 40.0727 26.7655H46.762C46.7282 27.6976 46.6325 28.6279 46.4761 29.5405C46.4051 29.955 46.6836 30.3488 47.0983 30.4199C47.1419 30.4274 47.185 30.431 47.2278 30.431C47.592 30.431 47.9141 30.1688 47.9777 29.7978C48.1912 28.5521 48.2994 27.2755 48.2994 26.0039C48.2994 25.5832 47.9584 25.2421 47.5376 25.2421H45.0007C44.7925 19.9839 42.4408 15.2675 38.7958 11.9459L45.256 3.17241H47.3111C47.6304 4.12506 48.5308 4.81366 49.5896 4.81366C50.9146 4.81366 51.9926 3.73567 51.9926 2.41069C51.9926 1.0857 50.9146 0.00771875 49.5896 0.00771875C48.5308 0.00771875 47.6304 0.696312 47.3111 1.64897H44.871C44.6289 1.64897 44.4012 1.76404 44.2577 1.95904L37.6269 10.9641C34.5966 8.61545 30.8408 7.16137 26.758 6.99969V0.761719C26.758 0.341047 26.417 0 25.9962 0C22.0324 0 18.2276 0.868969 14.6876 2.58263C14.3089 2.76595 14.1505 3.22146 14.3338 3.60009C14.5172 3.97871 14.9726 4.13735 15.3513 3.95373C18.4553 2.45111 21.7766 1.63861 25.2345 1.53471V11.9275C17.8143 12.3246 11.8993 18.4862 11.8993 26.0038C11.8993 33.7768 18.2232 40.1007 25.9962 40.1007C29.6093 40.1007 32.9088 38.7339 35.4061 36.4908L42.7501 43.8347C38.1945 48.1189 32.2751 50.4689 25.9963 50.4689C19.4596 50.4689 13.3141 47.9234 8.69192 43.3012C4.06971 38.679 1.52405 32.5334 1.52405 25.9966C1.52405 19.6946 3.93697 13.7319 8.15689 9.24178L10.7232 11.8081C10.8661 11.951 11.0597 12.0312 11.2619 12.0312H13.9677C14.3885 12.0312 14.7294 11.6901 14.7294 11.2695C14.7294 10.8488 14.3885 10.5078 13.9677 10.5078H11.5773L9.23426 8.16461C10.1995 7.25776 11.2447 6.422 12.3648 5.66952C12.714 5.43491 12.8069 4.96173 12.5724 4.61246C12.3379 4.26329 11.8646 4.17026 11.5155 4.40497C10.3126 5.213 9.1911 6.11122 8.15648 7.08673L4.55254 3.48298C4.71433 3.15991 4.80594 2.79591 4.80594 2.41069C4.80594 1.0857 3.72795 0.00771875 2.40297 0.00771875C1.07798 0.00771875 0 1.0857 0 2.41069C0 3.73567 1.07798 4.81366 2.40297 4.81366C2.7882 4.81366 3.1522 4.72205 3.47527 4.56026L7.07911 8.1642C2.57623 12.9374 0.000609375 19.2859 0.000609375 25.9967C0.000609375 32.9404 2.70471 39.4685 7.61465 44.3784C12.5246 49.2884 19.0526 51.9924 25.9962 51.9924C32.9362 51.9924 39.4628 49.2896 44.374 44.3819C44.5169 44.2391 44.5972 44.0453 44.5972 43.8432C44.5972 43.6411 44.517 43.4473 44.3742 43.3044L42.2953 41.2255C42.9779 40.4941 43.6122 39.717 44.1909 38.901L48.8277 43.5378V47.3185C47.8749 47.6378 47.1863 48.5382 47.1863 49.597C47.1863 50.922 48.2643 52 49.5894 52C50.9144 52 51.9924 50.922 51.9924 49.597C51.9925 48.5382 51.3039 47.6379 50.3512 47.3185ZM49.5895 1.53116C50.0745 1.53116 50.469 1.92573 50.469 2.41079C50.469 2.89585 50.0745 3.29032 49.5895 3.29032C49.1046 3.29032 48.7099 2.89575 48.7099 2.41079C48.7099 1.92583 49.1046 1.53116 49.5895 1.53116ZM1.52344 2.41069C1.52344 1.92573 1.91801 1.53105 2.40297 1.53105C2.88793 1.53105 3.2825 1.92562 3.2825 2.41069C3.2825 2.89575 2.88793 3.29022 2.40297 3.29022C1.91801 3.29022 1.52344 2.89565 1.52344 2.41069ZM36.7237 12.1904L36.0881 13.0535C35.8387 13.3922 35.9111 13.8692 36.2498 14.1186C36.3858 14.2188 36.5439 14.267 36.7008 14.267C36.9347 14.267 37.1655 14.1596 37.3148 13.9569L37.8868 13.1801C41.1592 16.2165 43.2713 20.486 43.4761 25.242H40.0726C39.689 18.074 33.926 12.3111 26.7581 11.9275V8.52414C30.503 8.68532 33.9464 10.0288 36.7237 12.1904ZM13.4227 26.0039C13.4227 19.0708 19.0633 13.4302 25.9963 13.4302C32.9294 13.4302 38.57 19.0707 38.57 26.0039C38.57 32.9369 32.9294 38.5774 25.9963 38.5774C19.0633 38.5774 13.4227 32.9369 13.4227 26.0039ZM49.5895 50.4766C49.1046 50.4766 48.7099 50.082 48.7099 49.597C48.7099 49.1121 49.1046 48.7174 49.5895 48.7174C50.0745 48.7174 50.469 49.112 50.469 49.597C50.469 50.082 50.0745 50.4766 49.5895 50.4766Z">
</path>
</mask>
<path d="M50.3512 47.3185V43.2224C50.3512 43.0204 50.271 42.8266 50.1282 42.6838L45.0448 37.6004C45.8633 36.2586 46.5419 34.8346 47.0563 33.3588C47.1948 32.9615 46.985 32.5273 46.5878 32.3888C46.1906 32.2505 45.7563 32.4602 45.6178 32.8573C45.1792 34.1158 44.6121 35.334 43.9345 36.4901L43.1139 35.6695C42.8163 35.372 42.3341 35.372 42.0366 35.6695C41.7391 35.9669 41.7391 36.4493 42.0366 36.7466L43.0961 37.8061C42.5271 38.63 41.9001 39.4148 41.2186 40.1488L36.4835 35.4136C38.5678 33.0929 39.8953 30.0796 40.0727 26.7655H46.762C46.7282 27.6976 46.6325 28.6279 46.4761 29.5405C46.4051 29.955 46.6836 30.3488 47.0983 30.4199C47.1419 30.4274 47.185 30.431 47.2278 30.431C47.592 30.431 47.9141 30.1688 47.9777 29.7978C48.1912 28.5521 48.2994 27.2755 48.2994 26.0039C48.2994 25.5832 47.9584 25.2421 47.5376 25.2421H45.0007C44.7925 19.9839 42.4408 15.2675 38.7958 11.9459L45.256 3.17241H47.3111C47.6304 4.12506 48.5308 4.81366 49.5896 4.81366C50.9146 4.81366 51.9926 3.73567 51.9926 2.41069C51.9926 1.0857 50.9146 0.00771875 49.5896 0.00771875C48.5308 0.00771875 47.6304 0.696312 47.3111 1.64897H44.871C44.6289 1.64897 44.4012 1.76404 44.2577 1.95904L37.6269 10.9641C34.5966 8.61545 30.8408 7.16137 26.758 6.99969V0.761719C26.758 0.341047 26.417 0 25.9962 0C22.0324 0 18.2276 0.868969 14.6876 2.58263C14.3089 2.76595 14.1505 3.22146 14.3338 3.60009C14.5172 3.97871 14.9726 4.13735 15.3513 3.95373C18.4553 2.45111 21.7766 1.63861 25.2345 1.53471V11.9275C17.8143 12.3246 11.8993 18.4862 11.8993 26.0038C11.8993 33.7768 18.2232 40.1007 25.9962 40.1007C29.6093 40.1007 32.9088 38.7339 35.4061 36.4908L42.7501 43.8347C38.1945 48.1189 32.2751 50.4689 25.9963 50.4689C19.4596 50.4689 13.3141 47.9234 8.69192 43.3012C4.06971 38.679 1.52405 32.5334 1.52405 25.9966C1.52405 19.6946 3.93697 13.7319 8.15689 9.24178L10.7232 11.8081C10.8661 11.951 11.0597 12.0312 11.2619 12.0312H13.9677C14.3885 12.0312 14.7294 11.6901 14.7294 11.2695C14.7294 10.8488 14.3885 10.5078 13.9677 10.5078H11.5773L9.23426 8.16461C10.1995 7.25776 11.2447 6.422 12.3648 5.66952C12.714 5.43491 12.8069 4.96173 12.5724 4.61246C12.3379 4.26329 11.8646 4.17026 11.5155 4.40497C10.3126 5.213 9.1911 6.11122 8.15648 7.08673L4.55254 3.48298C4.71433 3.15991 4.80594 2.79591 4.80594 2.41069C4.80594 1.0857 3.72795 0.00771875 2.40297 0.00771875C1.07798 0.00771875 0 1.0857 0 2.41069C0 3.73567 1.07798 4.81366 2.40297 4.81366C2.7882 4.81366 3.1522 4.72205 3.47527 4.56026L7.07911 8.1642C2.57623 12.9374 0.000609375 19.2859 0.000609375 25.9967C0.000609375 32.9404 2.70471 39.4685 7.61465 44.3784C12.5246 49.2884 19.0526 51.9924 25.9962 51.9924C32.9362 51.9924 39.4628 49.2896 44.374 44.3819C44.5169 44.2391 44.5972 44.0453 44.5972 43.8432C44.5972 43.6411 44.517 43.4473 44.3742 43.3044L42.2953 41.2255C42.9779 40.4941 43.6122 39.717 44.1909 38.901L48.8277 43.5378V47.3185C47.8749 47.6378 47.1863 48.5382 47.1863 49.597C47.1863 50.922 48.2643 52 49.5894 52C50.9144 52 51.9924 50.922 51.9924 49.597C51.9925 48.5382 51.3039 47.6379 50.3512 47.3185ZM49.5895 1.53116C50.0745 1.53116 50.469 1.92573 50.469 2.41079C50.469 2.89585 50.0745 3.29032 49.5895 3.29032C49.1046 3.29032 48.7099 2.89575 48.7099 2.41079C48.7099 1.92583 49.1046 1.53116 49.5895 1.53116ZM1.52344 2.41069C1.52344 1.92573 1.91801 1.53105 2.40297 1.53105C2.88793 1.53105 3.2825 1.92562 3.2825 2.41069C3.2825 2.89575 2.88793 3.29022 2.40297 3.29022C1.91801 3.29022 1.52344 2.89565 1.52344 2.41069ZM36.7237 12.1904L36.0881 13.0535C35.8387 13.3922 35.9111 13.8692 36.2498 14.1186C36.3858 14.2188 36.5439 14.267 36.7008 14.267C36.9347 14.267 37.1655 14.1596 37.3148 13.9569L37.8868 13.1801C41.1592 16.2165 43.2713 20.486 43.4761 25.242H40.0726C39.689 18.074 33.926 12.3111 26.7581 11.9275V8.52414C30.503 8.68532 33.9464 10.0288 36.7237 12.1904ZM13.4227 26.0039C13.4227 19.0708 19.0633 13.4302 25.9963 13.4302C32.9294 13.4302 38.57 19.0707 38.57 26.0039C38.57 32.9369 32.9294 38.5774 25.9963 38.5774C19.0633 38.5774 13.4227 32.9369 13.4227 26.0039ZM49.5895 50.4766C49.1046 50.4766 48.7099 50.082 48.7099 49.597C48.7099 49.1121 49.1046 48.7174 49.5895 48.7174C50.0745 48.7174 50.469 49.112 50.469 49.597C50.469 50.082 50.0745 50.4766 49.5895 50.4766Z" fill="#D8A131" transform-origin="50% 50%">
    <!-- <animateTransform attributeName="transform" type="rotate" from="0 0 0" to="360 0 0" dur="4s" repeatCount="indefinite" fill="freeze" /> -->
    </path>
<path d="M7.11447 8.19956L8.19184 7.12208L8.12113 7.05137L7.04375 8.12885L7.11447 8.19956ZM8.19224 9.27714L9.26962 8.19997L9.19891 8.12925L8.12154 9.20642L8.19224 9.27714ZM36.6913 12.2285L37.8544 13.2182L37.9192 13.142L36.7561 12.1524L36.6913 12.2285ZM37.5947 11.0024L38.7636 11.9842L38.8279 11.9076L37.659 10.9258L37.5947 11.0024ZM43.1563 37.8326L43.9769 36.5165L43.8921 36.4636L43.0715 37.7797L43.1563 37.8326ZM44.2327 38.9284L45.0866 37.6278L45.003 37.5729L44.1491 38.8735L44.2327 38.9284ZM50.3512 47.3185H50.2512V47.3904L50.3194 47.4133L50.3512 47.3185ZM50.1282 42.6838L50.0575 42.7545L50.1282 42.6838ZM45.0448 37.6004L44.9594 37.5483L44.9185 37.6154L44.9741 37.6711L45.0448 37.6004ZM47.0563 33.3588L47.1508 33.3917L47.1508 33.3917L47.0563 33.3588ZM46.5878 32.3888L46.6208 32.2944L46.6207 32.2944L46.5878 32.3888ZM45.6178 32.8573L45.5234 32.8244L45.5234 32.8244L45.6178 32.8573ZM43.9345 36.4901L43.8638 36.5608L43.9553 36.6523L44.0208 36.5407L43.9345 36.4901ZM43.1139 35.6695L43.1846 35.5988L43.1846 35.5987L43.1139 35.6695ZM42.0366 36.7466L42.1073 36.6759L42.1073 36.6759L42.0366 36.7466ZM43.0961 37.8061L43.1784 37.863L43.2258 37.7944L43.1668 37.7354L43.0961 37.8061ZM41.2186 40.1488L41.1479 40.2195L41.2213 40.2929L41.2919 40.2168L41.2186 40.1488ZM36.4835 35.4136L36.4091 35.3468L36.3458 35.4173L36.4128 35.4843L36.4835 35.4136ZM40.0727 26.7655V26.6655H39.9779L39.9728 26.7601L40.0727 26.7655ZM46.762 26.7655L46.8619 26.7691L46.8657 26.6655H46.762V26.7655ZM46.4761 29.5405L46.3776 29.5236V29.5236L46.4761 29.5405ZM47.0983 30.4199L47.1153 30.3214L47.1152 30.3213L47.0983 30.4199ZM47.9777 29.7978L47.8792 29.7809V29.7809L47.9777 29.7978ZM45.0007 25.2421L44.9008 25.2461L44.9046 25.3421H45.0007V25.2421ZM38.7958 11.9459L38.7152 11.8866L38.6618 11.9591L38.7284 12.0198L38.7958 11.9459ZM45.256 3.17241V3.07241H45.2055L45.1755 3.11311L45.256 3.17241ZM47.3111 3.17241L47.4059 3.14063L47.383 3.07241H47.3111V3.17241ZM47.3111 1.64897V1.74897H47.383L47.4059 1.68075L47.3111 1.64897ZM44.2577 1.95904L44.3382 2.01833L44.3382 2.01831L44.2577 1.95904ZM37.6269 10.9641L37.5656 11.0431L37.6466 11.1059L37.7074 11.0234L37.6269 10.9641ZM26.758 6.99969H26.658V7.09581L26.754 7.09961L26.758 6.99969ZM14.6876 2.58263L14.644 2.49262L14.644 2.49263L14.6876 2.58263ZM14.3338 3.60009L14.2438 3.64366L14.2438 3.64368L14.3338 3.60009ZM15.3513 3.95373L15.3077 3.86372L15.3076 3.86375L15.3513 3.95373ZM25.2345 1.53471H25.3345V1.43166L25.2315 1.43476L25.2345 1.53471ZM25.2345 11.9275L25.2399 12.0274L25.3345 12.0223V11.9275H25.2345ZM35.4061 36.4908L35.4768 36.4201L35.4098 36.3531L35.3393 36.4164L35.4061 36.4908ZM42.7501 43.8347L42.8186 43.9075L42.8937 43.8369L42.8208 43.764L42.7501 43.8347ZM8.15689 9.24178L8.2276 9.17107L8.15466 9.09813L8.08402 9.1733L8.15689 9.24178ZM11.5773 10.5078L11.5066 10.5785L11.5359 10.6078H11.5773V10.5078ZM9.23426 8.16461L9.16579 8.09173L9.0906 8.16237L9.16355 8.23532L9.23426 8.16461ZM12.3648 5.66952L12.4206 5.75253L12.4206 5.75253L12.3648 5.66952ZM12.5724 4.61246L12.6554 4.55672L12.6554 4.55671L12.5724 4.61246ZM11.5155 4.40497L11.5712 4.48798L11.5712 4.48796L11.5155 4.40497ZM8.15648 7.08673L8.08578 7.15744L8.15444 7.2261L8.22509 7.15949L8.15648 7.08673ZM4.55254 3.48298L4.46312 3.43821L4.43083 3.5027L4.48183 3.5537L4.55254 3.48298ZM3.47527 4.56026L3.54598 4.48955L3.49498 4.43855L3.43049 4.47084L3.47527 4.56026ZM7.07911 8.1642L7.15185 8.23282L7.2185 8.16217L7.14982 8.09349L7.07911 8.1642ZM44.374 44.3819L44.3033 44.3112L44.374 44.3819ZM44.3742 43.3044L44.4449 43.2337L44.4449 43.2337L44.3742 43.3044ZM42.2953 41.2255L42.2222 41.1573L42.1563 41.2279L42.2246 41.2962L42.2953 41.2255ZM44.1909 38.901L44.2616 38.8303L44.1778 38.7465L44.1093 38.8431L44.1909 38.901ZM48.8277 43.5378H48.9277V43.4964L48.8984 43.4671L48.8277 43.5378ZM48.8277 47.3185L48.8595 47.4133L48.9277 47.3904V47.3185H48.8277ZM51.9924 49.597L51.8924 49.597V49.597H51.9924ZM36.7237 12.1904L36.8042 12.2497L36.8619 12.1713L36.7851 12.1115L36.7237 12.1904ZM36.0881 13.0535L36.1686 13.1128V13.1128L36.0881 13.0535ZM36.2498 14.1186L36.1905 14.1991L36.1905 14.1991L36.2498 14.1186ZM37.3148 13.9569L37.3953 14.0162L37.3953 14.0162L37.3148 13.9569ZM37.8868 13.1801L37.9548 13.1068L37.8727 13.0306L37.8062 13.1208L37.8868 13.1801ZM43.4761 25.242V25.342H43.5805L43.576 25.2377L43.4761 25.242ZM40.0726 25.242L39.9727 25.2474L39.9778 25.342H40.0726V25.242ZM26.7581 11.9275H26.6581V12.0223L26.7527 12.0274L26.7581 11.9275ZM26.7581 8.52414L26.7624 8.42423L26.6581 8.41974V8.52414H26.7581ZM50.4512 47.3185V43.2224H50.2512V47.3185H50.4512ZM50.4512 43.2224C50.4512 42.9938 50.3605 42.7746 50.1989 42.6131L50.0575 42.7545C50.1815 42.8785 50.2512 43.0469 50.2512 43.2224H50.4512ZM50.1989 42.6131L45.1155 37.5297L44.9741 37.6711L50.0575 42.7545L50.1989 42.6131ZM45.1302 37.6524C45.9522 36.3049 46.6339 34.8744 47.1508 33.3917L46.9619 33.3259C46.4499 34.7948 45.7743 36.2124 44.9594 37.5483L45.1302 37.6524ZM47.1508 33.3917C47.3074 32.9423 47.0701 32.4511 46.6208 32.2944L46.5549 32.4832C46.9 32.6036 47.0822 32.9807 46.9619 33.3259L47.1508 33.3917ZM46.6207 32.2944C46.1714 32.1379 45.6801 32.3751 45.5234 32.8244L45.7122 32.8902C45.8326 32.5453 46.2099 32.363 46.5549 32.4832L46.6207 32.2944ZM45.5234 32.8244C45.0869 34.0765 44.5227 35.2889 43.8482 36.4395L44.0208 36.5407C44.7016 35.3791 45.2714 34.155 45.7122 32.8902L45.5234 32.8244ZM44.0052 36.4194L43.1846 35.5988L43.0432 35.7402L43.8638 36.5608L44.0052 36.4194ZM43.1846 35.5987C42.848 35.2622 42.3024 35.2622 41.9659 35.5988L42.1073 35.7402C42.3657 35.4818 42.7847 35.4817 43.0432 35.7402L43.1846 35.5987ZM41.9659 35.5988C41.6294 35.9353 41.6294 36.4809 41.9659 36.8174L42.1073 36.6759C41.8489 36.4176 41.8489 35.9986 42.1073 35.7402L41.9659 35.5988ZM41.9659 36.8173L43.0254 37.8768L43.1668 37.7354L42.1073 36.6759L41.9659 36.8173ZM43.0138 37.7493C42.4474 38.5694 41.8235 39.3504 41.1453 40.0807L41.2919 40.2168C41.9768 39.4792 42.6067 38.6907 43.1784 37.863L43.0138 37.7493ZM41.2893 40.0781L36.5542 35.3429L36.4128 35.4843L41.1479 40.2195L41.2893 40.0781ZM36.5579 35.4804C38.6569 33.1434 39.9939 30.1086 40.1726 26.7708L39.9728 26.7601C39.7967 30.0505 38.4788 33.0424 36.4091 35.3468L36.5579 35.4804ZM40.0727 26.8655H46.762V26.6655H40.0727V26.8655ZM46.6621 26.7619C46.6284 27.6896 46.5332 28.6155 46.3776 29.5236L46.5747 29.5574C46.7318 28.6404 46.828 27.7056 46.8619 26.7691L46.6621 26.7619ZM46.3776 29.5236C46.2972 29.9926 46.6123 30.438 47.0814 30.5185L47.1152 30.3213C46.7549 30.2596 46.513 29.9175 46.5747 29.5573L46.3776 29.5236ZM47.0813 30.5184C47.1306 30.5269 47.1794 30.531 47.2278 30.531V30.331C47.1906 30.331 47.1531 30.3279 47.1153 30.3214L47.0813 30.5184ZM47.2278 30.531C47.6399 30.531 48.0043 30.2346 48.0763 29.8147L47.8792 29.7809C47.8239 30.1031 47.5441 30.331 47.2278 30.331V30.531ZM48.0763 29.8147C48.2907 28.5633 48.3994 27.2811 48.3994 26.0039H48.1994C48.1994 27.2699 48.0917 28.5408 47.8792 29.7809L48.0763 29.8147ZM48.3994 26.0039C48.3994 25.528 48.0137 25.1421 47.5376 25.1421V25.3421C47.9032 25.3421 48.1994 25.6384 48.1994 26.0039H48.3994ZM47.5376 25.1421H45.0007V25.3421H47.5376V25.1421ZM45.1006 25.2382C44.8913 19.9521 42.5271 15.2108 38.8631 11.872L38.7284 12.0198C42.3545 15.3241 44.6937 20.0158 44.9008 25.2461L45.1006 25.2382ZM38.8763 12.0052L45.3366 3.2317L45.1755 3.11311L38.7152 11.8866L38.8763 12.0052ZM45.256 3.27241H47.3111V3.07241H45.256V3.27241ZM47.2162 3.20419C47.5488 4.19622 48.4864 4.91366 49.5896 4.91366V4.71366C48.5752 4.71366 47.712 4.0539 47.4059 3.14063L47.2162 3.20419ZM49.5896 4.91366C50.9698 4.91366 52.0926 3.7909 52.0926 2.41069H51.8926C51.8926 3.68044 50.8594 4.71366 49.5896 4.71366V4.91366ZM52.0926 2.41069C52.0926 1.03047 50.9698 -0.0922813 49.5896 -0.0922813V0.107719C50.8594 0.107719 51.8926 1.14093 51.8926 2.41069H52.0926ZM49.5896 -0.0922813C48.4864 -0.0922813 47.5488 0.625152 47.2162 1.61719L47.4059 1.68075C47.712 0.767473 48.5752 0.107719 49.5896 0.107719V-0.0922813ZM47.3111 1.54897H44.871V1.74897H47.3111V1.54897ZM44.871 1.54897C44.5971 1.54897 44.3395 1.67914 44.1771 1.89977L44.3382 2.01831C44.4629 1.84894 44.6607 1.74897 44.871 1.74897V1.54897ZM44.1772 1.89974L37.5463 10.9048L37.7074 11.0234L44.3382 2.01833L44.1772 1.89974ZM37.6881 10.885C34.6419 8.52411 30.8663 7.06231 26.7619 6.89977L26.754 7.09961C30.8153 7.26044 34.5512 8.70678 37.5656 11.0431L37.6881 10.885ZM26.858 6.99969V0.761719H26.658V6.99969H26.858ZM26.858 0.761719C26.858 0.285827 26.4723 -0.1 25.9962 -0.1V0.1C26.3618 0.1 26.658 0.396267 26.658 0.761719H26.858ZM25.9962 -0.1C22.0174 -0.1 18.1977 0.772332 14.644 2.49262L14.7311 2.67264C18.2575 0.965606 22.0473 0.1 25.9962 0.1V-0.1ZM14.644 2.49263C14.2157 2.7 14.0364 3.2153 14.2438 3.64366L14.4238 3.55651C14.2646 3.22762 14.4022 2.8319 14.7311 2.67264L14.644 2.49263ZM14.2438 3.64368C14.4513 4.07191 14.9665 4.25149 15.3949 4.0437L15.3076 3.86375C14.9788 4.02321 14.5832 3.88551 14.4238 3.55649L14.2438 3.64368ZM15.3948 4.04374C18.4862 2.54728 21.7936 1.73814 25.2375 1.63467L25.2315 1.43476C21.7596 1.53908 18.4245 2.35494 15.3077 3.86372L15.3948 4.04374ZM25.1345 1.53471V11.9275H25.3345V1.53471H25.1345ZM25.2292 11.8276C17.7562 12.2276 11.7993 18.4327 11.7993 26.0038H11.9993C11.9993 18.5397 17.8724 12.4216 25.2399 12.0274L25.2292 11.8276ZM11.7993 26.0038C11.7993 33.8321 18.1679 40.2007 25.9962 40.2007V40.0007C18.2784 40.0007 11.9993 33.7216 11.9993 26.0038H11.7993ZM25.9962 40.2007C29.635 40.2007 32.958 38.8241 35.4729 36.5652L35.3393 36.4164C32.8595 38.6437 29.5836 40.0007 25.9962 40.0007V40.2007ZM35.3354 36.5615L42.6794 43.9054L42.8208 43.764L35.4768 36.4201L35.3354 36.5615ZM42.6816 43.7618C38.1446 48.0286 32.2497 50.3689 25.9963 50.3689V50.5689C32.3006 50.5689 38.2445 48.2092 42.8186 43.9075L42.6816 43.7618ZM25.9963 50.3689C19.4861 50.3689 13.3661 47.8339 8.76263 43.2305L8.62121 43.3719C13.2622 48.0128 19.4331 50.5689 25.9963 50.5689V50.3689ZM8.76263 43.2305C4.15917 38.627 1.62405 32.5069 1.62405 25.9966H1.42405C1.42405 32.5599 3.98025 38.7309 8.62121 43.3719L8.76263 43.2305ZM1.62405 25.9966C1.62405 19.7203 4.02709 13.782 8.22976 9.31027L8.08402 9.1733C3.84684 13.6817 1.42405 19.6689 1.42405 25.9966H1.62405ZM8.08618 9.31249L10.6525 11.8788L10.7939 11.7374L8.2276 9.17107L8.08618 9.31249ZM10.6525 11.8788C10.8141 12.0404 11.0332 12.1312 11.2619 12.1312V11.9312C11.0863 11.9312 10.918 11.8615 10.7939 11.7374L10.6525 11.8788ZM11.2619 12.1312H13.9677V11.9312H11.2619V12.1312ZM13.9677 12.1312C14.4437 12.1312 14.8294 11.7454 14.8294 11.2695H14.6294C14.6294 11.6349 14.3332 11.9312 13.9677 11.9312V12.1312ZM14.8294 11.2695C14.8294 10.7936 14.4437 10.4078 13.9677 10.4078V10.6078C14.3332 10.6078 14.6294 10.904 14.6294 11.2695H14.8294ZM13.9677 10.4078H11.5773V10.6078H13.9677V10.4078ZM11.648 10.437L9.30498 8.0939L9.16355 8.23532L11.5066 10.5785L11.648 10.437ZM9.30274 8.23749C10.2641 7.33431 11.305 6.50195 12.4206 5.75253L12.3091 5.58651C11.1844 6.34205 10.135 7.1812 9.16579 8.09173L9.30274 8.23749ZM12.4206 5.75253C12.8156 5.48712 12.9207 4.95183 12.6554 4.55672L12.4894 4.6682C12.6931 4.97164 12.6124 5.38271 12.3091 5.58652L12.4206 5.75253ZM12.6554 4.55671C12.3901 4.1617 11.8547 4.05643 11.4597 4.32198L11.5712 4.48796C11.8745 4.28408 12.2857 4.36488 12.4894 4.66821L12.6554 4.55671ZM11.4597 4.32196C10.2522 5.13308 9.12645 6.03473 8.08788 7.01397L8.22509 7.15949C9.25575 6.18771 10.3729 5.29292 11.5712 4.48798L11.4597 4.32196ZM8.22719 7.01601L4.62325 3.41227L4.48183 3.5537L8.08578 7.15744L8.22719 7.01601ZM4.64195 3.52776C4.81048 3.19124 4.90594 2.81195 4.90594 2.41069H4.70594C4.70594 2.77988 4.61818 3.12859 4.46312 3.43821L4.64195 3.52776ZM4.90594 2.41069C4.90594 1.03047 3.78318 -0.0922813 2.40297 -0.0922813V0.107719C3.67272 0.107719 4.70594 1.14093 4.70594 2.41069H4.90594ZM2.40297 -0.0922813C1.02276 -0.0922813 -0.1 1.03047 -0.1 2.41069H0.1C0.1 1.14093 1.13321 0.107719 2.40297 0.107719V-0.0922813ZM-0.1 2.41069C-0.1 3.7909 1.02276 4.91366 2.40297 4.91366V4.71366C1.13321 4.71366 0.1 3.68044 0.1 2.41069H-0.1ZM2.40297 4.91366C2.80423 4.91366 3.18352 4.8182 3.52004 4.64967L3.43049 4.47084C3.12087 4.62589 2.77216 4.71366 2.40297 4.71366V4.91366ZM3.40455 4.63097L7.0084 8.23491L7.14982 8.09349L3.54598 4.48955L3.40455 4.63097ZM7.00637 8.09558C2.48616 12.8872 -0.0993906 19.2601 -0.0993906 25.9967H0.100609C0.100609 19.3117 2.66631 12.9877 7.15185 8.23282L7.00637 8.09558ZM-0.0993906 25.9967C-0.0993906 32.9669 2.61525 39.5205 7.54394 44.4492L7.68536 44.3077C2.79417 39.4165 0.100609 32.9139 0.100609 25.9967H-0.0993906ZM7.54394 44.4492C12.4726 49.3778 19.0261 52.0924 25.9962 52.0924V51.8924C19.0791 51.8924 12.5765 49.1989 7.68536 44.3077L7.54394 44.4492ZM25.9962 52.0924C32.9627 52.0924 39.5148 49.3791 44.4447 44.4526L44.3033 44.3112C39.4109 49.2001 32.9097 51.8924 25.9962 51.8924V52.0924ZM44.4447 44.4526C44.6063 44.2911 44.6972 44.0719 44.6972 43.8432H44.4972C44.4972 44.0188 44.4274 44.1871 44.3033 44.3112L44.4447 44.4526ZM44.6972 43.8432C44.6972 43.6146 44.6064 43.3954 44.4449 43.2337L44.3034 43.3751C44.4275 43.4993 44.4972 43.6676 44.4972 43.8432H44.6972ZM44.4449 43.2337L42.366 41.1548L42.2246 41.2962L44.3035 43.3751L44.4449 43.2337ZM42.3684 41.2938C43.054 40.5591 43.6911 39.7786 44.2724 38.9588L44.1093 38.8431C43.5332 39.6555 42.9018 40.4291 42.2222 41.1573L42.3684 41.2938ZM44.1201 38.9717L48.757 43.6085L48.8984 43.4671L44.2616 38.8303L44.1201 38.9717ZM48.7277 43.5378V47.3185H48.9277V43.5378H48.7277ZM48.7959 47.2237C47.8038 47.5562 47.0863 48.4938 47.0863 49.597H47.2863C47.2863 48.5827 47.9461 47.7194 48.8595 47.4133L48.7959 47.2237ZM47.0863 49.597C47.0863 50.9772 48.2091 52.1 49.5894 52.1V51.9C48.3196 51.9 47.2863 50.8668 47.2863 49.597H47.0863ZM49.5894 52.1C50.9696 52.1 52.0924 50.9772 52.0924 49.597H51.8924C51.8924 50.8668 50.8592 51.9 49.5894 51.9V52.1ZM52.0924 49.597C52.0925 48.4938 51.375 47.5563 50.383 47.2237L50.3194 47.4133C51.2327 47.7195 51.8925 48.5827 51.8924 49.597L52.0924 49.597ZM49.5895 1.63116C50.0192 1.63116 50.369 1.98095 50.369 2.41079H50.569C50.569 1.87051 50.1297 1.43116 49.5895 1.43116V1.63116ZM50.369 2.41079C50.369 2.84062 50.0193 3.19032 49.5895 3.19032V3.39032C50.1297 3.39032 50.569 2.95109 50.569 2.41079H50.369ZM49.5895 3.19032C49.1598 3.19032 48.8099 2.84051 48.8099 2.41079H48.6099C48.6099 2.95099 49.0493 3.39032 49.5895 3.39032V3.19032ZM48.8099 2.41079C48.8099 1.98106 49.1598 1.63116 49.5895 1.63116V1.43116C49.0493 1.43116 48.6099 1.8706 48.6099 2.41079H48.8099ZM1.62344 2.41069C1.62344 1.98094 1.97325 1.63105 2.40297 1.63105V1.43105C1.86276 1.43105 1.42344 1.87051 1.42344 2.41069H1.62344ZM2.40297 1.63105C2.83269 1.63105 3.1825 1.98085 3.1825 2.41069H3.3825C3.3825 1.8704 2.94317 1.43105 2.40297 1.43105V1.63105ZM3.1825 2.41069C3.1825 2.84051 2.83271 3.19022 2.40297 3.19022V3.39022C2.94315 3.39022 3.3825 2.95099 3.3825 2.41069H3.1825ZM2.40297 3.19022C1.97324 3.19022 1.62344 2.84042 1.62344 2.41069H1.42344C1.42344 2.95088 1.86278 3.39022 2.40297 3.39022V3.19022ZM36.6432 12.1311L36.0076 12.9942L36.1686 13.1128L36.8042 12.2497L36.6432 12.1311ZM36.0076 12.9942C35.7254 13.3774 35.8073 13.9169 36.1905 14.1991L36.3091 14.0381C36.0148 13.8214 35.9519 13.4071 36.1686 13.1128L36.0076 12.9942ZM36.1905 14.1991C36.3442 14.3124 36.5233 14.367 36.7008 14.367V14.167C36.5645 14.167 36.4273 14.1252 36.3091 14.0381L36.1905 14.1991ZM36.7008 14.367C36.9651 14.367 37.2264 14.2456 37.3953 14.0162L37.2343 13.8976C37.1046 14.0737 36.9043 14.167 36.7008 14.167V14.367ZM37.3953 14.0162L37.9673 13.2394L37.8062 13.1208L37.2342 13.8976L37.3953 14.0162ZM37.8188 13.2534C41.0727 16.2726 43.1726 20.5177 43.3762 25.2463L43.576 25.2377C43.37 20.4543 41.2457 16.1603 37.9548 13.1068L37.8188 13.2534ZM43.4761 25.142H40.0726V25.342H43.4761V25.142ZM40.1725 25.2367C39.7861 18.0176 33.9824 12.214 26.7634 11.8276L26.7527 12.0274C33.8697 12.4082 39.5919 18.1303 39.9727 25.2474L40.1725 25.2367ZM26.8581 11.9275V8.52414H26.6581V11.9275H26.8581ZM26.7538 8.62405C30.4772 8.7843 33.9007 10.12 36.6623 12.2694L36.7851 12.1115C33.992 9.93758 30.5288 8.58634 26.7624 8.42423L26.7538 8.62405ZM13.5227 26.0039C13.5227 19.126 19.1185 13.5302 25.9963 13.5302V13.3302C19.0081 13.3302 13.3227 19.0156 13.3227 26.0039H13.5227ZM25.9963 13.5302C32.8742 13.5302 38.47 19.1259 38.47 26.0039H38.67C38.67 19.0155 32.9846 13.3302 25.9963 13.3302V13.5302ZM38.47 26.0039C38.47 32.8817 32.8742 38.4774 25.9963 38.4774V38.6774C32.9846 38.6774 38.67 32.9921 38.67 26.0039H38.47ZM25.9963 38.4774C19.1185 38.4774 13.5227 32.8817 13.5227 26.0039H13.3227C13.3227 32.9921 19.0081 38.6774 25.9963 38.6774V38.4774ZM49.5895 50.3766C49.1598 50.3766 48.8099 50.0267 48.8099 49.597H48.6099C48.6099 50.1372 49.0493 50.5766 49.5895 50.5766V50.3766ZM48.8099 49.597C48.8099 49.1673 49.1598 48.8174 49.5895 48.8174V48.6174C49.0493 48.6174 48.6099 49.0568 48.6099 49.597H48.8099ZM49.5895 48.8174C50.0192 48.8174 50.369 49.1672 50.369 49.597H50.569C50.569 49.0567 50.1297 48.6174 49.5895 48.6174V48.8174ZM50.369 49.597C50.369 50.0268 50.0192 50.3766 49.5895 50.3766V50.5766C50.1297 50.5766 50.569 50.1372 50.569 49.597H50.369Z" fill="black" mask="url(#path-3-inside-1_0_1307)">
</path>
</svg>
