<svg width="32" height="32" viewBox="0 0 32 32" fill="none" xmlns="http://www.w3.org/2000/svg">
<g id="blog-icon" clip-path="url(#clip0_35_4639)">
<g id="Group">
<g id="Vector">
<mask id="path-1-inside-1_35_4639" fill="white">
<path d="M14.6305 22.0343L18.2841 21.0989C18.4068 21.0775 18.5198 21.0185 18.6076 20.9301L31.3267 8.20392C31.6647 7.86509 31.8545 7.40603 31.8545 6.92744C31.8545 6.44885 31.6647 5.98979 31.3267 5.65096L30.2999 4.62063C30.1321 4.45228 29.9326 4.31895 29.7129 4.2284C29.4931 4.13785 29.2576 4.09187 29.0199 4.09315C28.7828 4.09234 28.548 4.13854 28.3289 4.22908C28.1097 4.31962 27.9108 4.4527 27.7434 4.62063L25.6335 6.73052V2.75337C25.6331 2.42075 25.567 2.09149 25.4391 1.78445C25.3111 1.47742 25.1239 1.19864 24.888 0.964094C24.6522 0.729549 24.3724 0.543846 24.0646 0.417626C23.7569 0.291406 23.4273 0.227149 23.0946 0.228538H2.79046C2.12112 0.229468 1.47946 0.495775 1.00616 0.969072C0.532863 1.44237 0.266555 2.08403 0.265625 2.75337V24.7806C0.266555 25.45 0.532863 26.0916 1.00616 26.5649C1.47946 27.0382 2.12112 27.3045 2.79046 27.3055H12.4327L18.5056 31.6483C18.5975 31.7142 18.7058 31.7536 18.8186 31.762C18.9314 31.7704 19.0444 31.7475 19.145 31.6959C19.2457 31.6443 19.3302 31.5659 19.3892 31.4695C19.4483 31.373 19.4796 31.2621 19.4797 31.149V27.3055H23.0946C23.764 27.3045 24.4056 27.0382 24.8789 26.5649C25.3522 26.0916 25.6185 25.45 25.6195 24.7806V17.8074C25.6195 17.6442 25.5546 17.4877 25.4392 17.3723C25.3238 17.2569 25.1673 17.1921 25.0041 17.1921C24.8409 17.1921 24.6843 17.2569 24.5689 17.3723C24.4535 17.4877 24.3887 17.6442 24.3887 17.8074V24.7806C24.3887 24.9506 24.3552 25.1188 24.2902 25.2758C24.2252 25.4328 24.1298 25.5755 24.0097 25.6957C23.8895 25.8158 23.7469 25.9112 23.5898 25.9762C23.4328 26.0412 23.2646 26.0747 23.0946 26.0747H17.8762C17.713 26.0747 17.5564 26.1395 17.441 26.2549C17.3256 26.3703 17.2608 26.5269 17.2608 26.6901C17.2608 26.8533 17.3256 27.0098 17.441 27.1252C17.5564 27.2406 17.713 27.3055 17.8762 27.3055H18.2489V29.9534L12.9742 26.1872C12.8715 26.1142 12.7486 26.0749 12.6225 26.0747H2.77639C2.60646 26.0747 2.43818 26.0412 2.28118 25.9762C2.12417 25.9112 1.98152 25.8158 1.86135 25.6957C1.74119 25.5755 1.64587 25.4328 1.58083 25.2758C1.5158 25.1188 1.48233 24.9506 1.48233 24.7806V2.75337C1.48232 2.58224 1.51625 2.41281 1.58216 2.25488C1.64807 2.09696 1.74465 1.95367 1.86631 1.83332C1.98797 1.71297 2.13229 1.61794 2.29092 1.55375C2.44955 1.48955 2.61934 1.45745 2.79046 1.45931H23.0946C23.4378 1.45931 23.767 1.59565 24.0097 1.83833C24.2524 2.08101 24.3887 2.41017 24.3887 2.75337V7.97535L15.0243 17.3397C14.9366 17.428 14.8778 17.5408 14.8555 17.6633L13.8779 21.2747C13.8469 21.379 13.8449 21.4898 13.8721 21.5951C13.8994 21.7005 13.9549 21.7964 14.0327 21.8725C14.1105 21.9478 14.2061 22.0022 14.3107 22.0305C14.4152 22.0588 14.5253 22.0601 14.6305 22.0343ZM27.5711 6.53359L29.4138 8.37623L18.161 19.629L16.3184 17.7899L27.5711 6.53359ZM15.8014 18.989L16.9478 20.1354L15.3549 20.5679L15.8014 18.989ZM29.0199 5.32392C29.0957 5.3237 29.1707 5.3385 29.2408 5.36747C29.3108 5.39644 29.3744 5.43901 29.4278 5.49271L30.4546 6.51953C30.5081 6.57278 30.5505 6.63608 30.5795 6.70578C30.6085 6.77548 30.6234 6.85021 30.6234 6.92568C30.6234 7.00116 30.6085 7.07589 30.5795 7.14559C30.5505 7.21528 30.5081 7.27858 30.4546 7.33183L30.2823 7.50414L28.4432 5.66502L28.6155 5.49271C28.6681 5.4388 28.731 5.39605 28.8005 5.36705C28.87 5.33805 28.9446 5.32338 29.0199 5.32392Z"/>
</mask>
<path d="M14.6305 22.0343L18.2841 21.0989C18.4068 21.0775 18.5198 21.0185 18.6076 20.9301L31.3267 8.20392C31.6647 7.86509 31.8545 7.40603 31.8545 6.92744C31.8545 6.44885 31.6647 5.98979 31.3267 5.65096L30.2999 4.62063C30.1321 4.45228 29.9326 4.31895 29.7129 4.2284C29.4931 4.13785 29.2576 4.09187 29.0199 4.09315C28.7828 4.09234 28.548 4.13854 28.3289 4.22908C28.1097 4.31962 27.9108 4.4527 27.7434 4.62063L25.6335 6.73052V2.75337C25.6331 2.42075 25.567 2.09149 25.4391 1.78445C25.3111 1.47742 25.1239 1.19864 24.888 0.964094C24.6522 0.729549 24.3724 0.543846 24.0646 0.417626C23.7569 0.291406 23.4273 0.227149 23.0946 0.228538H2.79046C2.12112 0.229468 1.47946 0.495775 1.00616 0.969072C0.532863 1.44237 0.266555 2.08403 0.265625 2.75337V24.7806C0.266555 25.45 0.532863 26.0916 1.00616 26.5649C1.47946 27.0382 2.12112 27.3045 2.79046 27.3055H12.4327L18.5056 31.6483C18.5975 31.7142 18.7058 31.7536 18.8186 31.762C18.9314 31.7704 19.0444 31.7475 19.145 31.6959C19.2457 31.6443 19.3302 31.5659 19.3892 31.4695C19.4483 31.373 19.4796 31.2621 19.4797 31.149V27.3055H23.0946C23.764 27.3045 24.4056 27.0382 24.8789 26.5649C25.3522 26.0916 25.6185 25.45 25.6195 24.7806V17.8074C25.6195 17.6442 25.5546 17.4877 25.4392 17.3723C25.3238 17.2569 25.1673 17.1921 25.0041 17.1921C24.8409 17.1921 24.6843 17.2569 24.5689 17.3723C24.4535 17.4877 24.3887 17.6442 24.3887 17.8074V24.7806C24.3887 24.9506 24.3552 25.1188 24.2902 25.2758C24.2252 25.4328 24.1298 25.5755 24.0097 25.6957C23.8895 25.8158 23.7469 25.9112 23.5898 25.9762C23.4328 26.0412 23.2646 26.0747 23.0946 26.0747H17.8762C17.713 26.0747 17.5564 26.1395 17.441 26.2549C17.3256 26.3703 17.2608 26.5269 17.2608 26.6901C17.2608 26.8533 17.3256 27.0098 17.441 27.1252C17.5564 27.2406 17.713 27.3055 17.8762 27.3055H18.2489V29.9534L12.9742 26.1872C12.8715 26.1142 12.7486 26.0749 12.6225 26.0747H2.77639C2.60646 26.0747 2.43818 26.0412 2.28118 25.9762C2.12417 25.9112 1.98152 25.8158 1.86135 25.6957C1.74119 25.5755 1.64587 25.4328 1.58083 25.2758C1.5158 25.1188 1.48233 24.9506 1.48233 24.7806V2.75337C1.48232 2.58224 1.51625 2.41281 1.58216 2.25488C1.64807 2.09696 1.74465 1.95367 1.86631 1.83332C1.98797 1.71297 2.13229 1.61794 2.29092 1.55375C2.44955 1.48955 2.61934 1.45745 2.79046 1.45931H23.0946C23.4378 1.45931 23.767 1.59565 24.0097 1.83833C24.2524 2.08101 24.3887 2.41017 24.3887 2.75337V7.97535L15.0243 17.3397C14.9366 17.428 14.8778 17.5408 14.8555 17.6633L13.8779 21.2747C13.8469 21.379 13.8449 21.4898 13.8721 21.5951C13.8994 21.7005 13.9549 21.7964 14.0327 21.8725C14.1105 21.9478 14.2061 22.0022 14.3107 22.0305C14.4152 22.0588 14.5253 22.0601 14.6305 22.0343ZM27.5711 6.53359L29.4138 8.37623L18.161 19.629L16.3184 17.7899L27.5711 6.53359ZM15.8014 18.989L16.9478 20.1354L15.3549 20.5679L15.8014 18.989ZM29.0199 5.32392C29.0957 5.3237 29.1707 5.3385 29.2408 5.36747C29.3108 5.39644 29.3744 5.43901 29.4278 5.49271L30.4546 6.51953C30.5081 6.57278 30.5505 6.63608 30.5795 6.70578C30.6085 6.77548 30.6234 6.85021 30.6234 6.92568C30.6234 7.00116 30.6085 7.07589 30.5795 7.14559C30.5505 7.21528 30.5081 7.27858 30.4546 7.33183L30.2823 7.50414L28.4432 5.66502L28.6155 5.49271C28.6681 5.4388 28.731 5.39605 28.8005 5.36705C28.87 5.33805 28.9446 5.32338 29.0199 5.32392Z" fill="#D8A131" stroke="#191919" stroke-width="0.4" mask="url(#path-1-inside-1_35_4639)"/>
</g>
<g id="Vector_2">
<mask id="path-2-inside-2_35_4639" fill="white">
<path d="M6.07242 6.45245H11.0869C11.2501 6.45245 11.4067 6.38761 11.5221 6.27221C11.6375 6.1568 11.7023 6.00027 11.7023 5.83706C11.7023 5.67385 11.6375 5.51733 11.5221 5.40192C11.4067 5.28651 11.2501 5.22168 11.0869 5.22168H6.07242C5.90921 5.22168 5.75268 5.28651 5.63727 5.40192C5.52187 5.51733 5.45703 5.67385 5.45703 5.83706C5.45703 6.00027 5.52187 6.1568 5.63727 6.27221C5.75268 6.38761 5.90921 6.45245 6.07242 6.45245Z"/>
</mask>
<path d="M6.07242 6.45245H11.0869C11.2501 6.45245 11.4067 6.38761 11.5221 6.27221C11.6375 6.1568 11.7023 6.00027 11.7023 5.83706C11.7023 5.67385 11.6375 5.51733 11.5221 5.40192C11.4067 5.28651 11.2501 5.22168 11.0869 5.22168H6.07242C5.90921 5.22168 5.75268 5.28651 5.63727 5.40192C5.52187 5.51733 5.45703 5.67385 5.45703 5.83706C5.45703 6.00027 5.52187 6.1568 5.63727 6.27221C5.75268 6.38761 5.90921 6.45245 6.07242 6.45245Z" fill="#D8A131" stroke="#191919" stroke-width="0.4" mask="url(#path-2-inside-2_35_4639)"/>
</g>
<g id="Vector_3">
<mask id="path-3-inside-3_35_4639" fill="white">
<path d="M17.6202 6.45245C17.7834 6.45245 17.94 6.38761 18.0554 6.27221C18.1708 6.1568 18.2356 6.00027 18.2356 5.83706C18.2356 5.67385 18.1708 5.51733 18.0554 5.40192C17.94 5.28651 17.7834 5.22168 17.6202 5.22168H13.7873C13.624 5.22168 13.4675 5.28651 13.3521 5.40192C13.2367 5.51733 13.1719 5.67385 13.1719 5.83706C13.1719 6.00027 13.2367 6.1568 13.3521 6.27221C13.4675 6.38761 13.624 6.45245 13.7873 6.45245H17.6202Z"/>
</mask>
<path d="M17.6202 6.45245C17.7834 6.45245 17.94 6.38761 18.0554 6.27221C18.1708 6.1568 18.2356 6.00027 18.2356 5.83706C18.2356 5.67385 18.1708 5.51733 18.0554 5.40192C17.94 5.28651 17.7834 5.22168 17.6202 5.22168H13.7873C13.624 5.22168 13.4675 5.28651 13.3521 5.40192C13.2367 5.51733 13.1719 5.67385 13.1719 5.83706C13.1719 6.00027 13.2367 6.1568 13.3521 6.27221C13.4675 6.38761 13.624 6.45245 13.7873 6.45245H17.6202Z" fill="#D8A131" stroke="#191919" stroke-width="0.4" mask="url(#path-3-inside-3_35_4639)"/>
</g>
<g id="Vector_4">
<mask id="path-4-inside-4_35_4639" fill="white">
<path d="M6.07242 11.6048H8.43901C8.60222 11.6048 8.75874 11.54 8.87415 11.4246C8.98956 11.3091 9.05439 11.1526 9.05439 10.9894C9.05439 10.8262 8.98956 10.6697 8.87415 10.5543C8.75874 10.4389 8.60222 10.374 8.43901 10.374H6.07242C5.90921 10.374 5.75268 10.4389 5.63727 10.5543C5.52187 10.6697 5.45703 10.8262 5.45703 10.9894C5.45703 11.1526 5.52187 11.3091 5.63727 11.4246C5.75268 11.54 5.90921 11.6048 6.07242 11.6048Z"/>
</mask>
<path d="M6.07242 11.6048H8.43901C8.60222 11.6048 8.75874 11.54 8.87415 11.4246C8.98956 11.3091 9.05439 11.1526 9.05439 10.9894C9.05439 10.8262 8.98956 10.6697 8.87415 10.5543C8.75874 10.4389 8.60222 10.374 8.43901 10.374H6.07242C5.90921 10.374 5.75268 10.4389 5.63727 10.5543C5.52187 10.6697 5.45703 10.8262 5.45703 10.9894C5.45703 11.1526 5.52187 11.3091 5.63727 11.4246C5.75268 11.54 5.90921 11.6048 6.07242 11.6048Z" fill="#D8A131" stroke="#191919" stroke-width="0.4" mask="url(#path-4-inside-4_35_4639)"/>
</g>
<g id="Vector_5">
<mask id="path-5-inside-5_35_4639" fill="white">
<path d="M13.5598 16.1515C13.5598 15.9883 13.495 15.8318 13.3796 15.7164C13.2642 15.601 13.1076 15.5361 12.9444 15.5361H10.8029C10.6397 15.5361 10.4831 15.601 10.3677 15.7164C10.2523 15.8318 10.1875 15.9883 10.1875 16.1515C10.1875 16.3147 10.2523 16.4713 10.3677 16.5867C10.4831 16.7021 10.6397 16.7669 10.8029 16.7669H12.9444C13.1076 16.7669 13.2642 16.7021 13.3796 16.5867C13.495 16.4713 13.5598 16.3147 13.5598 16.1515Z"/>
</mask>
<path d="M13.5598 16.1515C13.5598 15.9883 13.495 15.8318 13.3796 15.7164C13.2642 15.601 13.1076 15.5361 12.9444 15.5361H10.8029C10.6397 15.5361 10.4831 15.601 10.3677 15.7164C10.2523 15.8318 10.1875 15.9883 10.1875 16.1515C10.1875 16.3147 10.2523 16.4713 10.3677 16.5867C10.4831 16.7021 10.6397 16.7669 10.8029 16.7669H12.9444C13.1076 16.7669 13.2642 16.7021 13.3796 16.5867C13.495 16.4713 13.5598 16.3147 13.5598 16.1515Z" fill="#D8A131" stroke="#191919" stroke-width="0.4" mask="url(#path-5-inside-5_35_4639)"/>
</g>
<g id="Vector_6">
<mask id="path-6-inside-6_35_4639" fill="white">
<path d="M6.07242 21.9222H11.9871C12.1504 21.9222 12.3069 21.8573 12.4223 21.7419C12.5377 21.6265 12.6025 21.47 12.6025 21.3068C12.6025 21.1436 12.5377 20.9871 12.4223 20.8716C12.3069 20.7562 12.1504 20.6914 11.9871 20.6914H6.07242C5.90921 20.6914 5.75268 20.7562 5.63727 20.8716C5.52187 20.9871 5.45703 21.1436 5.45703 21.3068C5.45703 21.47 5.52187 21.6265 5.63727 21.7419C5.75268 21.8573 5.90921 21.9222 6.07242 21.9222Z"/>
</mask>
<path d="M6.07242 21.9222H11.9871C12.1504 21.9222 12.3069 21.8573 12.4223 21.7419C12.5377 21.6265 12.6025 21.47 12.6025 21.3068C12.6025 21.1436 12.5377 20.9871 12.4223 20.8716C12.3069 20.7562 12.1504 20.6914 11.9871 20.6914H6.07242C5.90921 20.6914 5.75268 20.7562 5.63727 20.8716C5.52187 20.9871 5.45703 21.1436 5.45703 21.3068C5.45703 21.47 5.52187 21.6265 5.63727 21.7419C5.75268 21.8573 5.90921 21.9222 6.07242 21.9222Z" fill="#D8A131" stroke="#191919" stroke-width="0.4" mask="url(#path-6-inside-6_35_4639)"/>
</g>
<g id="Vector_7">
<mask id="path-7-inside-7_35_4639" fill="white">
<path d="M21.129 6.45245C21.2922 6.45245 21.4487 6.38761 21.5641 6.27221C21.6795 6.1568 21.7443 6.00027 21.7443 5.83706C21.7443 5.67385 21.6795 5.51733 21.5641 5.40192C21.4487 5.28651 21.2922 5.22168 21.129 5.22168H19.9474C19.7842 5.22168 19.6277 5.28651 19.5123 5.40192C19.3969 5.51733 19.332 5.67385 19.332 5.83706C19.332 6.00027 19.3969 6.1568 19.5123 6.27221C19.6277 6.38761 19.7842 6.45245 19.9474 6.45245H21.129Z"/>
</mask>
<path d="M21.129 6.45245C21.2922 6.45245 21.4487 6.38761 21.5641 6.27221C21.6795 6.1568 21.7443 6.00027 21.7443 5.83706C21.7443 5.67385 21.6795 5.51733 21.5641 5.40192C21.4487 5.28651 21.2922 5.22168 21.129 5.22168H19.9474C19.7842 5.22168 19.6277 5.28651 19.5123 5.40192C19.3969 5.51733 19.332 5.67385 19.332 5.83706C19.332 6.00027 19.3969 6.1568 19.5123 6.27221C19.6277 6.38761 19.7842 6.45245 19.9474 6.45245H21.129Z" fill="#D8A131" stroke="#191919" stroke-width="0.4" mask="url(#path-7-inside-7_35_4639)"/>
</g>
<g id="Vector_8">
<mask id="path-8-inside-8_35_4639" fill="white">
<path d="M18.2363 10.9962C18.2363 10.833 18.1715 10.6765 18.0561 10.5611C17.9407 10.4457 17.7841 10.3809 17.6209 10.3809H10.9396C10.8588 10.3809 10.7788 10.3968 10.7041 10.4277C10.6294 10.4586 10.5616 10.504 10.5045 10.5611C10.4473 10.6182 10.402 10.6861 10.3711 10.7607C10.3401 10.8354 10.3242 10.9154 10.3242 10.9962C10.3242 11.0771 10.3401 11.1571 10.3711 11.2317C10.402 11.3064 10.4473 11.3742 10.5045 11.4314C10.5616 11.4885 10.6294 11.5339 10.7041 11.5648C10.7788 11.5957 10.8588 11.6116 10.9396 11.6116H17.6209C17.7841 11.6116 17.9407 11.5468 18.0561 11.4314C18.1715 11.316 18.2363 11.1595 18.2363 10.9962Z"/>
</mask>
<path d="M18.2363 10.9962C18.2363 10.833 18.1715 10.6765 18.0561 10.5611C17.9407 10.4457 17.7841 10.3809 17.6209 10.3809H10.9396C10.8588 10.3809 10.7788 10.3968 10.7041 10.4277C10.6294 10.4586 10.5616 10.504 10.5045 10.5611C10.4473 10.6182 10.402 10.6861 10.3711 10.7607C10.3401 10.8354 10.3242 10.9154 10.3242 10.9962C10.3242 11.0771 10.3401 11.1571 10.3711 11.2317C10.402 11.3064 10.4473 11.3742 10.5045 11.4314C10.5616 11.4885 10.6294 11.5339 10.7041 11.5648C10.7788 11.5957 10.8588 11.6116 10.9396 11.6116H17.6209C17.7841 11.6116 17.9407 11.5468 18.0561 11.4314C18.1715 11.316 18.2363 11.1595 18.2363 10.9962Z" fill="#D8A131" stroke="#191919" stroke-width="0.4" mask="url(#path-8-inside-8_35_4639)"/>
</g>
<g id="Vector_9">
<mask id="path-9-inside-9_35_4639" fill="white">
<path d="M7.98602 15.5361H6.67788C6.51467 15.5361 6.35815 15.601 6.24274 15.7164C6.12734 15.8318 6.0625 15.9883 6.0625 16.1515C6.0625 16.3147 6.12734 16.4713 6.24274 16.5867C6.35815 16.7021 6.51467 16.7669 6.67788 16.7669H8.0036C8.16681 16.7669 8.32333 16.7021 8.43874 16.5867C8.55415 16.4713 8.61898 16.3147 8.61898 16.1515C8.61898 15.9883 8.55415 15.8318 8.43874 15.7164C8.32333 15.601 8.16681 15.5361 8.0036 15.5361H7.98602Z"/>
</mask>
<path d="M7.98602 15.5361H6.67788C6.51467 15.5361 6.35815 15.601 6.24274 15.7164C6.12734 15.8318 6.0625 15.9883 6.0625 16.1515C6.0625 16.3147 6.12734 16.4713 6.24274 16.5867C6.35815 16.7021 6.51467 16.7669 6.67788 16.7669H8.0036C8.16681 16.7669 8.32333 16.7021 8.43874 16.5867C8.55415 16.4713 8.61898 16.3147 8.61898 16.1515C8.61898 15.9883 8.55415 15.8318 8.43874 15.7164C8.32333 15.601 8.16681 15.5361 8.0036 15.5361H7.98602Z" fill="#D8A131" stroke="#191919" stroke-width="0.4" mask="url(#path-9-inside-9_35_4639)"/>
</g>
</g>
</g>
<defs>
<clipPath id="clip0_35_4639">
<rect width="32" height="32" fill="white"/>
</clipPath>
</defs>
</svg>
