<svg width="28" height="28" viewBox="0 0 28 28" fill="none" xmlns="http://www.w3.org/2000/svg">
<path d="M24.35 22.7499V22.8999H24.5H26.25C26.4423 22.8999 26.6267 22.9763 26.7627 23.1123C26.8986 23.2482 26.975 23.4326 26.975 23.6249C26.975 23.8172 26.8986 24.0016 26.7627 24.1376C26.6267 24.2735 26.4423 24.3499 26.25 24.3499H1.75C1.55772 24.3499 1.37331 24.2735 1.23735 24.1376C1.10138 24.0016 1.025 23.8172 1.025 23.6249C1.025 23.4326 1.10138 23.2482 1.23735 23.1123C1.37331 22.9763 1.55772 22.8999 1.75 22.8999H3.5H3.65V22.7499L3.65 9.33398L3.65 9.33369C3.6495 9.06987 3.71424 8.81002 3.83847 8.57728C3.96268 8.34455 4.14251 8.14615 4.36194 7.99973C4.36196 7.99972 4.36198 7.99971 4.362 7.9997L13.1119 2.16786L13.112 2.16782C13.353 2.00702 13.6332 1.91468 13.9226 1.90065C14.212 1.88663 14.4997 1.95146 14.7552 2.08821C15.0106 2.22496 15.2241 2.42851 15.3729 2.67712C15.5217 2.92573 15.6002 3.21008 15.6 3.49982V3.49992V8.74992V8.89992H15.75H22.75C23.1743 8.89992 23.5813 9.06849 23.8814 9.36855C24.1814 9.66861 24.35 10.0756 24.35 10.4999V22.7499ZM22.9 10.4999V10.3499H22.75H15.75H15.6V10.4999V22.7499V22.8999H15.75H22.75H22.9V22.7499V10.4999ZM5.16679 9.20918L5.1 9.25371V9.33398V22.7499V22.8999H5.25H14H14.15V22.7499V3.49992V3.21962L13.9168 3.37511L5.16679 9.20918ZM12.1 12.2499V13.9999C12.1 14.1922 12.0236 14.3766 11.8877 14.5126C11.7517 14.6485 11.5673 14.7249 11.375 14.7249C11.1827 14.7249 10.9983 14.6485 10.8623 14.5126C10.7264 14.3766 10.65 14.1922 10.65 13.9999V12.2499C10.65 12.0576 10.7264 11.8732 10.8623 11.7373C10.9983 11.6013 11.1827 11.5249 11.375 11.5249C11.5673 11.5249 11.7517 11.6013 11.8877 11.7373C12.0236 11.8732 12.1 12.0576 12.1 12.2499ZM8.6 12.2499V13.9999C8.6 14.1922 8.52362 14.3766 8.38765 14.5126C8.25169 14.6485 8.06728 14.7249 7.875 14.7249C7.68272 14.7249 7.49831 14.6485 7.36235 14.5126C7.22638 14.3766 7.15 14.1922 7.15 13.9999V12.2499C7.15 12.0576 7.22638 11.8732 7.36235 11.7373C7.49831 11.6013 7.68272 11.5249 7.875 11.5249C8.06728 11.5249 8.25169 11.6013 8.38765 11.7373C8.52362 11.8732 8.6 12.0576 8.6 12.2499ZM8.6 18.3749V20.1249C8.6 20.3172 8.52362 20.5016 8.38765 20.6376C8.25169 20.7735 8.06728 20.8499 7.875 20.8499C7.68272 20.8499 7.49831 20.7735 7.36235 20.6376C7.22638 20.5016 7.15 20.3172 7.15 20.1249V18.3749C7.15 18.1826 7.22638 17.9982 7.36235 17.8623C7.49831 17.7263 7.68272 17.6499 7.875 17.6499C8.06728 17.6499 8.25169 17.7263 8.38765 17.8623C8.52362 17.9982 8.6 18.1826 8.6 18.3749ZM12.1 18.3749V20.1249C12.1 20.3172 12.0236 20.5016 11.8877 20.6376C11.7517 20.7735 11.5673 20.8499 11.375 20.8499C11.1827 20.8499 10.9983 20.7735 10.8623 20.6376C10.7264 20.5016 10.65 20.3172 10.65 20.1249V18.3749C10.65 18.1826 10.7264 17.9982 10.8623 17.8623C10.9983 17.7263 11.1827 17.6499 11.375 17.6499C11.5673 17.6499 11.7517 17.7263 11.8877 17.8623C12.0236 17.9982 12.1 18.1826 12.1 18.3749Z" fill="#D8A131" stroke="black" stroke-width="0.3"/>
</svg>
