<svg width="64" height="64" viewBox="0 0 64 64" fill="none" xmlns="http://www.w3.org/2000/svg">
<mask id="path-1-inside-1_36_7141" fill="white">
<path d="M34.7246 4.58925C35.2425 4.58925 35.6621 4.16963 35.6621 3.65175V0.9375C35.6621 0.419625 35.2425 0 34.7246 0C34.2067 0 33.7871 0.419625 33.7871 0.9375V3.65175C33.7871 4.1695 34.2069 4.58925 34.7246 4.58925Z"/>
</mask>
<path d="M34.7246 4.58925C35.2425 4.58925 35.6621 4.16963 35.6621 3.65175V0.9375C35.6621 0.419625 35.2425 0 34.7246 0C34.2067 0 33.7871 0.419625 33.7871 0.9375V3.65175C33.7871 4.1695 34.2069 4.58925 34.7246 4.58925Z" fill="#D8A131" stroke="black" stroke-width="0.6" mask="url(#path-1-inside-1_36_7141)"/>
<mask id="path-2-inside-2_36_7141" fill="white">
<path d="M24.0097 6.72744C24.1928 6.91081 24.4329 7.00244 24.673 7.00244C24.9128 7.00244 25.1525 6.91106 25.3355 6.72831C25.7019 6.36231 25.7023 5.76881 25.3364 5.40256L23.4182 3.48206C23.0522 3.11569 22.4585 3.11531 22.0924 3.48119C21.726 3.84719 21.7257 4.44069 22.0915 4.80694L24.0097 6.72744Z"/>
</mask>
<path d="M24.0097 6.72744C24.1928 6.91081 24.4329 7.00244 24.673 7.00244C24.9128 7.00244 25.1525 6.91106 25.3355 6.72831C25.7019 6.36231 25.7023 5.76881 25.3364 5.40256L23.4182 3.48206C23.0522 3.11569 22.4585 3.11531 22.0924 3.48119C21.726 3.84719 21.7257 4.44069 22.0915 4.80694L24.0097 6.72744Z" fill="#D8A131" stroke="black" stroke-width="0.6" mask="url(#path-2-inside-2_36_7141)"/>
<mask id="path-3-inside-3_36_7141" fill="white">
<path d="M44.7724 7.00244C45.0125 7.00244 45.2526 6.91081 45.4357 6.72744L47.354 4.80694C47.7199 4.44056 47.7195 3.84706 47.3531 3.48119C46.9869 3.11531 46.3932 3.11569 46.0274 3.48206L44.1091 5.40256C43.7432 5.76894 43.7436 6.36244 44.11 6.72831C44.2929 6.91094 44.5326 7.00244 44.7724 7.00244Z"/>
</mask>
<path d="M44.7724 7.00244C45.0125 7.00244 45.2526 6.91081 45.4357 6.72744L47.354 4.80694C47.7199 4.44056 47.7195 3.84706 47.3531 3.48119C46.9869 3.11531 46.3932 3.11569 46.0274 3.48206L44.1091 5.40256C43.7432 5.76894 43.7436 6.36244 44.11 6.72831C44.2929 6.91094 44.5326 7.00244 44.7724 7.00244Z" fill="#D8A131" stroke="black" stroke-width="0.6" mask="url(#path-3-inside-3_36_7141)"/>
<mask id="path-4-inside-4_36_7141" fill="white">
<path d="M49.4694 55.9697C49.9873 55.9697 50.4069 55.5501 50.4069 55.0322V47.6949L52.0553 49.3451C52.2384 49.5283 52.4785 49.6199 52.7186 49.6199C52.9584 49.6199 53.1981 49.5286 53.3813 49.3458C53.7475 48.9798 53.7479 48.3862 53.382 48.0199L50.1329 44.7672C50.1168 44.7511 50.1035 44.7394 50.0915 44.7296C49.926 44.5824 49.7085 44.4922 49.4695 44.4922C49.227 44.4922 49.0067 44.5849 48.8404 44.7361C48.8329 44.7422 48.825 44.7497 48.8171 44.7572C48.8135 44.7607 48.8095 44.7638 48.8059 44.7674L45.5539 48.0197C45.1877 48.3858 45.1878 48.9794 45.554 49.3454C45.737 49.5284 45.977 49.6199 46.2169 49.6199C46.4568 49.6199 46.6967 49.5284 46.8799 49.3453L48.532 47.6931V55.0321C48.5319 55.5499 48.9516 55.9697 49.4694 55.9697Z"/>
</mask>
<path d="M49.4694 55.9697C49.9873 55.9697 50.4069 55.5501 50.4069 55.0322V47.6949L52.0553 49.3451C52.2384 49.5283 52.4785 49.6199 52.7186 49.6199C52.9584 49.6199 53.1981 49.5286 53.3813 49.3458C53.7475 48.9798 53.7479 48.3862 53.382 48.0199L50.1329 44.7672C50.1168 44.7511 50.1035 44.7394 50.0915 44.7296C49.926 44.5824 49.7085 44.4922 49.4695 44.4922C49.227 44.4922 49.0067 44.5849 48.8404 44.7361C48.8329 44.7422 48.825 44.7497 48.8171 44.7572C48.8135 44.7607 48.8095 44.7638 48.8059 44.7674L45.5539 48.0197C45.1877 48.3858 45.1878 48.9794 45.554 49.3454C45.737 49.5284 45.977 49.6199 46.2169 49.6199C46.4568 49.6199 46.6967 49.5284 46.8799 49.3453L48.532 47.6931V55.0321C48.5319 55.5499 48.9516 55.9697 49.4694 55.9697Z" fill="#D8A131" stroke="black" stroke-width="0.6" mask="url(#path-4-inside-4_36_7141)"/>
<mask id="path-5-inside-5_36_7141" fill="white">
<path d="M17.313 41.0137C17.3101 41.0137 17.3075 41.0137 17.3047 41.0137C14.9237 41.0137 12.9841 42.9498 12.9795 45.3333C12.975 47.7204 14.911 49.666 17.2935 49.6705H17.3103C18.458 49.6705 19.5376 49.2252 20.3521 48.4153C21.1731 47.5989 21.6265 46.5107 21.6288 45.351C21.6333 42.9639 19.6973 41.0182 17.313 41.0137ZM19.0301 47.0857C18.5695 47.5437 17.9591 47.7955 17.3085 47.7955C17.3054 47.7955 17.302 47.7955 17.299 47.7955C15.9486 47.7929 14.8521 46.69 14.8546 45.3369C14.8572 43.9859 15.956 42.8887 17.3049 42.8887H17.3095C18.6599 42.8913 19.7564 43.9943 19.7539 45.3474C19.7525 46.0057 19.4954 46.6229 19.0301 47.0857Z"/>
</mask>
<path d="M17.313 41.0137C17.3101 41.0137 17.3075 41.0137 17.3047 41.0137C14.9237 41.0137 12.9841 42.9498 12.9795 45.3333C12.975 47.7204 14.911 49.666 17.2935 49.6705H17.3103C18.458 49.6705 19.5376 49.2252 20.3521 48.4153C21.1731 47.5989 21.6265 46.5107 21.6288 45.351C21.6333 42.9639 19.6973 41.0182 17.313 41.0137ZM19.0301 47.0857C18.5695 47.5437 17.9591 47.7955 17.3085 47.7955C17.3054 47.7955 17.302 47.7955 17.299 47.7955C15.9486 47.7929 14.8521 46.69 14.8546 45.3369C14.8572 43.9859 15.956 42.8887 17.3049 42.8887H17.3095C18.6599 42.8913 19.7564 43.9943 19.7539 45.3474C19.7525 46.0057 19.4954 46.6229 19.0301 47.0857Z" fill="#D8A131" stroke="black" stroke-width="0.6" mask="url(#path-5-inside-5_36_7141)"/>
<mask id="path-6-inside-6_36_7141" fill="white">
<path d="M60.3135 46.1159C60.1297 45.6322 59.5885 45.3872 59.1047 45.5709C58.6197 45.7534 58.376 46.2947 58.5585 46.7784C59.9097 50.3559 59.0385 54.4122 56.341 57.1134C54.5047 58.9509 52.0635 59.9634 49.4672 59.9634C46.871 59.9634 44.4297 58.9509 42.5935 57.1134C42.316 56.8359 42.0585 56.5447 41.8235 56.2434C41.656 56.0322 41.4997 55.8147 41.3535 55.5934C41.101 55.2122 40.8797 54.8159 40.6885 54.4097C40.681 54.3959 40.6747 54.3822 40.6685 54.3684C39.8547 52.6297 39.5822 50.6984 39.851 48.8309C39.9435 48.1947 40.0972 47.5659 40.3147 46.9559C40.531 46.3484 40.8085 45.7572 41.1497 45.1947C41.546 44.5372 42.0272 43.9172 42.5935 43.3509C43.2572 42.6859 44.0022 42.1284 44.8047 41.6884C46.2172 40.9122 47.811 40.5009 49.4672 40.5009C52.0635 40.5009 54.5047 41.5122 56.341 43.3509C56.7072 43.7172 57.301 43.7172 57.6672 43.3509C58.0335 42.9859 58.0335 42.3922 57.6672 42.0259C56.5722 40.9297 55.296 40.0797 53.9072 39.5034C52.5185 38.9272 51.016 38.6259 49.4672 38.6259C48.5922 38.6259 47.731 38.7222 46.8972 38.9097C47.0822 38.6847 47.2685 38.4584 47.456 38.2322C50.2472 34.8622 53.1322 31.3772 53.1247 25.0134C53.1197 19.9722 51.421 15.6359 48.2097 12.4734C44.8447 9.15844 39.9272 7.30219 34.7247 7.36969C34.6235 7.36844 34.5235 7.36719 34.4235 7.36719C28.841 7.36719 23.7522 9.53219 20.4247 13.3347C20.0835 13.7234 20.1235 14.3159 20.5122 14.6572C20.9022 14.9984 21.4947 14.9584 21.836 14.5697C24.8635 11.1109 29.561 9.17219 34.711 9.24469H34.7372C39.4497 9.18094 43.881 10.8422 46.8947 13.8097C49.7397 16.6122 51.246 20.4872 51.2497 25.0147C51.2572 30.7022 48.7097 33.7797 46.0122 37.0359C45.1485 38.0784 44.2747 39.1334 43.4885 40.2822C42.6897 40.7647 41.9435 41.3484 41.2672 42.0259C39.8472 43.4484 38.8735 45.1497 38.3447 46.9559H35.4885V29.5693H37.4355C37.9534 29.5693 38.373 29.1497 38.373 28.6318C38.373 28.1139 37.9534 27.6943 37.4355 27.6943H31.5567C31.0389 27.6943 30.6192 28.1139 30.6192 28.6318C30.6192 29.1497 31.0389 29.5693 31.5567 29.5693H33.6135V46.9559H28.6585C28.4422 45.4484 28.0222 44.1259 27.471 42.9272C27.3585 42.6784 27.2385 42.4359 27.1147 42.1984C26.0997 40.2559 24.7547 38.6309 23.4335 37.0359C23.261 36.8284 23.0897 36.6209 22.9197 36.4134C21.536 34.7322 20.2347 33.0509 19.351 30.9809H19.3497C18.636 29.3122 18.1922 27.3909 18.196 25.0147C18.1985 22.3984 18.6935 20.0084 19.666 17.9109C19.8835 17.4409 19.6797 16.8834 19.2097 16.6659C18.7397 16.4484 18.1822 16.6522 17.9647 17.1222C16.8772 19.4672 16.3235 22.1222 16.321 25.0134C16.3172 27.3359 16.6997 29.2747 17.3235 30.9647L15.5447 30.9609C14.286 30.9609 13.2622 31.9847 13.2622 33.2397L13.261 33.9134C12.8785 34.0534 12.5047 34.2122 12.141 34.3872L11.6572 33.9009C10.7685 33.0122 9.32225 33.0097 8.43225 33.8947C8.431 33.8959 8.431 33.8959 8.431 33.8959L5.90475 36.4172C5.4735 36.8472 5.23475 37.4197 5.2335 38.0309C5.23225 38.6409 5.4685 39.2134 5.89725 39.6434L6.44975 40.1972C6.28975 40.5422 6.14725 40.8947 6.02225 41.2534L5.2285 41.2509C3.96975 41.2509 2.946 42.2734 2.946 43.5297L2.9385 47.0984C2.936 47.7072 3.171 48.2822 3.6035 48.7147C4.0335 49.1484 4.606 49.3872 5.21225 49.3872L6.0735 49.3884C6.19725 49.7272 6.336 50.0597 6.4885 50.3859L5.876 50.9984C5.44475 51.4272 5.206 52.0009 5.206 52.6109C5.20475 53.2209 5.441 53.7947 5.8685 54.2234L8.38975 56.7609C9.2785 57.6459 10.7247 57.6472 11.6135 56.7634L12.2272 56.1497C12.551 56.3047 12.881 56.4434 13.216 56.5672V57.4272C13.211 58.6847 14.2297 59.7134 15.4897 59.7197L19.0635 59.7259C20.316 59.7259 21.3397 58.7059 21.346 57.4484L21.3472 56.6522C21.7035 56.5284 22.0535 56.3872 22.3972 56.2309L22.951 56.7872C23.8385 57.6759 25.286 57.6784 26.1772 56.7909L26.7447 56.2247C26.836 56.2372 26.931 56.2434 27.026 56.2434H28.096V59.1822C28.096 61.8384 30.2535 63.9997 32.9047 63.9997H36.5397C39.1935 63.9997 41.3535 61.8384 41.3535 59.1822V58.5222C43.5335 60.6622 46.4097 61.8384 49.4672 61.8384C52.5647 61.8384 55.4772 60.6309 57.6672 58.4384C60.8847 55.2172 61.9235 50.3809 60.3135 46.1159ZM24.8397 49.1409V54.0547C24.8397 54.4622 24.951 54.8447 25.1472 55.1722L24.8547 55.4634C24.6985 55.6184 24.4335 55.6184 24.2785 55.4634L23.2522 54.4322C22.9622 54.1397 22.516 54.0722 22.1522 54.2634C21.5147 54.5984 20.8435 54.8672 20.156 55.0634C19.7535 55.1772 19.4747 55.5447 19.4747 55.9622L19.471 57.4409C19.4697 57.6634 19.2835 57.8509 19.0647 57.8509L15.496 57.8447C15.276 57.8434 15.091 57.6559 15.091 57.4322V55.8947C15.091 55.4809 14.821 55.1172 14.426 54.9972C13.7622 54.7959 13.1135 54.5222 12.501 54.1834C12.3585 54.1047 12.2035 54.0672 12.0485 54.0672C11.806 54.0672 11.566 54.1609 11.386 54.3409L10.2897 55.4347C10.1335 55.5897 9.8685 55.5884 9.716 55.4359L7.19725 52.8997C7.09475 52.7984 7.07975 52.6772 7.07975 52.6147C7.081 52.5509 7.096 52.4297 7.201 52.3259L8.29475 51.2309C8.58725 50.9372 8.6535 50.4859 8.456 50.1222C8.121 49.5047 7.84975 48.8522 7.64725 48.1822C7.5285 47.7872 7.16475 47.5159 6.75225 47.5159L5.2135 47.5122C5.07225 47.5122 4.976 47.4372 4.93225 47.3922C4.88725 47.3484 4.81225 47.2509 4.8135 47.1047L4.821 43.5309C4.821 43.3084 5.0035 43.1259 5.226 43.1259L6.70475 43.1297H6.70725C7.126 43.1297 7.49475 42.8509 7.60975 42.4472C7.80475 41.7597 8.07475 41.0897 8.41475 40.4559C8.60975 40.0922 8.54475 39.6434 8.2535 39.3509L7.226 38.3197C7.1235 38.2172 7.1085 38.0959 7.1085 38.0334C7.1085 37.9709 7.12475 37.8497 7.2285 37.7459L9.75475 35.2234C9.9135 35.0659 10.1722 35.0672 10.3285 35.2247L11.2985 36.1984C11.596 36.4972 12.0547 36.5609 12.4222 36.3547C13.0622 35.9959 13.751 35.7034 14.4685 35.4847C14.8635 35.3659 15.1335 35.0022 15.1335 34.5909L15.1372 33.2422C15.1372 33.0184 15.3197 32.8359 15.5435 32.8359L18.1547 32.8409C19.2185 34.8859 20.616 36.5734 21.9897 38.2322C24.1297 40.8184 26.161 43.2722 26.7622 46.9734C25.681 47.1034 24.8397 48.0247 24.8397 49.1409ZM29.0335 54.3684H27.026C26.8572 54.3684 26.7147 54.2247 26.7147 54.0547V49.1409C26.7147 49.0084 26.8022 48.8934 26.921 48.8497C26.9535 48.8372 26.9885 48.8309 27.026 48.8309H37.961C37.7372 50.6909 37.961 52.5959 38.6335 54.3684H29.0335ZM39.4785 59.1822C39.4785 60.8047 38.1597 62.1247 36.5397 62.1247H32.9047C31.2872 62.1247 29.971 60.8047 29.971 59.1822V56.2434H39.4785V59.1822Z"/>
</mask>
<path d="M60.3135 46.1159C60.1297 45.6322 59.5885 45.3872 59.1047 45.5709C58.6197 45.7534 58.376 46.2947 58.5585 46.7784C59.9097 50.3559 59.0385 54.4122 56.341 57.1134C54.5047 58.9509 52.0635 59.9634 49.4672 59.9634C46.871 59.9634 44.4297 58.9509 42.5935 57.1134C42.316 56.8359 42.0585 56.5447 41.8235 56.2434C41.656 56.0322 41.4997 55.8147 41.3535 55.5934C41.101 55.2122 40.8797 54.8159 40.6885 54.4097C40.681 54.3959 40.6747 54.3822 40.6685 54.3684C39.8547 52.6297 39.5822 50.6984 39.851 48.8309C39.9435 48.1947 40.0972 47.5659 40.3147 46.9559C40.531 46.3484 40.8085 45.7572 41.1497 45.1947C41.546 44.5372 42.0272 43.9172 42.5935 43.3509C43.2572 42.6859 44.0022 42.1284 44.8047 41.6884C46.2172 40.9122 47.811 40.5009 49.4672 40.5009C52.0635 40.5009 54.5047 41.5122 56.341 43.3509C56.7072 43.7172 57.301 43.7172 57.6672 43.3509C58.0335 42.9859 58.0335 42.3922 57.6672 42.0259C56.5722 40.9297 55.296 40.0797 53.9072 39.5034C52.5185 38.9272 51.016 38.6259 49.4672 38.6259C48.5922 38.6259 47.731 38.7222 46.8972 38.9097C47.0822 38.6847 47.2685 38.4584 47.456 38.2322C50.2472 34.8622 53.1322 31.3772 53.1247 25.0134C53.1197 19.9722 51.421 15.6359 48.2097 12.4734C44.8447 9.15844 39.9272 7.30219 34.7247 7.36969C34.6235 7.36844 34.5235 7.36719 34.4235 7.36719C28.841 7.36719 23.7522 9.53219 20.4247 13.3347C20.0835 13.7234 20.1235 14.3159 20.5122 14.6572C20.9022 14.9984 21.4947 14.9584 21.836 14.5697C24.8635 11.1109 29.561 9.17219 34.711 9.24469H34.7372C39.4497 9.18094 43.881 10.8422 46.8947 13.8097C49.7397 16.6122 51.246 20.4872 51.2497 25.0147C51.2572 30.7022 48.7097 33.7797 46.0122 37.0359C45.1485 38.0784 44.2747 39.1334 43.4885 40.2822C42.6897 40.7647 41.9435 41.3484 41.2672 42.0259C39.8472 43.4484 38.8735 45.1497 38.3447 46.9559H35.4885V29.5693H37.4355C37.9534 29.5693 38.373 29.1497 38.373 28.6318C38.373 28.1139 37.9534 27.6943 37.4355 27.6943H31.5567C31.0389 27.6943 30.6192 28.1139 30.6192 28.6318C30.6192 29.1497 31.0389 29.5693 31.5567 29.5693H33.6135V46.9559H28.6585C28.4422 45.4484 28.0222 44.1259 27.471 42.9272C27.3585 42.6784 27.2385 42.4359 27.1147 42.1984C26.0997 40.2559 24.7547 38.6309 23.4335 37.0359C23.261 36.8284 23.0897 36.6209 22.9197 36.4134C21.536 34.7322 20.2347 33.0509 19.351 30.9809H19.3497C18.636 29.3122 18.1922 27.3909 18.196 25.0147C18.1985 22.3984 18.6935 20.0084 19.666 17.9109C19.8835 17.4409 19.6797 16.8834 19.2097 16.6659C18.7397 16.4484 18.1822 16.6522 17.9647 17.1222C16.8772 19.4672 16.3235 22.1222 16.321 25.0134C16.3172 27.3359 16.6997 29.2747 17.3235 30.9647L15.5447 30.9609C14.286 30.9609 13.2622 31.9847 13.2622 33.2397L13.261 33.9134C12.8785 34.0534 12.5047 34.2122 12.141 34.3872L11.6572 33.9009C10.7685 33.0122 9.32225 33.0097 8.43225 33.8947C8.431 33.8959 8.431 33.8959 8.431 33.8959L5.90475 36.4172C5.4735 36.8472 5.23475 37.4197 5.2335 38.0309C5.23225 38.6409 5.4685 39.2134 5.89725 39.6434L6.44975 40.1972C6.28975 40.5422 6.14725 40.8947 6.02225 41.2534L5.2285 41.2509C3.96975 41.2509 2.946 42.2734 2.946 43.5297L2.9385 47.0984C2.936 47.7072 3.171 48.2822 3.6035 48.7147C4.0335 49.1484 4.606 49.3872 5.21225 49.3872L6.0735 49.3884C6.19725 49.7272 6.336 50.0597 6.4885 50.3859L5.876 50.9984C5.44475 51.4272 5.206 52.0009 5.206 52.6109C5.20475 53.2209 5.441 53.7947 5.8685 54.2234L8.38975 56.7609C9.2785 57.6459 10.7247 57.6472 11.6135 56.7634L12.2272 56.1497C12.551 56.3047 12.881 56.4434 13.216 56.5672V57.4272C13.211 58.6847 14.2297 59.7134 15.4897 59.7197L19.0635 59.7259C20.316 59.7259 21.3397 58.7059 21.346 57.4484L21.3472 56.6522C21.7035 56.5284 22.0535 56.3872 22.3972 56.2309L22.951 56.7872C23.8385 57.6759 25.286 57.6784 26.1772 56.7909L26.7447 56.2247C26.836 56.2372 26.931 56.2434 27.026 56.2434H28.096V59.1822C28.096 61.8384 30.2535 63.9997 32.9047 63.9997H36.5397C39.1935 63.9997 41.3535 61.8384 41.3535 59.1822V58.5222C43.5335 60.6622 46.4097 61.8384 49.4672 61.8384C52.5647 61.8384 55.4772 60.6309 57.6672 58.4384C60.8847 55.2172 61.9235 50.3809 60.3135 46.1159ZM24.8397 49.1409V54.0547C24.8397 54.4622 24.951 54.8447 25.1472 55.1722L24.8547 55.4634C24.6985 55.6184 24.4335 55.6184 24.2785 55.4634L23.2522 54.4322C22.9622 54.1397 22.516 54.0722 22.1522 54.2634C21.5147 54.5984 20.8435 54.8672 20.156 55.0634C19.7535 55.1772 19.4747 55.5447 19.4747 55.9622L19.471 57.4409C19.4697 57.6634 19.2835 57.8509 19.0647 57.8509L15.496 57.8447C15.276 57.8434 15.091 57.6559 15.091 57.4322V55.8947C15.091 55.4809 14.821 55.1172 14.426 54.9972C13.7622 54.7959 13.1135 54.5222 12.501 54.1834C12.3585 54.1047 12.2035 54.0672 12.0485 54.0672C11.806 54.0672 11.566 54.1609 11.386 54.3409L10.2897 55.4347C10.1335 55.5897 9.8685 55.5884 9.716 55.4359L7.19725 52.8997C7.09475 52.7984 7.07975 52.6772 7.07975 52.6147C7.081 52.5509 7.096 52.4297 7.201 52.3259L8.29475 51.2309C8.58725 50.9372 8.6535 50.4859 8.456 50.1222C8.121 49.5047 7.84975 48.8522 7.64725 48.1822C7.5285 47.7872 7.16475 47.5159 6.75225 47.5159L5.2135 47.5122C5.07225 47.5122 4.976 47.4372 4.93225 47.3922C4.88725 47.3484 4.81225 47.2509 4.8135 47.1047L4.821 43.5309C4.821 43.3084 5.0035 43.1259 5.226 43.1259L6.70475 43.1297H6.70725C7.126 43.1297 7.49475 42.8509 7.60975 42.4472C7.80475 41.7597 8.07475 41.0897 8.41475 40.4559C8.60975 40.0922 8.54475 39.6434 8.2535 39.3509L7.226 38.3197C7.1235 38.2172 7.1085 38.0959 7.1085 38.0334C7.1085 37.9709 7.12475 37.8497 7.2285 37.7459L9.75475 35.2234C9.9135 35.0659 10.1722 35.0672 10.3285 35.2247L11.2985 36.1984C11.596 36.4972 12.0547 36.5609 12.4222 36.3547C13.0622 35.9959 13.751 35.7034 14.4685 35.4847C14.8635 35.3659 15.1335 35.0022 15.1335 34.5909L15.1372 33.2422C15.1372 33.0184 15.3197 32.8359 15.5435 32.8359L18.1547 32.8409C19.2185 34.8859 20.616 36.5734 21.9897 38.2322C24.1297 40.8184 26.161 43.2722 26.7622 46.9734C25.681 47.1034 24.8397 48.0247 24.8397 49.1409ZM29.0335 54.3684H27.026C26.8572 54.3684 26.7147 54.2247 26.7147 54.0547V49.1409C26.7147 49.0084 26.8022 48.8934 26.921 48.8497C26.9535 48.8372 26.9885 48.8309 27.026 48.8309H37.961C37.7372 50.6909 37.961 52.5959 38.6335 54.3684H29.0335ZM39.4785 59.1822C39.4785 60.8047 38.1597 62.1247 36.5397 62.1247H32.9047C31.2872 62.1247 29.971 60.8047 29.971 59.1822V56.2434H39.4785V59.1822Z" fill="#D8A131" stroke="black" stroke-width="0.6" mask="url(#path-6-inside-6_36_7141)"/>
</svg>
