<svg width="28" height="28" viewBox="0 0 28 28" fill="none" xmlns="http://www.w3.org/2000/svg">
<path d="M22.3515 7.11057L22.6358 6.85H22.2502H5.74984H5.36425L5.64848 7.11057L13.8986 14.6739L14 14.7668L14.1014 14.6739L22.3515 7.11057ZM23.625 21.15H23.775V21V8.11453V7.77354L23.5236 8.00396L14.4904 16.2847L14.4903 16.2848C14.3565 16.4076 14.1816 16.4757 14 16.4757C13.8184 16.4757 13.6435 16.4076 13.5097 16.2848L13.5096 16.2847L4.47636 8.00396L4.225 7.77354V8.11453V21V21.15H4.375H23.625ZM3.5 5.4H24.5C24.6923 5.4 24.8767 5.47638 25.0127 5.61235C25.1486 5.74831 25.225 5.93272 25.225 6.125V21C25.225 21.4243 25.0564 21.8313 24.7564 22.1314C24.4563 22.4314 24.0493 22.6 23.625 22.6H4.375C3.95065 22.6 3.54369 22.4314 3.24363 22.1314C2.94357 21.8313 2.775 21.4243 2.775 21V6.125C2.775 5.93272 2.85138 5.74831 2.98735 5.61235C3.12331 5.47638 3.30772 5.4 3.5 5.4Z" fill="#D8A131" stroke="black" stroke-width="0.3"/>
</svg>
