<svg width="64" height="64" viewBox="0 0 64 64" fill="none" xmlns="http://www.w3.org/2000/svg">
<mask id="path-1-inside-1_36_7134" fill="white">
<path d="M49.2465 27.9963C49.339 27.8688 49.3903 27.7138 49.3903 27.555V10.3337C49.3903 9.23125 48.494 8.31375 47.3915 8.28875C40.814 8.1375 36.8403 5.21 33.6315 2.47875C32.6865 1.67375 31.314 1.67375 30.369 2.47875C27.1603 5.21 23.1878 8.1375 16.609 8.28875C15.5065 8.31375 14.6103 9.23125 14.6103 10.3337V27.555C14.6103 27.7138 14.6603 27.8675 14.754 27.9963C18.7778 33.5375 23.7528 38.1263 30.4078 42.4388C30.899 42.7563 31.449 42.9162 32.0003 42.9162C32.5515 42.9162 33.1015 42.7575 33.5928 42.4388C40.2478 38.1263 45.2228 33.5375 49.2465 27.9963ZM32.7765 41.1787C32.2903 41.4937 31.709 41.4937 31.2228 41.1787C24.8053 37.0225 19.9978 32.61 16.1103 27.31V10.3337C16.1103 10.04 16.349 9.795 16.6428 9.78875C23.7115 9.62625 27.9365 6.52 31.3403 3.62125C31.7278 3.29125 32.2703 3.29125 32.6578 3.62125C36.0615 6.52 40.2865 9.62625 47.3553 9.78875C47.649 9.795 47.8878 10.04 47.8878 10.3337V27.3113C44.0028 32.6113 39.194 37.0225 32.7765 41.1787ZM42.0865 13.5588C40.2178 13.1413 38.399 12.5012 36.6828 11.6587C35.459 11.0575 34.2678 10.3475 33.0403 9.48625C32.409 9.0425 31.5928 9.0425 30.9615 9.48625C29.734 10.3475 28.5415 11.0587 27.3178 11.6587C25.6015 12.5012 23.784 13.14 21.914 13.5588C21.0803 13.745 20.499 14.4712 20.499 15.325V25.5775C20.499 25.7462 20.5565 25.91 20.6603 26.0425C23.4678 29.5912 26.8328 32.7462 30.9465 35.6862C31.2665 35.915 31.6328 36.0288 31.999 36.0288C32.3653 36.0288 32.7315 35.915 33.0515 35.6862C37.1665 32.7462 40.5315 29.5912 43.3378 26.0425C43.4428 25.91 43.499 25.7462 43.499 25.5775V15.325C43.5015 14.4712 42.919 13.745 42.0865 13.5588ZM42.0015 25.3162C39.3153 28.6712 36.1003 31.6662 32.1803 34.4675C32.0653 34.55 31.934 34.55 31.8203 34.4675C27.9015 31.6675 24.6865 28.6712 21.999 25.3162V15.325C21.999 15.1737 22.094 15.055 22.2415 15.0225C24.2265 14.5788 26.1565 13.9 27.979 13.005C29.2728 12.37 30.5303 11.62 31.8228 10.7137C31.9365 10.635 32.0653 10.635 32.179 10.7137C33.4715 11.62 34.729 12.37 36.0228 13.005C37.8453 13.9 39.7753 14.5787 41.7603 15.0212C41.9078 15.0537 42.0028 15.1725 42.0028 15.3237V25.3162H42.0015ZM37.1515 18.7763C37.444 19.0688 37.444 19.5437 37.1515 19.8375L30.974 26.015C30.8278 26.1612 30.6353 26.235 30.444 26.235C30.2528 26.235 30.0603 26.1612 29.914 26.015L26.8515 22.9525C26.559 22.66 26.559 22.185 26.8515 21.8913C27.144 21.5988 27.619 21.5988 27.9128 21.8913L30.4453 24.4237L36.0928 18.7763C36.3828 18.4838 36.8578 18.4838 37.1515 18.7763ZM60.8728 20.9937H60.139C57.8753 20.9937 56.0328 22.83 56.0328 25.0863V34.3363C54.3453 33.2563 52.069 33.5537 50.7253 35.1162L44.2103 42.6925C43.2853 43.7675 42.8165 45.0325 42.8165 46.4512V51.9113C41.874 51.9563 41.1215 52.735 41.1215 53.6888V56.3338C41.1215 56.9375 41.424 57.47 41.8828 57.7925V61.375C41.8828 61.7887 42.219 62.125 42.6328 62.125C43.0465 62.125 43.3828 61.7887 43.3828 61.375V58.1162H55.054V61.375C55.054 61.7887 55.3903 62.125 55.804 62.125C56.2178 62.125 56.554 61.7887 56.554 61.375V57.7938C57.014 57.4713 57.3153 56.9375 57.3153 56.335V53.69C57.3153 52.7362 56.5615 51.9575 55.6203 51.9125V49.9125C55.6203 49.4112 55.759 48.99 56.059 48.5863L61.0015 41.9263C61.7565 40.9088 62.124 39.7988 62.124 38.5312V22.4125C62.1253 21.4325 61.4965 20.9937 60.8728 20.9937ZM55.8178 53.6888V56.3338C55.8178 56.4863 55.689 56.6162 55.5353 56.6162H42.9053C42.7528 56.6162 42.6228 56.4875 42.6228 56.3338V53.6888C42.6228 53.5363 42.7515 53.4062 42.9053 53.4062H55.5365C55.689 53.4075 55.8178 53.5363 55.8178 53.6888ZM60.6253 38.5312C60.6253 39.4775 60.3628 40.2725 59.799 41.0325L54.8565 47.6925C54.3628 48.3575 54.1228 49.0837 54.1228 49.9125V51.9075H44.319V46.4512C44.319 45.3875 44.6565 44.4775 45.3503 43.6712L51.8653 36.095C52.3153 35.5713 52.944 35.255 53.6365 35.2025C54.329 35.15 54.999 35.37 55.5215 35.82L56.0153 36.245L48.3815 45.1225C48.1115 45.4363 48.1465 45.91 48.4615 46.18C48.7753 46.45 49.249 46.4137 49.519 46.1L57.2065 37.1613C57.4528 36.8738 57.574 36.5075 57.5453 36.13C57.5428 36.1025 57.539 36.0763 57.5353 36.0488V25.0875C57.5353 23.6575 58.704 22.495 60.1415 22.495H60.6253V38.5312ZM21.1828 51.9113V46.4512C21.1828 45.0325 20.714 43.7688 19.789 42.6925L13.274 35.1162C11.9303 33.5537 9.65527 33.2563 7.96652 34.3363V25.0863C7.96652 22.83 6.12402 20.9937 3.86027 20.9937H3.12652C2.50277 20.9937 1.87402 21.4325 1.87402 22.4125V38.5312C1.87402 39.7988 2.24152 40.9088 2.99652 41.9263L7.93902 48.5863C8.23777 48.9888 8.37777 49.41 8.37777 49.9125V51.9113C7.43527 51.9563 6.68277 52.735 6.68277 53.6888V56.3338C6.68277 56.9363 6.98527 57.47 7.44402 57.7925V61.375C7.44402 61.7887 7.78027 62.125 8.19402 62.125C8.60777 62.125 8.94402 61.7887 8.94402 61.375V58.1162H20.6153V61.375C20.6153 61.7887 20.9515 62.125 21.3653 62.125C21.779 62.125 22.1153 61.7887 22.1153 61.375V57.7938C22.5753 57.4713 22.8765 56.9375 22.8765 56.335V53.69C22.8778 52.7362 22.1253 51.9575 21.1828 51.9113ZM4.20152 41.0325C3.63777 40.2725 3.37527 39.4775 3.37527 38.5312V22.4937H3.86027C5.29777 22.4937 6.46652 23.6575 6.46652 25.0863V36.0475C6.46277 36.075 6.45902 36.1012 6.45652 36.1287C6.42777 36.5075 6.54777 36.8737 6.79527 37.16L14.4828 46.0988C14.7528 46.4125 15.2265 46.4487 15.5403 46.1787C15.854 45.9087 15.8903 45.435 15.6203 45.1213L7.98652 36.2438L8.48027 35.8187C9.00402 35.3687 9.67277 35.15 10.3653 35.2012C11.0578 35.2537 11.6865 35.57 12.1365 36.0938L18.6515 43.67C19.3453 44.4762 19.6828 45.3863 19.6828 46.45V51.9062H9.87777V49.9125C9.87777 49.0837 9.63777 48.3575 9.14402 47.6925L4.20152 41.0325ZM8.18277 53.6888C8.18277 53.5363 8.31152 53.4062 8.46527 53.4062H21.0965C21.249 53.4062 21.379 53.535 21.379 53.6888V56.3338C21.379 56.4863 21.2503 56.6162 21.0965 56.6162H8.46527C8.31277 56.6162 8.18277 56.4875 8.18277 56.3338V53.6888Z"/>
</mask>
<path d="M49.2465 27.9963C49.339 27.8688 49.3903 27.7138 49.3903 27.555V10.3337C49.3903 9.23125 48.494 8.31375 47.3915 8.28875C40.814 8.1375 36.8403 5.21 33.6315 2.47875C32.6865 1.67375 31.314 1.67375 30.369 2.47875C27.1603 5.21 23.1878 8.1375 16.609 8.28875C15.5065 8.31375 14.6103 9.23125 14.6103 10.3337V27.555C14.6103 27.7138 14.6603 27.8675 14.754 27.9963C18.7778 33.5375 23.7528 38.1263 30.4078 42.4388C30.899 42.7563 31.449 42.9162 32.0003 42.9162C32.5515 42.9162 33.1015 42.7575 33.5928 42.4388C40.2478 38.1263 45.2228 33.5375 49.2465 27.9963ZM32.7765 41.1787C32.2903 41.4937 31.709 41.4937 31.2228 41.1787C24.8053 37.0225 19.9978 32.61 16.1103 27.31V10.3337C16.1103 10.04 16.349 9.795 16.6428 9.78875C23.7115 9.62625 27.9365 6.52 31.3403 3.62125C31.7278 3.29125 32.2703 3.29125 32.6578 3.62125C36.0615 6.52 40.2865 9.62625 47.3553 9.78875C47.649 9.795 47.8878 10.04 47.8878 10.3337V27.3113C44.0028 32.6113 39.194 37.0225 32.7765 41.1787ZM42.0865 13.5588C40.2178 13.1413 38.399 12.5012 36.6828 11.6587C35.459 11.0575 34.2678 10.3475 33.0403 9.48625C32.409 9.0425 31.5928 9.0425 30.9615 9.48625C29.734 10.3475 28.5415 11.0587 27.3178 11.6587C25.6015 12.5012 23.784 13.14 21.914 13.5588C21.0803 13.745 20.499 14.4712 20.499 15.325V25.5775C20.499 25.7462 20.5565 25.91 20.6603 26.0425C23.4678 29.5912 26.8328 32.7462 30.9465 35.6862C31.2665 35.915 31.6328 36.0288 31.999 36.0288C32.3653 36.0288 32.7315 35.915 33.0515 35.6862C37.1665 32.7462 40.5315 29.5912 43.3378 26.0425C43.4428 25.91 43.499 25.7462 43.499 25.5775V15.325C43.5015 14.4712 42.919 13.745 42.0865 13.5588ZM42.0015 25.3162C39.3153 28.6712 36.1003 31.6662 32.1803 34.4675C32.0653 34.55 31.934 34.55 31.8203 34.4675C27.9015 31.6675 24.6865 28.6712 21.999 25.3162V15.325C21.999 15.1737 22.094 15.055 22.2415 15.0225C24.2265 14.5788 26.1565 13.9 27.979 13.005C29.2728 12.37 30.5303 11.62 31.8228 10.7137C31.9365 10.635 32.0653 10.635 32.179 10.7137C33.4715 11.62 34.729 12.37 36.0228 13.005C37.8453 13.9 39.7753 14.5787 41.7603 15.0212C41.9078 15.0537 42.0028 15.1725 42.0028 15.3237V25.3162H42.0015ZM37.1515 18.7763C37.444 19.0688 37.444 19.5437 37.1515 19.8375L30.974 26.015C30.8278 26.1612 30.6353 26.235 30.444 26.235C30.2528 26.235 30.0603 26.1612 29.914 26.015L26.8515 22.9525C26.559 22.66 26.559 22.185 26.8515 21.8913C27.144 21.5988 27.619 21.5988 27.9128 21.8913L30.4453 24.4237L36.0928 18.7763C36.3828 18.4838 36.8578 18.4838 37.1515 18.7763ZM60.8728 20.9937H60.139C57.8753 20.9937 56.0328 22.83 56.0328 25.0863V34.3363C54.3453 33.2563 52.069 33.5537 50.7253 35.1162L44.2103 42.6925C43.2853 43.7675 42.8165 45.0325 42.8165 46.4512V51.9113C41.874 51.9563 41.1215 52.735 41.1215 53.6888V56.3338C41.1215 56.9375 41.424 57.47 41.8828 57.7925V61.375C41.8828 61.7887 42.219 62.125 42.6328 62.125C43.0465 62.125 43.3828 61.7887 43.3828 61.375V58.1162H55.054V61.375C55.054 61.7887 55.3903 62.125 55.804 62.125C56.2178 62.125 56.554 61.7887 56.554 61.375V57.7938C57.014 57.4713 57.3153 56.9375 57.3153 56.335V53.69C57.3153 52.7362 56.5615 51.9575 55.6203 51.9125V49.9125C55.6203 49.4112 55.759 48.99 56.059 48.5863L61.0015 41.9263C61.7565 40.9088 62.124 39.7988 62.124 38.5312V22.4125C62.1253 21.4325 61.4965 20.9937 60.8728 20.9937ZM55.8178 53.6888V56.3338C55.8178 56.4863 55.689 56.6162 55.5353 56.6162H42.9053C42.7528 56.6162 42.6228 56.4875 42.6228 56.3338V53.6888C42.6228 53.5363 42.7515 53.4062 42.9053 53.4062H55.5365C55.689 53.4075 55.8178 53.5363 55.8178 53.6888ZM60.6253 38.5312C60.6253 39.4775 60.3628 40.2725 59.799 41.0325L54.8565 47.6925C54.3628 48.3575 54.1228 49.0837 54.1228 49.9125V51.9075H44.319V46.4512C44.319 45.3875 44.6565 44.4775 45.3503 43.6712L51.8653 36.095C52.3153 35.5713 52.944 35.255 53.6365 35.2025C54.329 35.15 54.999 35.37 55.5215 35.82L56.0153 36.245L48.3815 45.1225C48.1115 45.4363 48.1465 45.91 48.4615 46.18C48.7753 46.45 49.249 46.4137 49.519 46.1L57.2065 37.1613C57.4528 36.8738 57.574 36.5075 57.5453 36.13C57.5428 36.1025 57.539 36.0763 57.5353 36.0488V25.0875C57.5353 23.6575 58.704 22.495 60.1415 22.495H60.6253V38.5312ZM21.1828 51.9113V46.4512C21.1828 45.0325 20.714 43.7688 19.789 42.6925L13.274 35.1162C11.9303 33.5537 9.65527 33.2563 7.96652 34.3363V25.0863C7.96652 22.83 6.12402 20.9937 3.86027 20.9937H3.12652C2.50277 20.9937 1.87402 21.4325 1.87402 22.4125V38.5312C1.87402 39.7988 2.24152 40.9088 2.99652 41.9263L7.93902 48.5863C8.23777 48.9888 8.37777 49.41 8.37777 49.9125V51.9113C7.43527 51.9563 6.68277 52.735 6.68277 53.6888V56.3338C6.68277 56.9363 6.98527 57.47 7.44402 57.7925V61.375C7.44402 61.7887 7.78027 62.125 8.19402 62.125C8.60777 62.125 8.94402 61.7887 8.94402 61.375V58.1162H20.6153V61.375C20.6153 61.7887 20.9515 62.125 21.3653 62.125C21.779 62.125 22.1153 61.7887 22.1153 61.375V57.7938C22.5753 57.4713 22.8765 56.9375 22.8765 56.335V53.69C22.8778 52.7362 22.1253 51.9575 21.1828 51.9113ZM4.20152 41.0325C3.63777 40.2725 3.37527 39.4775 3.37527 38.5312V22.4937H3.86027C5.29777 22.4937 6.46652 23.6575 6.46652 25.0863V36.0475C6.46277 36.075 6.45902 36.1012 6.45652 36.1287C6.42777 36.5075 6.54777 36.8737 6.79527 37.16L14.4828 46.0988C14.7528 46.4125 15.2265 46.4487 15.5403 46.1787C15.854 45.9087 15.8903 45.435 15.6203 45.1213L7.98652 36.2438L8.48027 35.8187C9.00402 35.3687 9.67277 35.15 10.3653 35.2012C11.0578 35.2537 11.6865 35.57 12.1365 36.0938L18.6515 43.67C19.3453 44.4762 19.6828 45.3863 19.6828 46.45V51.9062H9.87777V49.9125C9.87777 49.0837 9.63777 48.3575 9.14402 47.6925L4.20152 41.0325ZM8.18277 53.6888C8.18277 53.5363 8.31152 53.4062 8.46527 53.4062H21.0965C21.249 53.4062 21.379 53.535 21.379 53.6888V56.3338C21.379 56.4863 21.2503 56.6162 21.0965 56.6162H8.46527C8.31277 56.6162 8.18277 56.4875 8.18277 56.3338V53.6888Z" fill="#D8A131" stroke="black" stroke-width="0.4" mask="url(#path-1-inside-1_36_7134)"/>
</svg>
