<svg width="32" height="32" viewBox="0 0 32 32" fill="none" xmlns="http://www.w3.org/2000/svg">
<g id="media-icon" clip-path="url(#clip0_46_18586)">
<g id="Vector">
<mask id="path-1-inside-1_46_18586" fill="white">
<path d="M29.3316 0H14.3983C13.6913 0.000846857 13.0135 0.28207 12.5136 0.781984C12.0137 1.2819 11.7324 1.95968 11.7316 2.66667V15.4667C11.7331 16.0566 11.9305 16.6293 12.2927 17.0949C10.9672 17.7858 9.49295 18.1422 7.99827 18.1333H4.26493C3.17034 18.1408 2.12048 18.5687 1.33249 19.3284C0.544504 20.0882 0.0786715 21.1218 0.0313382 22.2154C-0.0159951 23.309 0.358792 24.379 1.07818 25.204C1.79758 26.029 2.80654 26.546 3.8964 26.648L5.63507 30.9947C5.75302 31.292 5.95781 31.547 6.22275 31.7263C6.48768 31.9056 6.80048 32.001 7.1204 32H8.5316C8.79308 32 9.05059 31.936 9.2816 31.8135C9.5126 31.6909 9.71005 31.5137 9.85667 31.2972C10.0033 31.0806 10.0946 30.8315 10.1226 30.5715C10.1507 30.3115 10.1146 30.0487 10.0175 29.8059L8.77533 26.7008C11.0112 26.8827 13.1071 27.8623 14.6809 29.4608C14.808 29.5891 14.9591 29.6911 15.1257 29.7607C15.2923 29.8304 15.471 29.8664 15.6516 29.8667C15.8386 29.8661 16.0237 29.8286 16.1961 29.7563C16.4533 29.65 16.6731 29.4699 16.8278 29.2386C16.9825 29.0073 17.065 28.7353 17.0649 28.4571V25.0133C17.6678 24.8909 18.2097 24.5639 18.599 24.0876C18.9883 23.6113 19.2009 23.0151 19.2009 22.4C19.2009 21.7849 18.9883 21.1887 18.599 20.7124C18.2097 20.2361 17.6678 19.9091 17.0649 19.7867V18.1333H20.7983V21.744C20.7967 21.9734 20.8624 22.1982 20.9872 22.3906C21.1121 22.583 21.2906 22.7346 21.5007 22.8267C21.6539 22.8961 21.82 22.9324 21.9881 22.9333C22.2828 22.9325 22.5665 22.8218 22.7839 22.6229L27.7193 18.1333H29.3316C30.0386 18.1325 30.7164 17.8513 31.2163 17.3513C31.7162 16.8514 31.9974 16.1737 31.9983 15.4667V2.66667C31.9974 1.95968 31.7162 1.2819 31.2163 0.781984C30.7164 0.28207 30.0386 0.000846857 29.3316 0ZM1.06493 22.4C1.06578 21.5516 1.40319 20.7381 2.00313 20.1382C2.60306 19.5383 3.4165 19.2008 4.26493 19.2H7.46493V25.6H4.26493C3.4165 25.5992 2.60306 25.2617 2.00313 24.6618C1.40319 24.0619 1.06578 23.2484 1.06493 22.4ZM9.02547 30.2016C9.05786 30.2824 9.06997 30.37 9.06073 30.4566C9.0515 30.5432 9.02119 30.6262 8.97248 30.6984C8.92376 30.7705 8.8581 30.8297 8.78125 30.8707C8.7044 30.9116 8.61868 30.9331 8.5316 30.9333H7.1204C7.01389 30.9333 6.90982 30.9014 6.82161 30.8417C6.7334 30.782 6.66509 30.6973 6.62547 30.5984L5.05267 26.6667H7.61267L9.02547 30.2016ZM15.9983 28.4571C15.9988 28.5251 15.9787 28.5917 15.9406 28.648C15.9025 28.7044 15.8482 28.7479 15.7849 28.7728C15.7262 28.7993 15.6608 28.807 15.5976 28.7948C15.5343 28.7825 15.4764 28.751 15.4319 28.7045C13.6013 26.8448 11.138 25.7421 8.5316 25.6155V19.1845C11.1386 19.0583 13.6025 17.9555 15.4335 16.0955C15.4781 16.0491 15.536 16.0176 15.5992 16.0054C15.6624 15.9931 15.7278 16.0008 15.7865 16.0272C15.8498 16.0521 15.9041 16.0956 15.9422 16.152C15.9803 16.2083 16.0004 16.2749 15.9999 16.3429L15.9983 28.4571ZM18.1316 22.4C18.1302 22.7297 18.027 23.051 17.8361 23.3198C17.6451 23.5887 17.3758 23.792 17.0649 23.9019V20.8981C17.3758 21.008 17.6451 21.2113 17.8361 21.4802C18.027 21.749 18.1302 22.0703 18.1316 22.4ZM30.9316 15.4667C30.9316 15.891 30.763 16.298 30.463 16.598C30.1629 16.8981 29.7559 17.0667 29.3316 17.0667H27.5129C27.3801 17.0668 27.2521 17.1164 27.154 17.2059L22.0687 21.8325C22.0515 21.8499 22.0293 21.8613 22.0053 21.8653C21.9812 21.8692 21.9566 21.8654 21.9348 21.8544C21.913 21.8457 21.8945 21.8303 21.882 21.8105C21.8695 21.7907 21.8635 21.7674 21.8649 21.744V17.6C21.8649 17.4586 21.8087 17.3229 21.7087 17.2229C21.6087 17.1229 21.473 17.0667 21.3316 17.0667H17.0649V16.3429C17.0657 16.0641 16.9836 15.7913 16.8288 15.5592C16.6741 15.3272 16.4539 15.1465 16.1961 15.04C15.9429 14.9317 15.663 14.9021 15.3928 14.9551C15.1225 15.0081 14.8745 15.1412 14.6809 15.3371C14.2331 15.7833 13.7444 16.1865 13.2212 16.5413C12.9509 16.2486 12.8 15.8652 12.7983 15.4667V2.66667C12.7983 2.24232 12.9668 1.83535 13.2669 1.5353C13.567 1.23524 13.9739 1.06667 14.3983 1.06667H29.3316C29.7559 1.06667 30.1629 1.23524 30.463 1.5353C30.763 1.83535 30.9316 2.24232 30.9316 2.66667V15.4667Z"/>
</mask>
<path d="M29.3316 0H14.3983C13.6913 0.000846857 13.0135 0.28207 12.5136 0.781984C12.0137 1.2819 11.7324 1.95968 11.7316 2.66667V15.4667C11.7331 16.0566 11.9305 16.6293 12.2927 17.0949C10.9672 17.7858 9.49295 18.1422 7.99827 18.1333H4.26493C3.17034 18.1408 2.12048 18.5687 1.33249 19.3284C0.544504 20.0882 0.0786715 21.1218 0.0313382 22.2154C-0.0159951 23.309 0.358792 24.379 1.07818 25.204C1.79758 26.029 2.80654 26.546 3.8964 26.648L5.63507 30.9947C5.75302 31.292 5.95781 31.547 6.22275 31.7263C6.48768 31.9056 6.80048 32.001 7.1204 32H8.5316C8.79308 32 9.05059 31.936 9.2816 31.8135C9.5126 31.6909 9.71005 31.5137 9.85667 31.2972C10.0033 31.0806 10.0946 30.8315 10.1226 30.5715C10.1507 30.3115 10.1146 30.0487 10.0175 29.8059L8.77533 26.7008C11.0112 26.8827 13.1071 27.8623 14.6809 29.4608C14.808 29.5891 14.9591 29.6911 15.1257 29.7607C15.2923 29.8304 15.471 29.8664 15.6516 29.8667C15.8386 29.8661 16.0237 29.8286 16.1961 29.7563C16.4533 29.65 16.6731 29.4699 16.8278 29.2386C16.9825 29.0073 17.065 28.7353 17.0649 28.4571V25.0133C17.6678 24.8909 18.2097 24.5639 18.599 24.0876C18.9883 23.6113 19.2009 23.0151 19.2009 22.4C19.2009 21.7849 18.9883 21.1887 18.599 20.7124C18.2097 20.2361 17.6678 19.9091 17.0649 19.7867V18.1333H20.7983V21.744C20.7967 21.9734 20.8624 22.1982 20.9872 22.3906C21.1121 22.583 21.2906 22.7346 21.5007 22.8267C21.6539 22.8961 21.82 22.9324 21.9881 22.9333C22.2828 22.9325 22.5665 22.8218 22.7839 22.6229L27.7193 18.1333H29.3316C30.0386 18.1325 30.7164 17.8513 31.2163 17.3513C31.7162 16.8514 31.9974 16.1737 31.9983 15.4667V2.66667C31.9974 1.95968 31.7162 1.2819 31.2163 0.781984C30.7164 0.28207 30.0386 0.000846857 29.3316 0ZM1.06493 22.4C1.06578 21.5516 1.40319 20.7381 2.00313 20.1382C2.60306 19.5383 3.4165 19.2008 4.26493 19.2H7.46493V25.6H4.26493C3.4165 25.5992 2.60306 25.2617 2.00313 24.6618C1.40319 24.0619 1.06578 23.2484 1.06493 22.4ZM9.02547 30.2016C9.05786 30.2824 9.06997 30.37 9.06073 30.4566C9.0515 30.5432 9.02119 30.6262 8.97248 30.6984C8.92376 30.7705 8.8581 30.8297 8.78125 30.8707C8.7044 30.9116 8.61868 30.9331 8.5316 30.9333H7.1204C7.01389 30.9333 6.90982 30.9014 6.82161 30.8417C6.7334 30.782 6.66509 30.6973 6.62547 30.5984L5.05267 26.6667H7.61267L9.02547 30.2016ZM15.9983 28.4571C15.9988 28.5251 15.9787 28.5917 15.9406 28.648C15.9025 28.7044 15.8482 28.7479 15.7849 28.7728C15.7262 28.7993 15.6608 28.807 15.5976 28.7948C15.5343 28.7825 15.4764 28.751 15.4319 28.7045C13.6013 26.8448 11.138 25.7421 8.5316 25.6155V19.1845C11.1386 19.0583 13.6025 17.9555 15.4335 16.0955C15.4781 16.0491 15.536 16.0176 15.5992 16.0054C15.6624 15.9931 15.7278 16.0008 15.7865 16.0272C15.8498 16.0521 15.9041 16.0956 15.9422 16.152C15.9803 16.2083 16.0004 16.2749 15.9999 16.3429L15.9983 28.4571ZM18.1316 22.4C18.1302 22.7297 18.027 23.051 17.8361 23.3198C17.6451 23.5887 17.3758 23.792 17.0649 23.9019V20.8981C17.3758 21.008 17.6451 21.2113 17.8361 21.4802C18.027 21.749 18.1302 22.0703 18.1316 22.4ZM30.9316 15.4667C30.9316 15.891 30.763 16.298 30.463 16.598C30.1629 16.8981 29.7559 17.0667 29.3316 17.0667H27.5129C27.3801 17.0668 27.2521 17.1164 27.154 17.2059L22.0687 21.8325C22.0515 21.8499 22.0293 21.8613 22.0053 21.8653C21.9812 21.8692 21.9566 21.8654 21.9348 21.8544C21.913 21.8457 21.8945 21.8303 21.882 21.8105C21.8695 21.7907 21.8635 21.7674 21.8649 21.744V17.6C21.8649 17.4586 21.8087 17.3229 21.7087 17.2229C21.6087 17.1229 21.473 17.0667 21.3316 17.0667H17.0649V16.3429C17.0657 16.0641 16.9836 15.7913 16.8288 15.5592C16.6741 15.3272 16.4539 15.1465 16.1961 15.04C15.9429 14.9317 15.663 14.9021 15.3928 14.9551C15.1225 15.0081 14.8745 15.1412 14.6809 15.3371C14.2331 15.7833 13.7444 16.1865 13.2212 16.5413C12.9509 16.2486 12.8 15.8652 12.7983 15.4667V2.66667C12.7983 2.24232 12.9668 1.83535 13.2669 1.5353C13.567 1.23524 13.9739 1.06667 14.3983 1.06667H29.3316C29.7559 1.06667 30.1629 1.23524 30.463 1.5353C30.763 1.83535 30.9316 2.24232 30.9316 2.66667V15.4667Z" fill="#D8A131" stroke="#1E1E1E" stroke-width="0.2" mask="url(#path-1-inside-1_46_18586)"/>
</g>
<g id="Vector_2">
<mask id="path-2-inside-2_46_18586" fill="white">
<path d="M15.4669 4.80007H22.4003C22.5417 4.80007 22.6774 4.74387 22.7774 4.64386C22.8774 4.54384 22.9336 4.40818 22.9336 4.26673C22.9336 4.12528 22.8774 3.98963 22.7774 3.88961C22.6774 3.78959 22.5417 3.7334 22.4003 3.7334H15.4669C15.3255 3.7334 15.1898 3.78959 15.0898 3.88961C14.9898 3.98963 14.9336 4.12528 14.9336 4.26673C14.9336 4.40818 14.9898 4.54384 15.0898 4.64386C15.1898 4.74387 15.3255 4.80007 15.4669 4.80007Z"/>
</mask>
<path d="M15.4669 4.80007H22.4003C22.5417 4.80007 22.6774 4.74387 22.7774 4.64386C22.8774 4.54384 22.9336 4.40818 22.9336 4.26673C22.9336 4.12528 22.8774 3.98963 22.7774 3.88961C22.6774 3.78959 22.5417 3.7334 22.4003 3.7334H15.4669C15.3255 3.7334 15.1898 3.78959 15.0898 3.88961C14.9898 3.98963 14.9336 4.12528 14.9336 4.26673C14.9336 4.40818 14.9898 4.54384 15.0898 4.64386C15.1898 4.74387 15.3255 4.80007 15.4669 4.80007Z" fill="#D8A131" stroke="#1E1E1E" stroke-width="0.2" mask="url(#path-2-inside-2_46_18586)"/>
</g>
<g id="Vector_3">
<mask id="path-3-inside-3_46_18586" fill="white">
<path d="M28.2669 7.4668H15.4669C15.3255 7.4668 15.1898 7.52299 15.0898 7.62301C14.9898 7.72303 14.9336 7.85868 14.9336 8.00013C14.9336 8.14158 14.9898 8.27723 15.0898 8.37725C15.1898 8.47727 15.3255 8.53346 15.4669 8.53346H28.2669C28.4084 8.53346 28.544 8.47727 28.6441 8.37725C28.7441 8.27723 28.8003 8.14158 28.8003 8.00013C28.8003 7.85868 28.7441 7.72303 28.6441 7.62301C28.544 7.52299 28.4084 7.4668 28.2669 7.4668Z"/>
</mask>
<path d="M28.2669 7.4668H15.4669C15.3255 7.4668 15.1898 7.52299 15.0898 7.62301C14.9898 7.72303 14.9336 7.85868 14.9336 8.00013C14.9336 8.14158 14.9898 8.27723 15.0898 8.37725C15.1898 8.47727 15.3255 8.53346 15.4669 8.53346H28.2669C28.4084 8.53346 28.544 8.47727 28.6441 8.37725C28.7441 8.27723 28.8003 8.14158 28.8003 8.00013C28.8003 7.85868 28.7441 7.72303 28.6441 7.62301C28.544 7.52299 28.4084 7.4668 28.2669 7.4668Z" fill="#D8A131" stroke="#1E1E1E" stroke-width="0.2" mask="url(#path-3-inside-3_46_18586)"/>
</g>
<g id="Vector_4">
<mask id="path-4-inside-4_46_18586" fill="white">
<path d="M28.2659 10.1338H19.7326C19.5911 10.1338 19.4554 10.19 19.3554 10.29C19.2554 10.39 19.1992 10.5257 19.1992 10.6671C19.1992 10.8086 19.2554 10.9442 19.3554 11.0442C19.4554 11.1443 19.5911 11.2005 19.7326 11.2005H28.2659C28.4073 11.2005 28.543 11.1443 28.643 11.0442C28.743 10.9442 28.7992 10.8086 28.7992 10.6671C28.7992 10.5257 28.743 10.39 28.643 10.29C28.543 10.19 28.4073 10.1338 28.2659 10.1338Z"/>
</mask>
<path d="M28.2659 10.1338H19.7326C19.5911 10.1338 19.4554 10.19 19.3554 10.29C19.2554 10.39 19.1992 10.5257 19.1992 10.6671C19.1992 10.8086 19.2554 10.9442 19.3554 11.0442C19.4554 11.1443 19.5911 11.2005 19.7326 11.2005H28.2659C28.4073 11.2005 28.543 11.1443 28.643 11.0442C28.743 10.9442 28.7992 10.8086 28.7992 10.6671C28.7992 10.5257 28.743 10.39 28.643 10.29C28.543 10.19 28.4073 10.1338 28.2659 10.1338Z" fill="#D8A131" stroke="#1E1E1E" stroke-width="0.2" mask="url(#path-4-inside-4_46_18586)"/>
</g>
<g id="Vector_5">
<mask id="path-5-inside-5_46_18586" fill="white">
<path d="M15.4669 11.2005H17.6003C17.7417 11.2005 17.8774 11.1443 17.9774 11.0442C18.0774 10.9442 18.1336 10.8086 18.1336 10.6671C18.1336 10.5257 18.0774 10.39 17.9774 10.29C17.8774 10.19 17.7417 10.1338 17.6003 10.1338H15.4669C15.3255 10.1338 15.1898 10.19 15.0898 10.29C14.9898 10.39 14.9336 10.5257 14.9336 10.6671C14.9336 10.8086 14.9898 10.9442 15.0898 11.0442C15.1898 11.1443 15.3255 11.2005 15.4669 11.2005Z"/>
</mask>
<path d="M15.4669 11.2005H17.6003C17.7417 11.2005 17.8774 11.1443 17.9774 11.0442C18.0774 10.9442 18.1336 10.8086 18.1336 10.6671C18.1336 10.5257 18.0774 10.39 17.9774 10.29C17.8774 10.19 17.7417 10.1338 17.6003 10.1338H15.4669C15.3255 10.1338 15.1898 10.19 15.0898 10.29C14.9898 10.39 14.9336 10.5257 14.9336 10.6671C14.9336 10.8086 14.9898 10.9442 15.0898 11.0442C15.1898 11.1443 15.3255 11.2005 15.4669 11.2005Z" fill="#D8A131" stroke="#1E1E1E" stroke-width="0.2" mask="url(#path-5-inside-5_46_18586)"/>
</g>
<g id="Vector_6">
<mask id="path-6-inside-6_46_18586" fill="white">
<path d="M26.1336 12.7998H15.4669C15.3255 12.7998 15.1898 12.856 15.0898 12.956C14.9898 13.056 14.9336 13.1917 14.9336 13.3331C14.9336 13.4746 14.9898 13.6102 15.0898 13.7103C15.1898 13.8103 15.3255 13.8665 15.4669 13.8665H26.1336C26.275 13.8665 26.4107 13.8103 26.5107 13.7103C26.6107 13.6102 26.6669 13.4746 26.6669 13.3331C26.6669 13.1917 26.6107 13.056 26.5107 12.956C26.4107 12.856 26.275 12.7998 26.1336 12.7998Z"/>
</mask>
<path d="M26.1336 12.7998H15.4669C15.3255 12.7998 15.1898 12.856 15.0898 12.956C14.9898 13.056 14.9336 13.1917 14.9336 13.3331C14.9336 13.4746 14.9898 13.6102 15.0898 13.7103C15.1898 13.8103 15.3255 13.8665 15.4669 13.8665H26.1336C26.275 13.8665 26.4107 13.8103 26.5107 13.7103C26.6107 13.6102 26.6669 13.4746 26.6669 13.3331C26.6669 13.1917 26.6107 13.056 26.5107 12.956C26.4107 12.856 26.275 12.7998 26.1336 12.7998Z" fill="#D8A131" stroke="#1E1E1E" stroke-width="0.2" mask="url(#path-6-inside-6_46_18586)"/>
</g>
</g>
<defs>
<clipPath id="clip0_46_18586">
<rect width="32" height="32" fill="white"/>
</clipPath>
</defs>
</svg>
