<svg width="64" height="64" viewBox="0 0 64 64" fill="none" xmlns="http://www.w3.org/2000/svg">
<mask id="path-1-inside-1_36_7066" fill="white">
<path d="M32 15C30.8 15 29.734 15.542 29 16.382L23.909 13.836C23.967 13.566 24 13.287 24 13C24 10.794 22.206 9 20 9C17.794 9 16 10.794 16 13C16 13.898 16.308 14.719 16.81 15.387L9.63398 24.357C9.13398 24.132 8.58398 24 8.00098 24C5.79498 24 4.00098 25.794 4.00098 28C4.00098 30.206 5.79498 32 8.00098 32C10.207 32 12.001 30.206 12.001 28C12.001 27.102 11.693 26.281 11.191 25.613L18.367 16.643C18.867 16.868 19.418 17 20.001 17C21.201 17 22.267 16.458 23.001 15.618L28.092 18.164C28.034 18.434 28.001 18.713 28.001 19C28.001 21.206 29.795 23 32.001 23C34.207 23 36.001 21.206 36.001 19C36.001 18.15 35.73 17.365 35.276 16.716L42.25 8.579C42.781 8.84 43.37 9 44 9C45.513 9 46.816 8.146 47.495 6.905L52.003 8.032C52.02 10.223 53.805 12 56 12C58.195 12 60 10.206 60 8C60 5.794 58.206 4 56 4C54.488 4 53.184 4.854 52.505 6.095L47.997 4.968C47.979 2.777 46.195 1 44 1C41.805 1 40 2.794 40 5C40 5.85 40.271 6.636 40.725 7.284L33.751 15.421C33.22 15.16 32.631 15 32 15ZM7.99998 30C6.89698 30 5.99998 29.103 5.99998 28C5.99998 26.897 6.89698 26 7.99998 26C9.10298 26 9.99998 26.897 9.99998 28C9.99998 29.103 9.10298 30 7.99998 30ZM20 15C18.897 15 18 14.103 18 13C18 11.897 18.897 11 20 11C21.103 11 22 11.897 22 13C22 14.103 21.103 15 20 15ZM32 21C30.897 21 30 20.103 30 19C30 17.897 30.897 17 32 17C33.103 17 34 17.897 34 19C34 20.103 33.103 21 32 21ZM56 6C57.103 6 58 6.897 58 8C58 9.103 57.103 10 56 10C54.897 10 54 9.103 54 8C54 6.897 54.897 6 56 6ZM44 3C45.103 3 46 3.897 46 5C46 6.103 45.103 7 44 7C42.897 7 42 6.103 42 5C42 3.897 42.897 3 44 3Z"></path>
</mask>
<path d="M32 15C30.8 15 29.734 15.542 29 16.382L23.909 13.836C23.967 13.566 24 13.287 24 13C24 10.794 22.206 9 20 9C17.794 9 16 10.794 16 13C16 13.898 16.308 14.719 16.81 15.387L9.63398 24.357C9.13398 24.132 8.58398 24 8.00098 24C5.79498 24 4.00098 25.794 4.00098 28C4.00098 30.206 5.79498 32 8.00098 32C10.207 32 12.001 30.206 12.001 28C12.001 27.102 11.693 26.281 11.191 25.613L18.367 16.643C18.867 16.868 19.418 17 20.001 17C21.201 17 22.267 16.458 23.001 15.618L28.092 18.164C28.034 18.434 28.001 18.713 28.001 19C28.001 21.206 29.795 23 32.001 23C34.207 23 36.001 21.206 36.001 19C36.001 18.15 35.73 17.365 35.276 16.716L42.25 8.579C42.781 8.84 43.37 9 44 9C45.513 9 46.816 8.146 47.495 6.905L52.003 8.032C52.02 10.223 53.805 12 56 12C58.195 12 60 10.206 60 8C60 5.794 58.206 4 56 4C54.488 4 53.184 4.854 52.505 6.095L47.997 4.968C47.979 2.777 46.195 1 44 1C41.805 1 40 2.794 40 5C40 5.85 40.271 6.636 40.725 7.284L33.751 15.421C33.22 15.16 32.631 15 32 15ZM7.99998 30C6.89698 30 5.99998 29.103 5.99998 28C5.99998 26.897 6.89698 26 7.99998 26C9.10298 26 9.99998 26.897 9.99998 28C9.99998 29.103 9.10298 30 7.99998 30ZM20 15C18.897 15 18 14.103 18 13C18 11.897 18.897 11 20 11C21.103 11 22 11.897 22 13C22 14.103 21.103 15 20 15ZM32 21C30.897 21 30 20.103 30 19C30 17.897 30.897 17 32 17C33.103 17 34 17.897 34 19C34 20.103 33.103 21 32 21ZM56 6C57.103 6 58 6.897 58 8C58 9.103 57.103 10 56 10C54.897 10 54 9.103 54 8C54 6.897 54.897 6 56 6ZM44 3C45.103 3 46 3.897 46 5C46 6.103 45.103 7 44 7C42.897 7 42 6.103 42 5C42 3.897 42.897 3 44 3Z" fill="#D8A131" stroke="black" stroke-width="0.8" mask="url(#path-1-inside-1_36_7066)" transform-origin="50% 50%">
    <!-- <animate attributeName="fill"
            values="transparent;#D8A131;transparent"
            keyTimes="0;0.5;1"
            dur="3s"
            repeatCount="indefinite"
            calcMode="spline"
            keySplines="0.42 0 0.58 1;0.42 0 0.58 1" /> -->
</path>
<mask id="path-2-inside-2_36_7066" fill="white">
<path d="M24 50C29.514 50 34 45.514 34 40C34 34.486 29.514 30 24 30C18.486 30 14 34.486 14 40C14 45.514 18.486 50 24 50ZM24 48C21.047 48 18.468 46.387 17.082 44H30.917C29.531 46.387 26.954 48 24 48ZM32 40C32 40.692 31.903 41.359 31.737 42H30V34.726C31.241 36.136 32 37.979 32 40ZM28 33.082V42H20V33.082C21.178 32.398 22.542 32 24 32C25.458 32 26.822 32.398 28 33.082ZM18 34.726V42H16.263C16.097 41.359 16 40.692 16 40C16 37.979 16.759 36.136 18 34.726Z"/>
</mask>
<path d="M24 50C29.514 50 34 45.514 34 40C34 34.486 29.514 30 24 30C18.486 30 14 34.486 14 40C14 45.514 18.486 50 24 50ZM24 48C21.047 48 18.468 46.387 17.082 44H30.917C29.531 46.387 26.954 48 24 48ZM32 40C32 40.692 31.903 41.359 31.737 42H30V34.726C31.241 36.136 32 37.979 32 40ZM28 33.082V42H20V33.082C21.178 32.398 22.542 32 24 32C25.458 32 26.822 32.398 28 33.082ZM18 34.726V42H16.263C16.097 41.359 16 40.692 16 40C16 37.979 16.759 36.136 18 34.726Z" fill="#D8A131" stroke="black" stroke-width="0.8" mask="url(#path-2-inside-2_36_7066)"/>
<mask id="path-3-inside-3_36_7066" fill="white">
<path d="M5.257 63C6.683 63 8.007 62.292 8.799 61.104L13.321 54.321C13.543 54.387 13.77 54.431 14 54.431C14.606 54.431 15.213 54.201 15.674 53.739L17.191 52.222C19.208 53.35 21.528 54 23.999 54C30.328 54 35.683 49.775 37.409 44H61.999V42H60.999V19C60.999 18.448 60.551 18 59.999 18H51.999C51.447 18 50.999 18.448 50.999 19V42H48.999V29H46.999V42H40.999V17H46.999V26H48.999V16C48.999 15.448 48.551 15 47.999 15H39.999C39.447 15 38.999 15.448 38.999 16V42H37.839C37.933 41.345 37.999 40.681 37.999 40C37.999 34.043 34.253 28.958 28.999 26.939V23C28.999 22.448 28.551 22 27.999 22H19.999C19.447 22 18.999 22.448 18.999 23V26.939C15.64 28.229 12.909 30.773 11.369 34H4C3.448 34 3 34.448 3 35V42H2V44H10.59C10.885 44.986 11.285 45.926 11.778 46.808L10.255 48.331C9.619 48.967 9.433 49.875 9.676 50.681L2.896 55.201C1.709 55.993 1 57.317 1 58.743C1 61.09 2.91 63 5.257 63ZM53 20H59V42H53V20ZM21 24H27V26.332C26.032 26.12 25.03 26 24 26C22.97 26 21.968 26.12 21 26.332V24ZM24 28C30.617 28 36 33.383 36 40C36 46.617 30.617 52 24 52C17.383 52 12 46.617 12 40C12 33.383 17.383 28 24 28ZM5 42V36H10.59C10.211 37.269 10 38.61 10 40C10 40.681 10.065 41.345 10.16 42H5ZM11.669 49.745L12.907 48.507C13.654 49.478 14.522 50.346 15.493 51.093L14.26 52.326C14.072 52.514 13.927 52.514 13.739 52.326L11.668 50.255C11.576 50.163 11.563 50.056 11.563 50C11.563 49.944 11.578 49.837 11.669 49.745ZM4.005 56.865L10.873 52.287L11.714 53.128L7.136 59.996C6.717 60.625 6.014 61.001 5.258 61.001C4.013 61.001 3.001 59.989 3.001 58.744C3.001 57.988 3.376 57.286 4.006 56.866L4.005 56.865Z"/>
</mask>
<path d="M5.257 63C6.683 63 8.007 62.292 8.799 61.104L13.321 54.321C13.543 54.387 13.77 54.431 14 54.431C14.606 54.431 15.213 54.201 15.674 53.739L17.191 52.222C19.208 53.35 21.528 54 23.999 54C30.328 54 35.683 49.775 37.409 44H61.999V42H60.999V19C60.999 18.448 60.551 18 59.999 18H51.999C51.447 18 50.999 18.448 50.999 19V42H48.999V29H46.999V42H40.999V17H46.999V26H48.999V16C48.999 15.448 48.551 15 47.999 15H39.999C39.447 15 38.999 15.448 38.999 16V42H37.839C37.933 41.345 37.999 40.681 37.999 40C37.999 34.043 34.253 28.958 28.999 26.939V23C28.999 22.448 28.551 22 27.999 22H19.999C19.447 22 18.999 22.448 18.999 23V26.939C15.64 28.229 12.909 30.773 11.369 34H4C3.448 34 3 34.448 3 35V42H2V44H10.59C10.885 44.986 11.285 45.926 11.778 46.808L10.255 48.331C9.619 48.967 9.433 49.875 9.676 50.681L2.896 55.201C1.709 55.993 1 57.317 1 58.743C1 61.09 2.91 63 5.257 63ZM53 20H59V42H53V20ZM21 24H27V26.332C26.032 26.12 25.03 26 24 26C22.97 26 21.968 26.12 21 26.332V24ZM24 28C30.617 28 36 33.383 36 40C36 46.617 30.617 52 24 52C17.383 52 12 46.617 12 40C12 33.383 17.383 28 24 28ZM5 42V36H10.59C10.211 37.269 10 38.61 10 40C10 40.681 10.065 41.345 10.16 42H5ZM11.669 49.745L12.907 48.507C13.654 49.478 14.522 50.346 15.493 51.093L14.26 52.326C14.072 52.514 13.927 52.514 13.739 52.326L11.668 50.255C11.576 50.163 11.563 50.056 11.563 50C11.563 49.944 11.578 49.837 11.669 49.745ZM4.005 56.865L10.873 52.287L11.714 53.128L7.136 59.996C6.717 60.625 6.014 61.001 5.258 61.001C4.013 61.001 3.001 59.989 3.001 58.744C3.001 57.988 3.376 57.286 4.006 56.866L4.005 56.865Z" fill="#D8A131" stroke="black" stroke-width="0.8" mask="url(#path-3-inside-3_36_7066)" transform-origin="">
    
</path>
</svg>
