<svg width="28" height="28" viewBox="0 0 28 28" fill="none" xmlns="http://www.w3.org/2000/svg">
<path d="M15.3881 14.5129L15.388 14.513L11.013 18.888C10.9456 18.9554 10.8657 19.0088 10.7776 19.0453C10.6896 19.0817 10.5953 19.1005 10.5 19.1005C10.4047 19.1005 10.3104 19.0817 10.2224 19.0453C10.1343 19.0088 10.0544 18.9554 9.987 18.888C9.91964 18.8206 9.8662 18.7407 9.82974 18.6526C9.79328 18.5646 9.77451 18.4703 9.77451 18.375C9.77451 18.2797 9.79328 18.1854 9.82974 18.0974C9.86619 18.0094 9.91963 17.9294 9.98698 17.862C9.98699 17.862 9.987 17.862 9.987 17.862L12.869 14.9811L13.1252 14.725H12.763H2.625C2.43272 14.725 2.24831 14.6486 2.11235 14.5127C1.97638 14.3767 1.9 14.1923 1.9 14C1.9 13.8077 1.97638 13.6233 2.11235 13.4873C2.24831 13.3514 2.43272 13.275 2.625 13.275H12.763H13.1252L12.869 13.0189L9.987 10.138C9.987 10.138 9.98699 10.138 9.98698 10.138C9.85094 10.0019 9.77451 9.8174 9.77451 9.625C9.77451 9.43259 9.85095 9.24806 9.987 9.112C10.1231 8.97595 10.3076 8.89951 10.5 8.89951C10.6924 8.89951 10.8769 8.97595 11.013 9.112L15.388 13.487L15.3881 13.4871C15.4555 13.5544 15.5089 13.6344 15.5454 13.7224C15.5819 13.8104 15.6007 13.9047 15.6007 14C15.6007 14.0953 15.5819 14.1896 15.5454 14.2776C15.5089 14.3656 15.4555 14.4456 15.3881 14.5129ZM21.15 5.25V5.1H21H14.875C14.6827 5.1 14.4983 5.02362 14.3623 4.88765C14.2264 4.75169 14.15 4.56728 14.15 4.375C14.15 4.18272 14.2264 3.99831 14.3623 3.86235C14.4983 3.72638 14.6827 3.65 14.875 3.65H21.875C22.0673 3.65 22.2517 3.72638 22.3877 3.86235C22.5236 3.99831 22.6 4.18272 22.6 4.375V23.625C22.6 23.8173 22.5236 24.0017 22.3877 24.1377C22.2517 24.2736 22.0673 24.35 21.875 24.35H14.875C14.6827 24.35 14.4983 24.2736 14.3623 24.1377C14.2264 24.0017 14.15 23.8173 14.15 23.625C14.15 23.4327 14.2264 23.2483 14.3623 23.1123C14.4983 22.9764 14.6827 22.9 14.875 22.9H21H21.15V22.75V5.25Z" fill="#D8A131" stroke="black" stroke-width="0.3"/>
</svg>
