<svg width="64" height="64" viewBox="0 0 64 64" fill="none" xmlns="http://www.w3.org/2000/svg">
<g clip-path="url(#clip0_36_7095)">
<mask id="path-1-inside-1_36_7095" fill="white">
<path d="M61.2415 35.0526C60.7881 34.2477 60.0512 33.6404 59.1743 33.3494C58.2975 33.0583 57.3437 33.1043 56.4989 33.4784L43.0174 38.7778C42.9818 38.7076 42.9447 38.638 42.9049 38.5694C42.6309 38.0937 42.2623 37.6792 41.822 37.3513C41.3816 37.0235 40.8788 36.7893 40.3445 36.6631L40.2615 36.6429L23.9524 35.8901C23.319 35.8595 22.6982 36.0744 22.2193 36.4901L13.9514 43.6409L11.8635 41.0631C11.6041 40.7444 11.2294 40.5408 10.8209 40.4963C10.4123 40.4519 10.0026 40.5702 9.68067 40.8256L2.60167 46.4668C2.50994 46.5382 2.43329 46.627 2.37616 46.7283C2.31903 46.8295 2.28255 46.941 2.26883 47.0565C2.25512 47.1719 2.26444 47.2889 2.29626 47.4007C2.32808 47.5125 2.38177 47.6168 2.45421 47.7077C2.52665 47.7986 2.61641 47.8743 2.71829 47.9302C2.82016 47.9862 2.93213 48.0214 3.0477 48.0338C3.16327 48.0461 3.28015 48.0355 3.39157 48.0024C3.50299 47.9693 3.60674 47.9144 3.69679 47.8409L10.6218 42.3219L22.4485 56.9245L15.5345 62.4349C15.4429 62.5063 15.3664 62.5952 15.3094 62.6964C15.2524 62.7976 15.216 62.9091 15.2023 63.0244C15.1886 63.1398 15.198 63.2567 15.2298 63.3684C15.2616 63.4801 15.3153 63.5844 15.3877 63.6753C15.4601 63.7661 15.5497 63.8417 15.6515 63.8977C15.7533 63.9537 15.8652 63.9889 15.9807 64.0013C16.0962 64.0138 16.213 64.0032 16.3244 63.9702C16.4357 63.9372 16.5395 63.8825 16.6295 63.8091L23.7003 58.1741C23.8612 58.0459 23.9951 57.8871 24.0943 57.7069C24.1935 57.5267 24.2561 57.3286 24.2784 57.1241C24.3006 56.9195 24.2822 56.7126 24.2241 56.5153C24.166 56.3179 24.0694 56.134 23.9399 55.9741L22.2574 53.8966L25.196 51.9441C25.3517 51.8409 25.5391 51.7966 25.7245 51.8191L36.7465 53.155C37.3013 53.2212 37.8625 53.1038 38.3442 52.8206L59.7672 40.177C60.2044 39.9414 60.5902 39.6208 60.9019 39.2341C61.2135 38.8474 61.4448 38.4023 61.5822 37.9249C61.7195 37.4476 61.7601 36.9477 61.7016 36.4544C61.6431 35.9612 61.4867 35.4846 61.2415 35.0526ZM59.8915 37.4443C59.8188 37.6978 59.6955 37.934 59.5292 38.1386C59.3628 38.3433 59.1568 38.5122 58.9235 38.6353L58.9063 38.6444L37.4508 51.3069C37.3021 51.3943 37.1289 51.4306 36.9577 51.4101L25.9357 50.0741C25.3347 50.0016 24.7275 50.1456 24.2232 50.4804L21.1462 52.5248L15.0574 45.007L23.3684 37.8195C23.5075 37.6994 23.6873 37.6371 23.8709 37.6455L40.0052 38.3901C40.5545 38.5409 41.0284 38.8902 41.3349 39.3703C41.6415 39.8505 41.759 40.4273 41.6646 40.9891C41.5703 41.5509 41.2708 42.0577 40.8242 42.4113C40.3776 42.7649 39.8156 42.9402 39.2472 42.9033L30.9842 42.4756C30.7522 42.4648 30.5254 42.5463 30.3533 42.7023C30.1812 42.8582 30.0778 43.076 30.0658 43.3079C30.0538 43.5398 30.1341 43.7671 30.2892 43.9399C30.4442 44.1128 30.6614 44.2173 30.8933 44.2305L39.1484 44.658C39.7106 44.6916 40.2736 44.608 40.8017 44.4126C41.3298 44.2171 41.8116 43.9141 42.2165 43.5226C42.6214 43.1312 42.9405 42.6599 43.1537 42.1387C43.3668 41.6175 43.4694 41.0576 43.4548 40.4946L57.1589 35.1071L57.195 35.092C57.5386 34.9389 57.9188 34.8873 58.2908 34.9431C58.6627 34.999 59.011 35.16 59.2944 35.4073C59.5779 35.6545 59.7847 35.9777 59.8906 36.3386C59.9965 36.6995 59.9969 37.0832 59.8919 37.4444L59.8915 37.4443Z"/>
</mask>
<path d="M61.2415 35.0526C60.7881 34.2477 60.0512 33.6404 59.1743 33.3494C58.2975 33.0583 57.3437 33.1043 56.4989 33.4784L43.0174 38.7778C42.9818 38.7076 42.9447 38.638 42.9049 38.5694C42.6309 38.0937 42.2623 37.6792 41.822 37.3513C41.3816 37.0235 40.8788 36.7893 40.3445 36.6631L40.2615 36.6429L23.9524 35.8901C23.319 35.8595 22.6982 36.0744 22.2193 36.4901L13.9514 43.6409L11.8635 41.0631C11.6041 40.7444 11.2294 40.5408 10.8209 40.4963C10.4123 40.4519 10.0026 40.5702 9.68067 40.8256L2.60167 46.4668C2.50994 46.5382 2.43329 46.627 2.37616 46.7283C2.31903 46.8295 2.28255 46.941 2.26883 47.0565C2.25512 47.1719 2.26444 47.2889 2.29626 47.4007C2.32808 47.5125 2.38177 47.6168 2.45421 47.7077C2.52665 47.7986 2.61641 47.8743 2.71829 47.9302C2.82016 47.9862 2.93213 48.0214 3.0477 48.0338C3.16327 48.0461 3.28015 48.0355 3.39157 48.0024C3.50299 47.9693 3.60674 47.9144 3.69679 47.8409L10.6218 42.3219L22.4485 56.9245L15.5345 62.4349C15.4429 62.5063 15.3664 62.5952 15.3094 62.6964C15.2524 62.7976 15.216 62.9091 15.2023 63.0244C15.1886 63.1398 15.198 63.2567 15.2298 63.3684C15.2616 63.4801 15.3153 63.5844 15.3877 63.6753C15.4601 63.7661 15.5497 63.8417 15.6515 63.8977C15.7533 63.9537 15.8652 63.9889 15.9807 64.0013C16.0962 64.0138 16.213 64.0032 16.3244 63.9702C16.4357 63.9372 16.5395 63.8825 16.6295 63.8091L23.7003 58.1741C23.8612 58.0459 23.9951 57.8871 24.0943 57.7069C24.1935 57.5267 24.2561 57.3286 24.2784 57.1241C24.3006 56.9195 24.2822 56.7126 24.2241 56.5153C24.166 56.3179 24.0694 56.134 23.9399 55.9741L22.2574 53.8966L25.196 51.9441C25.3517 51.8409 25.5391 51.7966 25.7245 51.8191L36.7465 53.155C37.3013 53.2212 37.8625 53.1038 38.3442 52.8206L59.7672 40.177C60.2044 39.9414 60.5902 39.6208 60.9019 39.2341C61.2135 38.8474 61.4448 38.4023 61.5822 37.9249C61.7195 37.4476 61.7601 36.9477 61.7016 36.4544C61.6431 35.9612 61.4867 35.4846 61.2415 35.0526ZM59.8915 37.4443C59.8188 37.6978 59.6955 37.934 59.5292 38.1386C59.3628 38.3433 59.1568 38.5122 58.9235 38.6353L58.9063 38.6444L37.4508 51.3069C37.3021 51.3943 37.1289 51.4306 36.9577 51.4101L25.9357 50.0741C25.3347 50.0016 24.7275 50.1456 24.2232 50.4804L21.1462 52.5248L15.0574 45.007L23.3684 37.8195C23.5075 37.6994 23.6873 37.6371 23.8709 37.6455L40.0052 38.3901C40.5545 38.5409 41.0284 38.8902 41.3349 39.3703C41.6415 39.8505 41.759 40.4273 41.6646 40.9891C41.5703 41.5509 41.2708 42.0577 40.8242 42.4113C40.3776 42.7649 39.8156 42.9402 39.2472 42.9033L30.9842 42.4756C30.7522 42.4648 30.5254 42.5463 30.3533 42.7023C30.1812 42.8582 30.0778 43.076 30.0658 43.3079C30.0538 43.5398 30.1341 43.7671 30.2892 43.9399C30.4442 44.1128 30.6614 44.2173 30.8933 44.2305L39.1484 44.658C39.7106 44.6916 40.2736 44.608 40.8017 44.4126C41.3298 44.2171 41.8116 43.9141 42.2165 43.5226C42.6214 43.1312 42.9405 42.6599 43.1537 42.1387C43.3668 41.6175 43.4694 41.0576 43.4548 40.4946L57.1589 35.1071L57.195 35.092C57.5386 34.9389 57.9188 34.8873 58.2908 34.9431C58.6627 34.999 59.011 35.16 59.2944 35.4073C59.5779 35.6545 59.7847 35.9777 59.8906 36.3386C59.9965 36.6995 59.9969 37.0832 59.8919 37.4444L59.8915 37.4443Z" fill="#D8A131" stroke="black" stroke-width="0.6" mask="url(#path-1-inside-1_36_7095)">

</path>
<mask id="path-2-inside-2_36_7095" fill="white">
<path d="M20.8477 31.2938H26.6727C26.9463 31.2935 27.2087 31.1847 27.4022 30.9911C27.5957 30.7976 27.7046 30.5353 27.7049 30.2616V24.0907C27.7046 23.8171 27.5957 23.5547 27.4022 23.3612C27.2087 23.1677 26.9463 23.0589 26.6727 23.0586H20.8477C20.574 23.0589 20.3116 23.1677 20.1181 23.3612C19.9246 23.5547 19.8157 23.8171 19.8154 24.0907V30.2616C19.8157 30.5353 19.9246 30.7977 20.1181 30.9912C20.3116 31.1847 20.574 31.2935 20.8477 31.2938ZM21.5727 24.8157H25.9477V29.5366H21.5727V24.8157Z"/>
</mask>
<path d="M20.8477 31.2938H26.6727C26.9463 31.2935 27.2087 31.1847 27.4022 30.9911C27.5957 30.7976 27.7046 30.5353 27.7049 30.2616V24.0907C27.7046 23.8171 27.5957 23.5547 27.4022 23.3612C27.2087 23.1677 26.9463 23.0589 26.6727 23.0586H20.8477C20.574 23.0589 20.3116 23.1677 20.1181 23.3612C19.9246 23.5547 19.8157 23.8171 19.8154 24.0907V30.2616C19.8157 30.5353 19.9246 30.7977 20.1181 30.9912C20.3116 31.1847 20.574 31.2935 20.8477 31.2938ZM21.5727 24.8157H25.9477V29.5366H21.5727V24.8157Z" fill="#D8A131" stroke="black" stroke-width="0.6" mask="url(#path-2-inside-2_36_7095)">
<!-- <animate attributeName="fill"
         values="transparent;#D8A131;transparent"
         keyTimes="0;0.5;1"
         dur="3s"
         repeatCount="indefinite"
         calcMode="spline"
         keySplines="0.42 0 0.58 1;0.42 0 0.58 1" />
 --></path>
<mask id="path-3-inside-3_36_7095" fill="white">
<path d="M32.0596 31.2942H37.8846C38.1583 31.2939 38.4206 31.185 38.6141 30.9915C38.8077 30.798 38.9165 30.5357 38.9168 30.262V17.9912C38.9165 17.7176 38.8077 17.4552 38.6142 17.2617C38.4207 17.0681 38.1583 16.9593 37.8846 16.959H32.0596C31.7859 16.9593 31.5235 17.0681 31.33 17.2617C31.1365 17.4552 31.0276 17.7176 31.0273 17.9912V30.262C31.0277 30.5357 31.1365 30.798 31.33 30.9915C31.5236 31.185 31.7859 31.2939 32.0596 31.2942ZM32.7846 18.7162H37.1596V29.537H32.7846V18.7162Z"/>
</mask>
<path d="M32.0596 31.2942H37.8846C38.1583 31.2939 38.4206 31.185 38.6141 30.9915C38.8077 30.798 38.9165 30.5357 38.9168 30.262V17.9912C38.9165 17.7176 38.8077 17.4552 38.6142 17.2617C38.4207 17.0681 38.1583 16.9593 37.8846 16.959H32.0596C31.7859 16.9593 31.5235 17.0681 31.33 17.2617C31.1365 17.4552 31.0276 17.7176 31.0273 17.9912V30.262C31.0277 30.5357 31.1365 30.798 31.33 30.9915C31.5236 31.185 31.7859 31.2939 32.0596 31.2942ZM32.7846 18.7162H37.1596V29.537H32.7846V18.7162Z" fill="#D8A131" stroke="black" stroke-width="0.6" mask="url(#path-3-inside-3_36_7095)">
<!-- <animate attributeName="fill"
         values="transparent;#D8A131;transparent"
         keyTimes="0;0.5;1"
         dur="3s"
         repeatCount="indefinite"
         calcMode="spline"
         begin=".5s"
         keySplines="0.42 0 0.58 1;0.42 0 0.58 1" /> -->
         </path>
<mask id="path-4-inside-4_36_7095" fill="white">
<path d="M40.8916 9.27975H42.4576V30.2612C42.4579 30.5349 42.5667 30.7973 42.7602 30.9908C42.9537 31.1843 43.2161 31.2932 43.4897 31.2935H49.3147C49.5884 31.2932 49.8508 31.1843 50.0443 30.9908C50.2378 30.7973 50.3467 30.5349 50.347 30.2612V9.27975H51.9131C52.1056 9.27978 52.2942 9.22599 52.4577 9.12447C52.6212 9.02294 52.7531 8.87772 52.8384 8.70521C52.9237 8.5327 52.9591 8.33977 52.9406 8.1482C52.922 7.95664 52.8503 7.77407 52.7335 7.62112L47.2224 0.4055C47.1258 0.27972 47.0016 0.177764 46.8594 0.107468C46.7172 0.0371722 46.5608 0.000407696 46.4022 0C46.2437 0.000475341 46.0873 0.0372967 45.9452 0.107635C45.803 0.177974 45.6789 0.279957 45.5824 0.40575L40.0714 7.621C39.9545 7.77394 39.8828 7.9565 39.8642 8.14808C39.8456 8.33965 39.881 8.5326 39.9663 8.70513C40.0516 8.87766 40.1835 9.02289 40.347 9.12443C40.5105 9.22597 40.6991 9.27977 40.8916 9.27975ZM46.4022 2.22662L50.4469 7.52262H48.5895V29.5362H44.2145V7.52262H42.3576L46.4022 2.22662Z"/>
</mask>
<path d="M40.8916 9.27975H42.4576V30.2612C42.4579 30.5349 42.5667 30.7973 42.7602 30.9908C42.9537 31.1843 43.2161 31.2932 43.4897 31.2935H49.3147C49.5884 31.2932 49.8508 31.1843 50.0443 30.9908C50.2378 30.7973 50.3467 30.5349 50.347 30.2612V9.27975H51.9131C52.1056 9.27978 52.2942 9.22599 52.4577 9.12447C52.6212 9.02294 52.7531 8.87772 52.8384 8.70521C52.9237 8.5327 52.9591 8.33977 52.9406 8.1482C52.922 7.95664 52.8503 7.77407 52.7335 7.62112L47.2224 0.4055C47.1258 0.27972 47.0016 0.177764 46.8594 0.107468C46.7172 0.0371722 46.5608 0.000407696 46.4022 0C46.2437 0.000475341 46.0873 0.0372967 45.9452 0.107635C45.803 0.177974 45.6789 0.279957 45.5824 0.40575L40.0714 7.621C39.9545 7.77394 39.8828 7.9565 39.8642 8.14808C39.8456 8.33965 39.881 8.5326 39.9663 8.70513C40.0516 8.87766 40.1835 9.02289 40.347 9.12443C40.5105 9.22597 40.6991 9.27977 40.8916 9.27975ZM46.4022 2.22662L50.4469 7.52262H48.5895V29.5362H44.2145V7.52262H42.3576L46.4022 2.22662Z" fill="#D8A131" stroke="black" stroke-width="0.6" mask="url(#path-4-inside-4_36_7095)">
<!-- <animate attributeName="fill"
         values="transparent;#D8A131;transparent"
         keyTimes="0;0.5;1"
         dur="3s"
         repeatCount="indefinite"
         begin="1s"
         calcMode="spline"
         keySplines="0.42 0 0.58 1;0.42 0 0.58 1" /> -->

         </path>
</g>
<defs>
<clipPath id="clip0_36_7095">
<rect width="64" height="64" fill="white"/>
</clipPath>
</defs>
</svg>
