<svg width="64" height="64" viewBox="0 0 64 64" fill="none" xmlns="http://www.w3.org/2000/svg">
<mask id="path-1-inside-1_36_7077" fill="white">
<path d="M43.5248 23.5659C43.5248 19.1523 39.9345 15.5625 35.522 15.5625C31.1089 15.5625 27.5186 19.1523 27.5186 23.5659C27.5186 27.9795 31.1089 31.5693 35.522 31.5693C39.9345 31.5693 43.5248 27.9795 43.5248 23.5659ZM29.264 23.5659C29.264 20.1148 32.0714 17.308 35.522 17.308C38.9725 17.308 41.7794 20.1148 41.7794 23.5659C41.7794 27.017 38.9725 29.8239 35.522 29.8239C32.0714 29.8239 29.264 27.017 29.264 23.5659Z"/>
</mask>
<path d="M43.5248 23.5659C43.5248 19.1523 39.9345 15.5625 35.522 15.5625C31.1089 15.5625 27.5186 19.1523 27.5186 23.5659C27.5186 27.9795 31.1089 31.5693 35.522 31.5693C39.9345 31.5693 43.5248 27.9795 43.5248 23.5659ZM29.264 23.5659C29.264 20.1148 32.0714 17.308 35.522 17.308C38.9725 17.308 41.7794 20.1148 41.7794 23.5659C41.7794 27.017 38.9725 29.8239 35.522 29.8239C32.0714 29.8239 29.264 27.017 29.264 23.5659Z" fill="#D8A131" stroke="black" stroke-width="0.6" mask="url(#path-1-inside-1_36_7077)"/>
<mask id="path-2-inside-2_36_7077" fill="white">
<path d="M38.4307 21.2947C38.0898 20.9538 37.5375 20.9538 37.1966 21.2947L34.512 23.9834L33.8472 23.3186C33.5063 22.9777 32.954 22.9777 32.6131 23.3186C32.2722 23.6595 32.2722 24.2118 32.6131 24.5527L33.8955 25.8357C34.2378 26.1779 34.7908 26.175 35.1301 25.8357L38.4319 22.5288C38.7722 22.1868 38.7722 21.6345 38.4307 21.2947Z"/>
</mask>
<path d="M38.4307 21.2947C38.0898 20.9538 37.5375 20.9538 37.1966 21.2947L34.512 23.9834L33.8472 23.3186C33.5063 22.9777 32.954 22.9777 32.6131 23.3186C32.2722 23.6595 32.2722 24.2118 32.6131 24.5527L33.8955 25.8357C34.2378 26.1779 34.7908 26.175 35.1301 25.8357L38.4319 22.5288C38.7722 22.1868 38.7722 21.6345 38.4307 21.2947Z" fill="#D8A131" stroke="black" stroke-width="0.6" mask="url(#path-2-inside-2_36_7077)"/>
<mask id="path-3-inside-3_36_7077" fill="white">
<path d="M36.3949 7.16804V4.94304C36.3949 4.46122 36.004 4.07031 35.5221 4.07031C35.0403 4.07031 34.6494 4.46122 34.6494 4.94304V7.16804C34.6494 7.64986 35.0403 8.04077 35.5221 8.04077C36.004 8.04077 36.3949 7.64986 36.3949 7.16804Z"/>
</mask>
<path d="M36.3949 7.16804V4.94304C36.3949 4.46122 36.004 4.07031 35.5221 4.07031C35.0403 4.07031 34.6494 4.46122 34.6494 4.94304V7.16804C34.6494 7.64986 35.0403 8.04077 35.5221 8.04077C36.004 8.04077 36.3949 7.64986 36.3949 7.16804Z" fill="#D8A131" stroke="black" stroke-width="0.6" mask="url(#path-3-inside-3_36_7077)"/>
<mask id="path-4-inside-4_36_7077" fill="white">
<path d="M26.3977 11.0054C26.7875 10.7224 26.8739 10.1758 26.5904 9.78606L25.2824 7.9872C25 7.5997 24.4534 7.5122 24.0637 7.79515C23.6739 8.07811 23.5875 8.6247 23.871 9.01447L25.179 10.8133C25.463 11.2034 26.009 11.2884 26.3977 11.0054Z"/>
</mask>
<path d="M26.3977 11.0054C26.7875 10.7224 26.8739 10.1758 26.5904 9.78606L25.2824 7.9872C25 7.5997 24.4534 7.5122 24.0637 7.79515C23.6739 8.07811 23.5875 8.6247 23.871 9.01447L25.179 10.8133C25.463 11.2034 26.009 11.2884 26.3977 11.0054Z" fill="#D8A131" stroke="black" stroke-width="0.6" mask="url(#path-4-inside-4_36_7077)"/>
<mask id="path-5-inside-5_36_7077" fill="white">
<path d="M17.5416 18.6403C19.7235 19.3345 19.6855 19.371 19.9274 19.371C20.915 19.371 21.1398 17.9751 20.1973 17.6688L18.0814 16.9813C17.6217 16.8301 17.1308 17.0835 16.9814 17.5415C16.8325 17.9994 17.0836 18.4915 17.5416 18.6403Z"/>
</mask>
<path d="M17.5416 18.6403C19.7235 19.3345 19.6855 19.371 19.9274 19.371C20.915 19.371 21.1398 17.9751 20.1973 17.6688L18.0814 16.9813C17.6217 16.8301 17.1308 17.0835 16.9814 17.5415C16.8325 17.9994 17.0836 18.4915 17.5416 18.6403Z" fill="#D8A131" stroke="black" stroke-width="0.6" mask="url(#path-5-inside-5_36_7077)"/>
<mask id="path-6-inside-6_36_7077" fill="white">
<path d="M16.9814 29.5885C17.1324 30.0536 17.6314 30.2968 18.0814 30.1487L20.1973 29.4612C20.6552 29.3123 20.9064 28.8203 20.7575 28.3623C20.6081 27.9032 20.1172 27.6498 19.6575 27.8021L17.5416 28.4896C17.0836 28.6385 16.8325 29.1305 16.9814 29.5885Z"/>
</mask>
<path d="M16.9814 29.5885C17.1324 30.0536 17.6314 30.2968 18.0814 30.1487L20.1973 29.4612C20.6552 29.3123 20.9064 28.8203 20.7575 28.3623C20.6081 27.9032 20.1172 27.6498 19.6575 27.8021L17.5416 28.4896C17.0836 28.6385 16.8325 29.1305 16.9814 29.5885Z" fill="#D8A131" stroke="black" stroke-width="0.6" mask="url(#path-6-inside-6_36_7077)"/>
<mask id="path-7-inside-7_36_7077" fill="white">
<path d="M50.8473 29.4603L52.9632 30.1478C53.4132 30.2959 53.9122 30.0528 54.0632 29.5876C54.212 29.1296 53.9609 28.6376 53.5029 28.4887L51.387 27.8012C50.9268 27.6512 50.4365 27.9024 50.287 28.3615C50.1382 28.8194 50.3893 29.3115 50.8473 29.4603Z"/>
</mask>
<path d="M50.8473 29.4603L52.9632 30.1478C53.4132 30.2959 53.9122 30.0528 54.0632 29.5876C54.212 29.1296 53.9609 28.6376 53.5029 28.4887L51.387 27.8012C50.9268 27.6512 50.4365 27.9024 50.287 28.3615C50.1382 28.8194 50.3893 29.3115 50.8473 29.4603Z" fill="#D8A131" stroke="black" stroke-width="0.6" mask="url(#path-7-inside-7_36_7077)"/>
<mask id="path-8-inside-8_36_7077" fill="white">
<path d="M51.387 19.3269L53.5029 18.6394C53.9609 18.4905 54.212 17.9985 54.0632 17.5405C53.9143 17.0814 53.4228 16.8269 52.9632 16.9803L50.8473 17.6678C50.3893 17.8166 50.1382 18.3087 50.287 18.7666C50.438 19.2318 50.937 19.475 51.387 19.3269Z"/>
</mask>
<path d="M51.387 19.3269L53.5029 18.6394C53.9609 18.4905 54.212 17.9985 54.0632 17.5405C53.9143 17.0814 53.4228 16.8269 52.9632 16.9803L50.8473 17.6678C50.3893 17.8166 50.1382 18.3087 50.287 18.7666C50.438 19.2318 50.937 19.475 51.387 19.3269Z" fill="#D8A131" stroke="black" stroke-width="0.6" mask="url(#path-8-inside-8_36_7077)"/>
<mask id="path-9-inside-9_36_7077" fill="white">
<path d="M45.8665 10.8122L47.1733 9.01333C47.4568 8.62242 47.3705 8.07697 46.9807 7.79402C46.5898 7.50992 46.0449 7.59742 45.7614 7.98606L44.454 9.78492C44.0313 10.3689 44.4587 11.1713 45.1597 11.1713C45.4296 11.1713 45.6955 11.0463 45.8665 10.8122Z"/>
</mask>
<path d="M45.8665 10.8122L47.1733 9.01333C47.4568 8.62242 47.3705 8.07697 46.9807 7.79402C46.5898 7.50992 46.0449 7.59742 45.7614 7.98606L44.454 9.78492C44.0313 10.3689 44.4587 11.1713 45.1597 11.1713C45.4296 11.1713 45.6955 11.0463 45.8665 10.8122Z" fill="#D8A131" stroke="black" stroke-width="0.6" mask="url(#path-9-inside-9_36_7077)"/>
<mask id="path-10-inside-10_36_7077" fill="white">
<path d="M10.8361 35.9388C9.5872 35.9388 8.57129 36.9547 8.57129 38.2036V54.7525C8.57129 56.0013 9.5872 57.0172 10.8361 57.0172H16.1366C17.3855 57.0172 18.4014 56.0013 18.4014 54.7525V54.5682L25.719 58.6672C28.3396 60.1376 31.4513 60.3388 34.2622 59.1786L53.7866 51.1616C55.5961 50.4252 55.9979 48.0451 54.5508 46.7718C52.3804 44.8275 49.2338 44.2775 46.5315 45.3672L40.119 47.9661C40.4222 47.0624 40.4291 46.061 40.0682 45.0945H40.4827C41.4963 45.0945 42.3207 44.2695 42.3207 43.2559V41.0218C42.3207 40.148 41.7068 39.4175 40.8883 39.2317C41.1139 37.1197 42.2003 35.1238 43.9537 33.6604C47.465 30.7297 49.1923 26.2559 48.573 21.6922C47.7696 15.8241 42.9128 11.0945 37.0236 10.4445C28.9419 9.54454 22.3537 15.9064 22.3537 23.5343C22.3537 27.4513 24.0815 31.1388 27.0946 33.6513C28.8505 35.1148 29.938 37.1143 30.1636 39.2305C29.3378 39.4148 28.7179 40.1466 28.7179 41.0218V42.1503C27.5554 41.9681 26.452 41.495 25.5457 40.7525C24.0332 39.5195 22.3213 38.8684 20.5957 38.8684H18.4014V38.2036C18.4014 36.9547 17.3855 35.9388 16.1366 35.9388H10.8361ZM40.4827 43.3491C40.3655 43.3491 38.73 43.3491 38.8471 43.3491C38.065 42.6606 37.063 42.2547 36.0139 42.2547H30.4633V41.0218C30.4633 40.9718 30.5122 40.9286 30.5684 40.9286C40.9585 40.9699 40.5753 40.8412 40.5753 41.0218C40.5382 43.1905 40.6596 43.3491 40.4827 43.3491ZM28.2128 32.3104C25.5986 30.1309 24.0991 26.932 24.0991 23.5343C24.0991 16.9044 29.8054 11.4156 36.8321 12.1786C41.9372 12.7422 46.1474 16.8434 46.8434 21.9275C47.3815 25.8922 45.8832 29.7775 42.8355 32.3195C40.6957 34.1059 39.3775 36.5661 39.1355 39.1763H31.9167C31.6753 36.5616 30.3554 34.0979 28.2128 32.3104ZM20.5957 40.6138C21.915 40.6138 23.2457 41.1297 24.4412 42.1036C25.9649 43.3533 27.8901 44.0002 29.8003 44.0002H36.0139C37.4156 44.0002 38.5974 45.1598 38.5974 46.5831C38.5974 48.04 37.403 49.1559 36.0139 49.1559H27.7986C27.3167 49.1559 26.9258 49.5468 26.9258 50.0286C26.9258 50.5104 27.3167 50.9013 27.7986 50.9013C28.1657 50.9013 36.5487 50.9013 36.015 50.9013C36.2149 50.8866 37.1032 50.9898 38.4832 50.5116L47.1861 46.9854C49.2747 46.1422 51.7077 46.5684 53.3917 48.0763C53.8824 48.5094 53.7267 49.3012 53.1258 49.5468L33.598 57.565C31.2991 58.5127 28.7395 58.3604 26.573 57.1445L18.4014 52.5673V40.6138H20.5957ZM16.6559 38.2036C16.6486 40.6618 16.6558 54.6343 16.6559 54.7525C16.6559 55.0388 16.423 55.2718 16.1366 55.2718H10.8361C10.5497 55.2718 10.3167 55.0388 10.3167 54.7525V38.2036C10.3167 37.9172 10.5497 37.6843 10.8361 37.6843H16.1366C16.423 37.6843 16.6559 37.9172 16.6559 38.2036Z"/>
</mask>
<path d="M10.8361 35.9388C9.5872 35.9388 8.57129 36.9547 8.57129 38.2036V54.7525C8.57129 56.0013 9.5872 57.0172 10.8361 57.0172H16.1366C17.3855 57.0172 18.4014 56.0013 18.4014 54.7525V54.5682L25.719 58.6672C28.3396 60.1376 31.4513 60.3388 34.2622 59.1786L53.7866 51.1616C55.5961 50.4252 55.9979 48.0451 54.5508 46.7718C52.3804 44.8275 49.2338 44.2775 46.5315 45.3672L40.119 47.9661C40.4222 47.0624 40.4291 46.061 40.0682 45.0945H40.4827C41.4963 45.0945 42.3207 44.2695 42.3207 43.2559V41.0218C42.3207 40.148 41.7068 39.4175 40.8883 39.2317C41.1139 37.1197 42.2003 35.1238 43.9537 33.6604C47.465 30.7297 49.1923 26.2559 48.573 21.6922C47.7696 15.8241 42.9128 11.0945 37.0236 10.4445C28.9419 9.54454 22.3537 15.9064 22.3537 23.5343C22.3537 27.4513 24.0815 31.1388 27.0946 33.6513C28.8505 35.1148 29.938 37.1143 30.1636 39.2305C29.3378 39.4148 28.7179 40.1466 28.7179 41.0218V42.1503C27.5554 41.9681 26.452 41.495 25.5457 40.7525C24.0332 39.5195 22.3213 38.8684 20.5957 38.8684H18.4014V38.2036C18.4014 36.9547 17.3855 35.9388 16.1366 35.9388H10.8361ZM40.4827 43.3491C40.3655 43.3491 38.73 43.3491 38.8471 43.3491C38.065 42.6606 37.063 42.2547 36.0139 42.2547H30.4633V41.0218C30.4633 40.9718 30.5122 40.9286 30.5684 40.9286C40.9585 40.9699 40.5753 40.8412 40.5753 41.0218C40.5382 43.1905 40.6596 43.3491 40.4827 43.3491ZM28.2128 32.3104C25.5986 30.1309 24.0991 26.932 24.0991 23.5343C24.0991 16.9044 29.8054 11.4156 36.8321 12.1786C41.9372 12.7422 46.1474 16.8434 46.8434 21.9275C47.3815 25.8922 45.8832 29.7775 42.8355 32.3195C40.6957 34.1059 39.3775 36.5661 39.1355 39.1763H31.9167C31.6753 36.5616 30.3554 34.0979 28.2128 32.3104ZM20.5957 40.6138C21.915 40.6138 23.2457 41.1297 24.4412 42.1036C25.9649 43.3533 27.8901 44.0002 29.8003 44.0002H36.0139C37.4156 44.0002 38.5974 45.1598 38.5974 46.5831C38.5974 48.04 37.403 49.1559 36.0139 49.1559H27.7986C27.3167 49.1559 26.9258 49.5468 26.9258 50.0286C26.9258 50.5104 27.3167 50.9013 27.7986 50.9013C28.1657 50.9013 36.5487 50.9013 36.015 50.9013C36.2149 50.8866 37.1032 50.9898 38.4832 50.5116L47.1861 46.9854C49.2747 46.1422 51.7077 46.5684 53.3917 48.0763C53.8824 48.5094 53.7267 49.3012 53.1258 49.5468L33.598 57.565C31.2991 58.5127 28.7395 58.3604 26.573 57.1445L18.4014 52.5673V40.6138H20.5957ZM16.6559 38.2036C16.6486 40.6618 16.6558 54.6343 16.6559 54.7525C16.6559 55.0388 16.423 55.2718 16.1366 55.2718H10.8361C10.5497 55.2718 10.3167 55.0388 10.3167 54.7525V38.2036C10.3167 37.9172 10.5497 37.6843 10.8361 37.6843H16.1366C16.423 37.6843 16.6559 37.9172 16.6559 38.2036Z" fill="#D8A131" stroke="black" stroke-width="0.6" mask="url(#path-10-inside-10_36_7077)"/>
<mask id="path-11-inside-11_36_7077" fill="white">
<path d="M13.486 50.6914C13.0042 50.6914 12.6133 51.0823 12.6133 51.5641V52.5198C12.6133 53.0016 13.0042 53.3925 13.486 53.3925C13.9678 53.3925 14.3587 53.0016 14.3587 52.5198V51.5641C14.3587 51.0823 13.9678 50.6914 13.486 50.6914Z"/>
</mask>
<path d="M13.486 50.6914C13.0042 50.6914 12.6133 51.0823 12.6133 51.5641V52.5198C12.6133 53.0016 13.0042 53.3925 13.486 53.3925C13.9678 53.3925 14.3587 53.0016 14.3587 52.5198V51.5641C14.3587 51.0823 13.9678 50.6914 13.486 50.6914Z" fill="#D8A131" stroke="black" stroke-width="0.6" mask="url(#path-11-inside-11_36_7077)"/>
</svg>
