<svg width="50" height="52" viewBox="0 0 50 52" fill="none" xmlns="http://www.w3.org/2000/svg">
    <path d="M43.1863 39.8277H43.1862C42.9922 39.8277 42.8062 39.7506 42.669 39.6135C42.5319 39.4763 42.4548 39.2903 42.4548 39.0963V34.8129V34.6629H42.3048H8.16701H8.01701V34.8129V39.0963C8.01701 39.2903 7.93995 39.4763 7.8028 39.6135C7.66564 39.7506 7.47962 39.8277 7.28565 39.8277C7.09168 39.8277 6.90566 39.7506 6.76851 39.6135C6.63135 39.4763 6.5543 39.2903 6.5543 39.0963V33.9609C6.5543 33.767 6.63135 33.581 6.76851 33.4438C6.90566 33.3066 7.09168 33.2296 7.28565 33.2296H43.1862C43.3801 33.2296 43.5662 33.3066 43.7033 33.4438C43.8405 33.581 43.9175 33.767 43.9175 33.9609V39.1231C43.9106 39.3119 43.8309 39.4908 43.695 39.6221C43.5585 39.7541 43.3761 39.8278 43.1863 39.8277Z" fill="#D8A131" stroke="#191919" stroke-width="0.3">
       <!-- <animate attributeName="fill"
         values="transparent;#D8A131;transparent"
         keyTimes="0;0.5;1"
         dur="3s"
         repeatCount="2"
         calcMode="spline"
         keySplines="0.42 0 0.58 1;0.42 0 0.58 1" />
     -->
    </path>
    <path d="M25.231 39.8278C25.037 39.8278 24.851 39.7507 24.7138 39.6136C24.5767 39.4764 24.4996 39.2904 24.4996 39.0964V30.7529C24.4996 30.559 24.5767 30.3729 24.7138 30.2358C24.851 30.0986 25.037 30.0216 25.231 30.0216C25.4249 30.0216 25.611 30.0986 25.7481 30.2358C25.8853 30.3729 25.9623 30.559 25.9623 30.7529V39.0964C25.9623 39.2904 25.8853 39.4764 25.7481 39.6136C25.611 39.7507 25.4249 39.8278 25.231 39.8278Z" fill="#D8A131" stroke="#191919" stroke-width="0.3">
       <!-- <animate attributeName="fill"
         values="transparent;#D8A131;transparent"
         keyTimes="0;0.5;1"
         dur="3s"
         repeatCount="2"
         calcMode="spline"
         keySplines="0.42 0 0.58 1;0.42 0 0.58 1" />
     -->
    </path>
    <path d="M7.43163 40.7003V40.6863H7.28163C6.32228 40.6863 5.38448 40.9707 4.58681 41.5037C3.78913 42.0367 3.16743 42.7943 2.8003 43.6806C2.43317 44.5669 2.33711 45.5422 2.52427 46.4831C2.71143 47.424 3.17341 48.2883 3.85177 48.9667C4.53013 49.6451 5.39442 50.107 6.33534 50.2942C7.27625 50.4813 8.25154 50.3853 9.13786 50.0182C10.0242 49.651 10.7817 49.0293 11.3147 48.2316C11.8477 47.434 12.1322 46.4962 12.1322 45.5368L12.1322 45.5364C12.129 44.2521 11.6165 43.0215 10.7072 42.1144C9.83337 41.2428 8.66157 40.7383 7.43163 40.7003ZM7.28163 51.8501C6.03299 51.8501 4.81238 51.4798 3.77417 50.7861C2.73596 50.0924 1.92677 49.1064 1.44893 47.9528C0.971095 46.7992 0.846071 45.5298 1.08967 44.3052C1.33327 43.0805 1.93455 41.9556 2.81748 41.0727C3.7004 40.1897 4.82532 39.5885 6.04997 39.3449C7.27463 39.1013 8.54402 39.2263 9.69762 39.7041C10.8512 40.182 11.8372 40.9911 12.5309 42.0294C13.2246 43.0676 13.5949 44.2882 13.5949 45.5368C13.5949 47.2112 12.9298 48.817 11.7458 50.001C10.5618 51.1849 8.95602 51.8501 7.28163 51.8501Z" fill="#D8A131" stroke="#191919" stroke-width="0.3">
       <!-- <animate attributeName="fill"
         values="transparent;#D8A131;transparent"
         keyTimes="0;0.5;1"
         dur="3s"
         repeatCount="indefinite"
         calcMode="spline"
         begin=".5s"
         keySplines="0.42 0 0.58 1;0.42 0 0.58 1" /> -->
    
    </path>
    <path d="M25.3818 40.7003V40.6863H25.2318C24.2725 40.6863 23.3347 40.9707 22.537 41.5037C21.7393 42.0367 21.1176 42.7943 20.7505 43.6806C20.3834 44.5669 20.2873 45.5422 20.4745 46.4831C20.6616 47.424 21.1236 48.2883 21.802 48.9667C22.4803 49.6451 23.3446 50.107 24.2855 50.2942C25.2264 50.4813 26.2017 50.3853 27.0881 50.0182C27.9744 49.651 28.7319 49.0293 29.2649 48.2316C29.7979 47.434 30.0824 46.4962 30.0824 45.5368L30.0824 45.5364C30.0792 44.2521 29.5667 43.0215 28.6574 42.1144C27.7836 41.2428 26.6118 40.7383 25.3818 40.7003ZM25.2318 51.8501C23.9832 51.8501 22.7626 51.4798 21.7244 50.7861C20.6862 50.0924 19.877 49.1064 19.3991 47.9528C18.9213 46.7992 18.7963 45.5298 19.0399 44.3052C19.2835 43.0805 19.8847 41.9556 20.7677 41.0727C21.6506 40.1897 22.7755 39.5885 24.0002 39.3449C25.2248 39.1013 26.4942 39.2263 27.6478 39.7041C28.8014 40.182 29.7874 40.9911 30.4811 42.0294C31.1748 43.0676 31.5451 44.2882 31.5451 45.5368C31.5451 47.2112 30.88 48.817 29.696 50.001C28.512 51.1849 26.9062 51.8501 25.2318 51.8501Z" fill="#D8A131" stroke="#191919" stroke-width="0.3">
       <!-- <animate attributeName="fill"
         values="transparent;#D8A131;transparent"
         keyTimes="0;0.5;1"
         dur="3s"
         repeatCount="indefinite"
         calcMode="spline"
         begin="1s"
         keySplines="0.42 0 0.58 1;0.42 0 0.58 1" /> -->
    </path>
    <path d="M43.3379 40.7005V40.6864H43.1879C42.2285 40.6864 41.2907 40.9709 40.4931 41.5039C39.6954 42.0369 39.0737 42.7945 38.7065 43.6808C38.3394 44.5671 38.2434 45.5424 38.4305 46.4833C38.6177 47.4242 39.0797 48.2885 39.758 48.9669C40.4364 49.6452 41.3007 50.1072 42.2416 50.2944C43.1825 50.4815 44.1578 50.3855 45.0441 50.0183C45.9304 49.6512 46.688 49.0295 47.221 48.2318C47.754 47.4342 48.0384 46.4964 48.0384 45.537L48.0384 45.5366C48.0352 44.2523 47.5228 43.0216 46.6135 42.1146C45.7396 41.2429 44.5678 40.7385 43.3379 40.7005ZM43.1879 51.8503C41.9392 51.8503 40.7186 51.48 39.6804 50.7863C38.6422 50.0926 37.833 49.1066 37.3552 47.953C36.8773 46.7994 36.7523 45.53 36.9959 44.3053C37.2395 43.0807 37.8408 41.9558 38.7237 41.0728C39.6067 40.1899 40.7316 39.5886 41.9562 39.345C43.1809 39.1014 44.4503 39.2265 45.6039 39.7043C46.7575 40.1821 47.7435 40.9913 48.4372 42.0295C49.1309 43.0678 49.5012 44.2884 49.5012 45.537C49.5012 47.2114 48.836 48.8172 47.652 50.0012C46.4681 51.1851 44.8623 51.8503 43.1879 51.8503Z" fill="#D8A131" stroke="#191919" stroke-width="0.3">
       <!-- <animate attributeName="fill"
         values="transparent;#D8A131;transparent"
         keyTimes="0;0.5;1"
         dur="3s"
         repeatCount="indefinite"
         calcMode="spline"
         begin="1.5s"
         keySplines="0.42 0 0.58 1;0.42 0 0.58 1" /> -->
    
    </path>
    <path d="M25.2309 30.4037C22.2379 30.4036 19.3121 29.5157 16.8239 27.8523C14.3357 26.1888 12.3968 23.8246 11.2528 21.0589C10.1087 18.2931 9.81087 15.2501 10.3969 12.315C10.9829 9.37991 12.4265 6.68462 14.545 4.57026C16.6634 2.4559 19.3614 1.01751 22.2977 0.437126C25.2339 -0.143256 28.2763 0.160459 31.0399 1.30983C33.8034 2.45921 36.1639 4.40258 37.8226 6.894C39.4812 9.38541 40.3635 12.3129 40.3577 15.3059C40.35 19.3128 38.7529 23.1529 35.9169 25.9834C33.0809 28.8139 29.2378 30.4037 25.2309 30.4037ZM25.2309 1.67147C22.5284 1.67147 19.8866 2.47286 17.6395 3.97429C15.3925 5.47572 13.6411 7.60977 12.6069 10.1066C11.5727 12.6033 11.3021 15.3507 11.8293 18.0013C12.3566 20.6519 13.658 23.0866 15.5689 24.9976C17.4799 26.9085 19.9146 28.2099 22.5652 28.7371C25.2157 29.2644 27.9631 28.9938 30.4599 27.9596C32.9567 26.9254 35.0908 25.174 36.5922 22.927C38.0936 20.6799 38.895 18.0381 38.895 15.3356C38.895 11.7116 37.4554 8.23612 34.8929 5.6736C32.3304 3.11108 28.8549 1.67147 25.2309 1.67147Z" fill="#D8A131" stroke="#191919" stroke-width="0.3">
    </path>
    <path d="M20.0267 17.2734L20.0341 17.2587L20.0381 17.2427C20.1041 16.9784 20.3768 16.8217 20.6946 16.8217H23.368C24.1103 16.8217 24.8652 16.5453 25.3459 15.9761C25.9151 15.4954 26.1915 14.7406 26.1915 13.9982C26.1915 13.2559 25.9151 12.501 25.3459 12.0203C24.8652 11.4511 24.1103 11.1748 23.368 11.1748H20.6946C20.4613 11.1748 20.2786 11.0977 20.1545 10.9736C20.0305 10.8496 19.9534 10.6669 19.9534 10.4336C19.9534 10.2004 20.0305 10.0176 20.1545 9.89361C20.2786 9.76958 20.4613 9.69248 20.6946 9.69248H30.4972C30.7304 9.69248 30.9132 9.76958 31.0372 9.89361C31.1612 10.0176 31.2383 10.2004 31.2383 10.4336C31.2383 10.6669 31.1612 10.8496 31.0372 10.9736C30.9132 11.0977 30.7304 11.1748 30.4972 11.1748H26.9326H26.6523L26.8078 11.408C27.3313 12.1933 27.6737 13.0559 27.6737 13.9982C27.6737 15.1196 27.2424 16.2356 26.3867 17.0057L26.3808 17.011L26.3755 17.0169C25.6054 17.8726 24.4894 18.304 23.368 18.304H22.8333H22.4712L22.7273 18.56L26.5592 22.392C26.8571 22.6898 26.8571 23.1296 26.5592 23.4274C26.4789 23.5077 26.4046 23.5619 26.3259 23.5969C26.2477 23.6317 26.1576 23.6508 26.0415 23.6508C25.9253 23.6508 25.8352 23.6317 25.7571 23.5969C25.6783 23.5619 25.604 23.5077 25.5237 23.4274L20.1768 18.0806C19.9486 17.8523 19.8813 17.5643 20.0267 17.2734Z" fill="#D8A131" stroke="#191919" stroke-width="0.3">
        
    </path>
    <path d="M30.4965 14.7397H20.6939C20.4606 14.7397 20.2779 14.6626 20.1539 14.5386C20.0298 14.4146 19.9527 14.2318 19.9527 13.9986C19.9527 13.7653 20.0298 13.5826 20.1539 13.4586C20.2779 13.3345 20.4606 13.2574 20.6939 13.2574H30.4965C30.7298 13.2574 30.9125 13.3345 31.0365 13.4586C31.1606 13.5826 31.2377 13.7653 31.2377 13.9986C31.2377 14.2318 31.1606 14.4146 31.0365 14.5386C30.9125 14.6626 30.7298 14.7397 30.4965 14.7397Z" fill="#D8A131" stroke="#191919" stroke-width="0.3">
    
    </path>
</svg>
