<svg width="64" height="64" viewBox="0 0 64 64" fill="none" xmlns="http://www.w3.org/2000/svg">
<mask id="path-1-inside-1_36_7107" fill="white">
<path d="M32.7012 54.6662C32.0212 54.6662 31.3432 54.4982 30.7432 54.1682L29.4152 53.4502C28.9292 53.1882 28.7492 52.5802 29.0132 52.0942C29.2752 51.6082 29.8832 51.4282 30.3692 51.6922L31.7012 52.4122C32.1732 52.6702 32.7652 52.7342 33.2852 52.5822C33.5872 52.4942 33.9952 52.2942 34.2392 51.8502C34.6072 51.1782 34.4752 50.3662 34.1352 49.9702C33.8012 49.5802 33.8172 49.0022 34.1712 48.6302C34.4812 48.3082 35.0052 48.1842 35.3992 48.3922L38.3512 49.9382C39.2552 50.4302 40.3832 50.1402 40.8352 49.3122C41.1872 48.6662 41.0032 47.8542 40.7192 47.4442L37.9872 45.5442C37.5512 45.2402 37.4292 44.6482 37.7072 44.1962C37.9852 43.7422 38.5672 43.5882 39.0372 43.8442L44.2352 46.6842C44.7172 46.9482 45.1672 46.9022 45.4592 46.8142C45.9172 46.6802 46.3192 46.3502 46.5592 45.9082C47.0392 45.0322 46.7852 44.0682 45.9592 43.6162L42.6432 41.4602C42.1992 41.1702 42.0592 40.5862 42.3212 40.1262C42.5832 39.6682 43.1612 39.4902 43.6332 39.7262L50.3912 43.0802C51.2492 43.5462 52.2692 43.2082 52.7552 42.3242C53.2132 41.4782 52.8772 40.3642 52.0152 39.8942C51.5292 39.6302 51.3512 39.0222 51.6152 38.5382C51.8792 38.0542 52.4892 37.8722 52.9712 38.1382C54.7832 39.1262 55.4872 41.4822 54.5112 43.2822C53.4872 45.1502 51.2772 45.8422 49.4692 44.8542L48.7652 44.5062C48.8772 45.3002 48.7212 46.1262 48.3132 46.8682C47.8212 47.7722 46.9852 48.4522 46.0212 48.7342C45.0932 49.0062 44.1172 48.9002 43.2732 48.4402L43.0132 48.3002C43.0512 48.9542 42.9292 49.6402 42.5852 50.2702C41.6132 52.0482 39.2432 52.7062 37.4032 51.7002L36.4472 51.2002C36.4152 51.7562 36.2652 52.3122 35.9932 52.8082C35.5492 53.6242 34.7872 54.2242 33.8472 54.5022C33.4732 54.6122 33.0872 54.6662 32.7012 54.6662Z"/>
</mask>
<path d="M32.7012 54.6662C32.0212 54.6662 31.3432 54.4982 30.7432 54.1682L29.4152 53.4502C28.9292 53.1882 28.7492 52.5802 29.0132 52.0942C29.2752 51.6082 29.8832 51.4282 30.3692 51.6922L31.7012 52.4122C32.1732 52.6702 32.7652 52.7342 33.2852 52.5822C33.5872 52.4942 33.9952 52.2942 34.2392 51.8502C34.6072 51.1782 34.4752 50.3662 34.1352 49.9702C33.8012 49.5802 33.8172 49.0022 34.1712 48.6302C34.4812 48.3082 35.0052 48.1842 35.3992 48.3922L38.3512 49.9382C39.2552 50.4302 40.3832 50.1402 40.8352 49.3122C41.1872 48.6662 41.0032 47.8542 40.7192 47.4442L37.9872 45.5442C37.5512 45.2402 37.4292 44.6482 37.7072 44.1962C37.9852 43.7422 38.5672 43.5882 39.0372 43.8442L44.2352 46.6842C44.7172 46.9482 45.1672 46.9022 45.4592 46.8142C45.9172 46.6802 46.3192 46.3502 46.5592 45.9082C47.0392 45.0322 46.7852 44.0682 45.9592 43.6162L42.6432 41.4602C42.1992 41.1702 42.0592 40.5862 42.3212 40.1262C42.5832 39.6682 43.1612 39.4902 43.6332 39.7262L50.3912 43.0802C51.2492 43.5462 52.2692 43.2082 52.7552 42.3242C53.2132 41.4782 52.8772 40.3642 52.0152 39.8942C51.5292 39.6302 51.3512 39.0222 51.6152 38.5382C51.8792 38.0542 52.4892 37.8722 52.9712 38.1382C54.7832 39.1262 55.4872 41.4822 54.5112 43.2822C53.4872 45.1502 51.2772 45.8422 49.4692 44.8542L48.7652 44.5062C48.8772 45.3002 48.7212 46.1262 48.3132 46.8682C47.8212 47.7722 46.9852 48.4522 46.0212 48.7342C45.0932 49.0062 44.1172 48.9002 43.2732 48.4402L43.0132 48.3002C43.0512 48.9542 42.9292 49.6402 42.5852 50.2702C41.6132 52.0482 39.2432 52.7062 37.4032 51.7002L36.4472 51.2002C36.4152 51.7562 36.2652 52.3122 35.9932 52.8082C35.5492 53.6242 34.7872 54.2242 33.8472 54.5022C33.4732 54.6122 33.0872 54.6662 32.7012 54.6662Z" fill="#D8A131" stroke="black" stroke-width="0.6" mask="url(#path-1-inside-1_36_7107)"/>
<mask id="path-2-inside-2_36_7107" fill="white">
<path d="M12.0156 36.5276C11.8636 36.5276 11.7116 36.4936 11.5656 36.4196L8.2416 34.7436C7.7476 34.4956 7.5496 33.8936 7.7996 33.4016C8.0476 32.9076 8.6476 32.7056 9.1416 32.9596L12.4656 34.6356C12.9596 34.8836 13.1576 35.4856 12.9076 35.9776C12.7336 36.3256 12.3816 36.5276 12.0156 36.5276Z"/>
</mask>
<path d="M12.0156 36.5276C11.8636 36.5276 11.7116 36.4936 11.5656 36.4196L8.2416 34.7436C7.7476 34.4956 7.5496 33.8936 7.7996 33.4016C8.0476 32.9076 8.6476 32.7056 9.1416 32.9596L12.4656 34.6356C12.9596 34.8836 13.1576 35.4856 12.9076 35.9776C12.7336 36.3256 12.3816 36.5276 12.0156 36.5276Z" fill="#D8A131" stroke="black" stroke-width="0.6" mask="url(#path-2-inside-2_36_7107)"/>
<mask id="path-3-inside-3_36_7107" fill="white">
<path d="M19.9994 23.5C19.9354 23.5 19.8694 23.494 19.8034 23.48L13.0154 22.138C12.4734 22.03 12.1214 21.506 12.2294 20.964C12.3374 20.422 12.8634 20.062 13.4034 20.178L20.1914 21.52C20.7334 21.628 21.0854 22.152 20.9774 22.694C20.8854 23.17 20.4674 23.5 19.9994 23.5Z"/>
</mask>
<path d="M19.9994 23.5C19.9354 23.5 19.8694 23.494 19.8034 23.48L13.0154 22.138C12.4734 22.03 12.1214 21.506 12.2294 20.964C12.3374 20.422 12.8634 20.062 13.4034 20.178L20.1914 21.52C20.7334 21.628 21.0854 22.152 20.9774 22.694C20.8854 23.17 20.4674 23.5 19.9994 23.5Z" fill="#D8A131" stroke="black" stroke-width="0.6" mask="url(#path-3-inside-3_36_7107)"/>
<mask id="path-4-inside-4_36_7107" fill="white">
<path d="M52.468 40.0035C52.302 40.0035 52.136 39.9615 51.988 39.8795L45.434 36.2935L36.5 30.7495C36.03 30.4595 35.882 29.8455 36.172 29.3735C36.46 28.9015 37.076 28.7555 37.548 29.0455L46.438 34.5655L51.924 37.5655C52.268 36.3675 52.242 35.4855 52.24 35.4755C52.222 35.0635 52.456 34.6835 52.832 34.5155L54.9 33.5955C55.406 33.3755 55.998 33.5995 56.22 34.1035C56.444 34.6075 56.218 35.1995 55.712 35.4235L54.216 36.0895C54.16 36.8195 53.974 38.0415 53.386 39.4015C53.274 39.6595 53.058 39.8595 52.794 39.9495C52.688 39.9855 52.578 40.0035 52.468 40.0035Z"/>
</mask>
<path d="M52.468 40.0035C52.302 40.0035 52.136 39.9615 51.988 39.8795L45.434 36.2935L36.5 30.7495C36.03 30.4595 35.882 29.8455 36.172 29.3735C36.46 28.9015 37.076 28.7555 37.548 29.0455L46.438 34.5655L51.924 37.5655C52.268 36.3675 52.242 35.4855 52.24 35.4755C52.222 35.0635 52.456 34.6835 52.832 34.5155L54.9 33.5955C55.406 33.3755 55.998 33.5995 56.22 34.1035C56.444 34.6075 56.218 35.1995 55.712 35.4235L54.216 36.0895C54.16 36.8195 53.974 38.0415 53.386 39.4015C53.274 39.6595 53.058 39.8595 52.794 39.9495C52.688 39.9855 52.578 40.0035 52.468 40.0035Z" fill="#D8A131" stroke="black" stroke-width="0.6" mask="url(#path-4-inside-4_36_7107)"/>
<mask id="path-5-inside-5_36_7107" fill="white">
<path d="M24.2134 34.6696C22.8074 34.6696 21.4514 34.0576 20.3434 32.9116C20.0894 32.6476 19.9994 32.2676 20.1074 31.9176C20.4474 30.8236 20.8154 29.8016 21.1554 28.8556C21.7034 27.3276 22.1794 26.0096 22.3214 24.9916C22.3614 24.7096 22.5174 24.4576 22.7534 24.2996L23.7794 23.5996C26.0934 22.0076 29.9674 19.3396 32.0734 18.4716C33.3334 17.9536 39.9934 19.2376 45.3574 20.4096C45.4994 20.4396 45.6334 20.5016 45.7474 20.5896C45.9754 20.7616 46.1854 20.9396 46.3834 21.1216L50.2174 20.0656C50.7494 19.9176 51.3014 20.2316 51.4474 20.7636C51.5934 21.2956 51.2814 21.8476 50.7494 21.9936L46.3674 23.2016C46.0194 23.2996 45.6454 23.1996 45.3894 22.9396C45.1794 22.7276 44.9554 22.5176 44.7074 22.3156C39.5234 21.1896 33.7034 20.1616 32.7714 20.3416C30.9254 21.1076 27.0134 23.8016 24.9114 25.2476L24.2254 25.7156C24.0074 26.8316 23.5534 28.0956 23.0374 29.5336C22.7694 30.2796 22.4834 31.0736 22.2074 31.9136C23.1054 32.6376 23.9694 32.7176 24.5594 32.6496C25.4414 32.5436 26.2614 32.0096 26.6994 31.2596C27.0434 30.6676 27.5074 29.4896 27.8254 28.3936C27.9354 28.0136 28.2614 27.7336 28.6554 27.6816C29.2674 27.5996 31.7014 27.0856 33.1414 26.7436C33.6774 26.6096 34.2194 26.9496 34.3454 27.4856C34.4734 28.0236 34.1414 28.5616 33.6034 28.6896C32.5094 28.9496 30.6454 29.3556 29.5614 29.5576C29.2694 30.4576 28.8514 31.5416 28.4294 32.2656C27.6734 33.5656 26.3154 34.4517 24.8034 34.6357C24.6054 34.6597 24.4094 34.6696 24.2134 34.6696Z"/>
</mask>
<path d="M24.2134 34.6696C22.8074 34.6696 21.4514 34.0576 20.3434 32.9116C20.0894 32.6476 19.9994 32.2676 20.1074 31.9176C20.4474 30.8236 20.8154 29.8016 21.1554 28.8556C21.7034 27.3276 22.1794 26.0096 22.3214 24.9916C22.3614 24.7096 22.5174 24.4576 22.7534 24.2996L23.7794 23.5996C26.0934 22.0076 29.9674 19.3396 32.0734 18.4716C33.3334 17.9536 39.9934 19.2376 45.3574 20.4096C45.4994 20.4396 45.6334 20.5016 45.7474 20.5896C45.9754 20.7616 46.1854 20.9396 46.3834 21.1216L50.2174 20.0656C50.7494 19.9176 51.3014 20.2316 51.4474 20.7636C51.5934 21.2956 51.2814 21.8476 50.7494 21.9936L46.3674 23.2016C46.0194 23.2996 45.6454 23.1996 45.3894 22.9396C45.1794 22.7276 44.9554 22.5176 44.7074 22.3156C39.5234 21.1896 33.7034 20.1616 32.7714 20.3416C30.9254 21.1076 27.0134 23.8016 24.9114 25.2476L24.2254 25.7156C24.0074 26.8316 23.5534 28.0956 23.0374 29.5336C22.7694 30.2796 22.4834 31.0736 22.2074 31.9136C23.1054 32.6376 23.9694 32.7176 24.5594 32.6496C25.4414 32.5436 26.2614 32.0096 26.6994 31.2596C27.0434 30.6676 27.5074 29.4896 27.8254 28.3936C27.9354 28.0136 28.2614 27.7336 28.6554 27.6816C29.2674 27.5996 31.7014 27.0856 33.1414 26.7436C33.6774 26.6096 34.2194 26.9496 34.3454 27.4856C34.4734 28.0236 34.1414 28.5616 33.6034 28.6896C32.5094 28.9496 30.6454 29.3556 29.5614 29.5576C29.2694 30.4576 28.8514 31.5416 28.4294 32.2656C27.6734 33.5656 26.3154 34.4517 24.8034 34.6357C24.6054 34.6597 24.4094 34.6696 24.2134 34.6696Z" fill="#D8A131" stroke="black" stroke-width="0.6" mask="url(#path-5-inside-5_36_7107)"/>
<mask id="path-6-inside-6_36_7107" fill="white">
<path d="M27.3075 54.5337C26.4195 54.5337 25.5875 54.1877 24.9635 53.5617L24.3115 52.9037C23.6915 52.2777 23.3535 51.4457 23.3555 50.5637C23.3575 49.6777 23.7035 48.8497 24.3295 48.2297L25.6475 46.9337C26.8955 45.6977 29.0855 45.7077 30.3215 46.9597L30.9695 47.6097C32.2535 48.9097 32.2435 51.0077 30.9515 52.2877L29.6335 53.5837C29.0135 54.1937 28.1875 54.5337 27.3075 54.5337ZM27.9735 47.9797C27.6255 47.9797 27.2975 48.1137 27.0535 48.3557L25.7375 49.6497C25.4955 49.8897 25.3595 50.2177 25.3575 50.5677C25.3575 50.9197 25.4895 51.2477 25.7335 51.4937L26.3835 52.1497C26.8695 52.6397 27.7355 52.6417 28.2295 52.1537L29.5455 50.8597C30.0535 50.3577 30.0555 49.5257 29.5475 49.0137L28.9015 48.3657C28.6555 48.1157 28.3275 47.9797 27.9735 47.9797Z"/>
</mask>
<path d="M27.3075 54.5337C26.4195 54.5337 25.5875 54.1877 24.9635 53.5617L24.3115 52.9037C23.6915 52.2777 23.3535 51.4457 23.3555 50.5637C23.3575 49.6777 23.7035 48.8497 24.3295 48.2297L25.6475 46.9337C26.8955 45.6977 29.0855 45.7077 30.3215 46.9597L30.9695 47.6097C32.2535 48.9097 32.2435 51.0077 30.9515 52.2877L29.6335 53.5837C29.0135 54.1937 28.1875 54.5337 27.3075 54.5337ZM27.9735 47.9797C27.6255 47.9797 27.2975 48.1137 27.0535 48.3557L25.7375 49.6497C25.4955 49.8897 25.3595 50.2177 25.3575 50.5677C25.3575 50.9197 25.4895 51.2477 25.7335 51.4937L26.3835 52.1497C26.8695 52.6397 27.7355 52.6417 28.2295 52.1537L29.5455 50.8597C30.0535 50.3577 30.0555 49.5257 29.5475 49.0137L28.9015 48.3657C28.6555 48.1157 28.3275 47.9797 27.9735 47.9797Z" fill="#D8A131" stroke="black" stroke-width="0.6" mask="url(#path-6-inside-6_36_7107)"/>
<mask id="path-7-inside-7_36_7107" fill="white">
<path d="M13.4774 42.5459C12.5894 42.5459 11.7554 42.1999 11.1314 41.5719L10.4814 40.9179C9.19744 39.6199 9.20744 37.5239 10.4994 36.2419L11.8174 34.9459C13.0654 33.7119 15.2514 33.7179 16.4894 34.9679L17.1394 35.6239C17.7594 36.2499 18.0974 37.0799 18.0934 37.9659C18.0894 38.8499 17.7414 39.6779 17.1174 40.2979L15.8014 41.5919C15.1834 42.2059 14.3574 42.5459 13.4774 42.5459ZM14.1434 35.9919C13.7954 35.9919 13.4674 36.1259 13.2214 36.3679L11.9054 37.6619C11.3974 38.1659 11.3954 38.9959 11.9014 39.5079L12.5494 40.1599C13.0394 40.6539 13.9034 40.6559 14.3954 40.1679L15.7134 38.8719C15.9574 38.6319 16.0914 38.3059 16.0934 37.9559C16.0954 37.6059 15.9634 37.2779 15.7194 37.0319L15.0694 36.3759C14.8254 36.1279 14.4974 35.9919 14.1434 35.9919Z"/>
</mask>
<path d="M13.4774 42.5459C12.5894 42.5459 11.7554 42.1999 11.1314 41.5719L10.4814 40.9179C9.19744 39.6199 9.20744 37.5239 10.4994 36.2419L11.8174 34.9459C13.0654 33.7119 15.2514 33.7179 16.4894 34.9679L17.1394 35.6239C17.7594 36.2499 18.0974 37.0799 18.0934 37.9659C18.0894 38.8499 17.7414 39.6779 17.1174 40.2979L15.8014 41.5919C15.1834 42.2059 14.3574 42.5459 13.4774 42.5459ZM14.1434 35.9919C13.7954 35.9919 13.4674 36.1259 13.2214 36.3679L11.9054 37.6619C11.3974 38.1659 11.3954 38.9959 11.9014 39.5079L12.5494 40.1599C13.0394 40.6539 13.9034 40.6559 14.3954 40.1679L15.7134 38.8719C15.9574 38.6319 16.0914 38.3059 16.0934 37.9559C16.0954 37.6059 15.9634 37.2779 15.7194 37.0319L15.0694 36.3759C14.8254 36.1279 14.4974 35.9919 14.1434 35.9919Z" fill="#D8A131" stroke="black" stroke-width="0.6" mask="url(#path-7-inside-7_36_7107)"/>
<mask id="path-8-inside-8_36_7107" fill="white">
<path d="M16.913 47.775C16.023 47.775 15.189 47.429 14.567 46.797L13.917 46.143C13.297 45.521 12.957 44.691 12.959 43.809C12.961 42.923 13.309 42.093 13.937 41.471L16.555 38.873C17.805 37.633 19.987 37.643 21.229 38.893L21.879 39.551C22.499 40.175 22.837 41.005 22.833 41.889C22.829 42.775 22.483 43.603 21.855 44.223L19.239 46.817C18.619 47.435 17.791 47.775 16.913 47.775ZM18.881 39.917C18.533 39.917 18.207 40.049 17.963 40.293L15.345 42.891C15.097 43.137 14.961 43.465 14.959 43.815C14.959 44.163 15.091 44.489 15.335 44.733L15.987 45.389C16.475 45.885 17.339 45.883 17.831 45.397L20.449 42.801C20.697 42.557 20.833 42.229 20.833 41.879C20.835 41.529 20.703 41.203 20.459 40.959L19.809 40.301C19.563 40.055 19.233 39.917 18.881 39.917Z"/>
</mask>
<path d="M16.913 47.775C16.023 47.775 15.189 47.429 14.567 46.797L13.917 46.143C13.297 45.521 12.957 44.691 12.959 43.809C12.961 42.923 13.309 42.093 13.937 41.471L16.555 38.873C17.805 37.633 19.987 37.643 21.229 38.893L21.879 39.551C22.499 40.175 22.837 41.005 22.833 41.889C22.829 42.775 22.483 43.603 21.855 44.223L19.239 46.817C18.619 47.435 17.791 47.775 16.913 47.775ZM18.881 39.917C18.533 39.917 18.207 40.049 17.963 40.293L15.345 42.891C15.097 43.137 14.961 43.465 14.959 43.815C14.959 44.163 15.091 44.489 15.335 44.733L15.987 45.389C16.475 45.885 17.339 45.883 17.831 45.397L20.449 42.801C20.697 42.557 20.833 42.229 20.833 41.879C20.835 41.529 20.703 41.203 20.459 40.959L19.809 40.301C19.563 40.055 19.233 39.917 18.881 39.917Z" fill="#D8A131" stroke="black" stroke-width="0.6" mask="url(#path-8-inside-8_36_7107)"/>
<mask id="path-9-inside-9_36_7107" fill="white">
<path d="M22.1112 51.1542C21.2212 51.1542 20.3872 50.8062 19.7632 50.1762L19.1152 49.5202C18.4952 48.8982 18.1552 48.0662 18.1572 47.1842C18.1592 46.2982 18.5052 45.4702 19.1312 44.8502L21.1012 42.9042C22.3512 41.6662 24.5372 41.6762 25.7752 42.9282L26.4232 43.5822C27.7032 44.8742 27.6932 46.9702 26.4052 48.2542L24.4372 50.2002C23.8172 50.8142 22.9912 51.1542 22.1112 51.1542ZM23.4272 43.9482C23.0792 43.9482 22.7532 44.0822 22.5092 44.3242L20.5392 46.2702C20.2932 46.5142 20.1592 46.8402 20.1572 47.1902C20.1552 47.5402 20.2892 47.8662 20.5332 48.1102L21.1852 48.7682C21.6732 49.2642 22.5372 49.2642 23.0292 48.7782L24.9972 46.8322C25.5052 46.3262 25.5092 45.4982 25.0032 44.9862L24.3552 44.3322C24.1112 44.0842 23.7812 43.9482 23.4272 43.9482Z"/>
</mask>
<path d="M22.1112 51.1542C21.2212 51.1542 20.3872 50.8062 19.7632 50.1762L19.1152 49.5202C18.4952 48.8982 18.1552 48.0662 18.1572 47.1842C18.1592 46.2982 18.5052 45.4702 19.1312 44.8502L21.1012 42.9042C22.3512 41.6662 24.5372 41.6762 25.7752 42.9282L26.4232 43.5822C27.7032 44.8742 27.6932 46.9702 26.4052 48.2542L24.4372 50.2002C23.8172 50.8142 22.9912 51.1542 22.1112 51.1542ZM23.4272 43.9482C23.0792 43.9482 22.7532 44.0822 22.5092 44.3242L20.5392 46.2702C20.2932 46.5142 20.1592 46.8402 20.1572 47.1902C20.1552 47.5402 20.2892 47.8662 20.5332 48.1102L21.1852 48.7682C21.6732 49.2642 22.5372 49.2642 23.0292 48.7782L24.9972 46.8322C25.5052 46.3262 25.5092 45.4982 25.0032 44.9862L24.3552 44.3322C24.1112 44.0842 23.7812 43.9482 23.4272 43.9482Z" fill="#D8A131" stroke="black" stroke-width="0.6" mask="url(#path-9-inside-9_36_7107)"/>
<mask id="path-10-inside-10_36_7107" fill="white">
<path d="M56.5614 38.8774C56.4174 38.8774 56.2714 38.8454 56.1394 38.7834C55.8954 38.6694 55.7074 38.4614 55.6194 38.2074L49.1634 19.7654C48.9874 19.2614 49.2394 18.7054 49.7354 18.5074L60.5994 14.1534C61.1134 13.9494 61.6934 14.1974 61.8994 14.7094C62.1054 15.2214 61.8554 15.8034 61.3434 16.0094L51.3654 20.0074L57.1654 36.5794L60.7994 35.2094C61.3174 35.0154 61.8934 35.2754 62.0874 35.7934C62.2834 36.3094 62.0214 36.8874 61.5034 37.0814L56.9114 38.8114C56.8014 38.8554 56.6814 38.8774 56.5614 38.8774Z"/>
</mask>
<path d="M56.5614 38.8774C56.4174 38.8774 56.2714 38.8454 56.1394 38.7834C55.8954 38.6694 55.7074 38.4614 55.6194 38.2074L49.1634 19.7654C48.9874 19.2614 49.2394 18.7054 49.7354 18.5074L60.5994 14.1534C61.1134 13.9494 61.6934 14.1974 61.8994 14.7094C62.1054 15.2214 61.8554 15.8034 61.3434 16.0094L51.3654 20.0074L57.1654 36.5794L60.7994 35.2094C61.3174 35.0154 61.8934 35.2754 62.0874 35.7934C62.2834 36.3094 62.0214 36.8874 61.5034 37.0814L56.9114 38.8114C56.8014 38.8554 56.6814 38.8774 56.5614 38.8774Z" fill="#D8A131" stroke="black" stroke-width="0.6" mask="url(#path-10-inside-10_36_7107)"/>
<mask id="path-11-inside-11_36_7107" fill="white">
<path d="M6.93777 38.812C6.83177 38.812 6.72577 38.796 6.61977 38.76L2.66577 37.436C2.14177 37.26 1.85977 36.694 2.03577 36.17C2.21177 35.646 2.78177 35.366 3.30177 35.54L6.31977 36.55L12.1398 19.926L2.72377 15.958C2.21377 15.744 1.97577 15.158 2.18977 14.648C2.40577 14.14 2.99177 13.906 3.49977 14.116L13.7798 18.45C14.2658 18.656 14.5098 19.204 14.3358 19.702L7.87977 38.144C7.73777 38.554 7.34977 38.812 6.93777 38.812Z"/>
</mask>
<path d="M6.93777 38.812C6.83177 38.812 6.72577 38.796 6.61977 38.76L2.66577 37.436C2.14177 37.26 1.85977 36.694 2.03577 36.17C2.21177 35.646 2.78177 35.366 3.30177 35.54L6.31977 36.55L12.1398 19.926L2.72377 15.958C2.21377 15.744 1.97577 15.158 2.18977 14.648C2.40577 14.14 2.99177 13.906 3.49977 14.116L13.7798 18.45C14.2658 18.656 14.5098 19.204 14.3358 19.702L7.87977 38.144C7.73777 38.554 7.34977 38.812 6.93777 38.812Z" fill="#D8A131" stroke="black" stroke-width="0.6" mask="url(#path-11-inside-11_36_7107)"/>
</svg>
